<?xml version="1.0" encoding="utf-8" standalone="no"?>
<!DOCTYPE svg PUBLIC "-//W3C//DTD SVG 1.1//EN"
  "http://www.w3.org/Graphics/SVG/1.1/DTD/svg11.dtd">
<!-- Created with matplotlib (https://matplotlib.org/) -->
<svg height="325.44pt" version="1.1" viewBox="0 0 456.48 325.44" width="456.48pt" xmlns="http://www.w3.org/2000/svg" xmlns:xlink="http://www.w3.org/1999/xlink">
 <defs>
  <style type="text/css">
*{stroke-linecap:butt;stroke-linejoin:round;white-space:pre;}
  </style>
 </defs>
 <g id="figure_1">
  <g id="patch_1">
   <path d="M 0 325.44 
L 456.48 325.44 
L 456.48 0 
L 0 0 
z
" style="fill:#ffffff;"/>
  </g>
  <g id="axes_1">
   <g id="patch_2">
    <path d="M 54.06 302.92 
L 448.070012 302.92 
L 448.070012 22.96 
L 54.06 22.96 
z
" style="fill:#ffffff;"/>
   </g>
   <g id="LineCollection_1"/>
   <path clip-path="url(#p5a073a3f88)" d="M 54.06 133.076727 
L 448.070012 133.076727 
" style="fill:none;stroke:#008000;stroke-dasharray:1,1.65;stroke-dashoffset:0;"/>
   <path clip-path="url(#p5a073a3f88)" d="M 54.06 302.92 
L 54.06 22.96 
" style="fill:none;stroke:#0000ff;stroke-linecap:square;"/>
   <path clip-path="url(#p5a073a3f88)" d="M 112.217058 302.92 
L 112.217058 22.96 
" style="fill:none;stroke:#0000ff;stroke-linecap:square;"/>
   <path clip-path="url(#p5a073a3f88)" d="M 145.826562 302.92 
L 145.826562 22.96 
" style="fill:none;stroke:#0000ff;stroke-linecap:square;"/>
   <path clip-path="url(#p5a073a3f88)" d="M 203.98362 302.92 
L 203.98362 22.96 
" style="fill:none;stroke:#0000ff;stroke-linecap:square;"/>
   <path clip-path="url(#p5a073a3f88)" d="M 264.585647 302.92 
L 264.585647 22.96 
" style="fill:none;stroke:#0000ff;stroke-linecap:square;"/>
   <path clip-path="url(#p5a073a3f88)" d="M 322.742706 302.92 
L 322.742706 22.96 
" style="fill:none;stroke:#0000ff;stroke-linecap:square;"/>
   <path clip-path="url(#p5a073a3f88)" d="M 389.912953 302.92 
L 389.912953 22.96 
" style="fill:none;stroke:#0000ff;stroke-linecap:square;"/>
   <path clip-path="url(#p5a073a3f88)" d="M 448.07 302.92 
L 448.07 22.96 
" style="fill:none;stroke:#0000ff;stroke-linecap:square;"/>
   <g id="matplotlib.axis_1">
    <g id="xtick_1">
     <g id="line2d_1">
      <defs>
       <path d="M 0 0 
L 0 3.5 
" id="m92efd0f483" style="stroke:#000000;stroke-width:0.8;"/>
      </defs>
      <g>
       <use style="stroke:#000000;stroke-width:0.8;" x="54.06" xlink:href="#m92efd0f483" y="302.92"/>
      </g>
     </g>
     <g id="text_1">
      <path d="M 50.315625 310.278125 
L 51.58875 310.278125 
L 54.013125 313.87625 
L 56.4225 310.278125 
L 57.69375 310.278125 
L 54.6 314.860625 
L 54.6 319.026875 
L 53.41125 319.026875 
L 53.41125 314.860625 
z
"/>
     </g>
    </g>
    <g id="xtick_2">
     <g id="line2d_2">
      <g>
       <use style="stroke:#000000;stroke-width:0.8;" x="112.217058" xlink:href="#m92efd0f483" y="302.92"/>
      </g>
     </g>
     <g id="text_2">
      <path d="M 110.034558 319.026875 
L 110.034558 310.278125 
L 115.477683 310.278125 
L 115.477683 311.275625 
L 111.217683 311.275625 
L 111.217683 319.026875 
z
"/>
     </g>
    </g>
    <g id="xtick_3">
     <g id="line2d_3">
      <g>
       <use style="stroke:#000000;stroke-width:0.8;" x="145.826562" xlink:href="#m92efd0f483" y="302.92"/>
      </g>
     </g>
     <g id="text_3">
      <path d="M 142.442187 310.278125 
L 143.713437 310.278125 
L 145.888437 313.53125 
L 148.072812 310.278125 
L 149.344062 310.278125 
L 146.531562 314.48 
L 149.531562 319.026875 
L 148.260312 319.026875 
L 145.800312 315.306875 
L 143.321562 319.026875 
L 142.044687 319.026875 
L 145.166562 314.35625 
z
"/>
     </g>
    </g>
    <g id="xtick_4">
     <g id="line2d_4">
      <g>
       <use style="stroke:#000000;stroke-width:0.8;" x="203.98362" xlink:href="#m92efd0f483" y="302.92"/>
      </g>
     </g>
     <g id="text_4">
      <path d="M 203.276745 319.026875 
L 199.93737 310.278125 
L 201.172995 310.278125 
L 203.94612 317.643125 
L 206.722995 310.278125 
L 207.952995 310.278125 
L 204.619245 319.026875 
z
"/>
     </g>
    </g>
    <g id="xtick_5">
     <g id="line2d_5">
      <g>
       <use style="stroke:#000000;stroke-width:0.8;" x="264.585647" xlink:href="#m92efd0f483" y="302.92"/>
      </g>
     </g>
     <g id="text_5">
      <path d="M 261.188147 310.278125 
L 262.378772 310.278125 
L 262.378772 315.59375 
Q 262.378772 317 262.886897 317.61875 
Q 263.396897 318.235625 264.540647 318.235625 
Q 265.676897 318.235625 266.186897 317.61875 
Q 266.696897 317 266.696897 315.59375 
L 266.696897 310.278125 
L 267.885647 310.278125 
L 267.885647 315.74 
Q 267.885647 317.45 267.038147 318.32375 
Q 266.192522 319.1975 264.540647 319.1975 
Q 262.881272 319.1975 262.033772 318.32375 
Q 261.188147 317.45 261.188147 315.74 
z
"/>
     </g>
    </g>
    <g id="xtick_6">
     <g id="line2d_6">
      <g>
       <use style="stroke:#000000;stroke-width:0.8;" x="322.742706" xlink:href="#m92efd0f483" y="302.92"/>
      </g>
     </g>
     <g id="text_6">
      <path d="M 323.869581 314.924375 
Q 324.250206 315.05375 324.610206 315.475625 
Q 324.970206 315.8975 325.333956 316.63625 
L 326.535831 319.026875 
L 325.262706 319.026875 
L 324.145206 316.7825 
Q 323.710206 315.903125 323.303331 315.61625 
Q 322.896456 315.329375 322.193331 315.329375 
L 320.903331 315.329375 
L 320.903331 319.026875 
L 319.720206 319.026875 
L 319.720206 310.278125 
L 322.392081 310.278125 
Q 323.892081 310.278125 324.630831 310.90625 
Q 325.369581 311.5325 325.369581 312.798125 
Q 325.369581 313.625 324.985206 314.170625 
Q 324.600831 314.714375 323.869581 314.924375 
z
M 320.903331 311.25125 
L 320.903331 314.35625 
L 322.392081 314.35625 
Q 323.247081 314.35625 323.683956 313.960625 
Q 324.120831 313.565 324.120831 312.798125 
Q 324.120831 312.03125 323.683956 311.64125 
Q 323.247081 311.25125 322.392081 311.25125 
z
"/>
     </g>
    </g>
    <g id="xtick_7">
     <g id="line2d_7">
      <g>
       <use style="stroke:#000000;stroke-width:0.8;" x="389.912953" xlink:href="#m92efd0f483" y="302.92"/>
      </g>
     </g>
     <g id="text_7">
      <path d="M 386.446078 310.278125 
L 393.319828 310.278125 
L 393.319828 311.181875 
L 387.788578 318.03125 
L 393.454828 318.03125 
L 393.454828 319.026875 
L 386.312953 319.026875 
L 386.312953 318.125 
L 391.844203 311.275625 
L 386.446078 311.275625 
z
"/>
     </g>
    </g>
    <g id="xtick_8">
     <g id="line2d_8">
      <g>
       <use style="stroke:#000000;stroke-width:0.8;" x="448.07" xlink:href="#m92efd0f483" y="302.92"/>
      </g>
     </g>
     <g id="text_8">
      <path d="M 444.314375 310.278125 
L 451.715 310.278125 
L 451.715 311.275625 
L 448.61 311.275625 
L 448.61 319.026875 
L 447.42125 319.026875 
L 447.42125 311.275625 
L 444.314375 311.275625 
z
"/>
     </g>
    </g>
   </g>
   <g id="matplotlib.axis_2">
    <g id="ytick_1">
     <g id="line2d_9">
      <defs>
       <path d="M 0 0 
L -3.5 0 
" id="mf902900eb5" style="stroke:#000000;stroke-width:0.8;"/>
      </defs>
      <g>
       <use style="stroke:#000000;stroke-width:0.8;" x="54.06" xlink:href="#mf902900eb5" y="298.251816"/>
      </g>
     </g>
     <g id="text_9">
      <path d="M 23.005625 298.550879 
L 30.516875 298.550879 
L 30.516875 299.546504 
L 23.005625 299.546504 
z
M 33.277813 301.815254 
L 35.210938 301.815254 
L 35.210938 295.140254 
L 33.107188 295.562129 
L 33.107188 294.484004 
L 35.199688 294.062129 
L 36.382813 294.062129 
L 36.382813 301.815254 
L 38.315938 301.815254 
L 38.315938 302.810879 
L 33.277813 302.810879 
z
M 40.719453 294.062129 
L 45.365703 294.062129 
L 45.365703 295.059629 
L 41.803203 295.059629 
L 41.803203 297.202754 
Q 42.060078 297.114629 42.316953 297.071504 
Q 42.575703 297.028379 42.834453 297.028379 
Q 44.298828 297.028379 45.153828 297.830879 
Q 46.010703 298.633379 46.010703 300.004004 
Q 46.010703 301.415879 45.131328 302.199629 
Q 44.251953 302.981504 42.652578 302.981504 
Q 42.101328 302.981504 41.529453 302.887754 
Q 40.959453 302.794004 40.350078 302.606504 
L 40.350078 301.415879 
Q 40.876953 301.702754 41.439453 301.843379 
Q 42.001953 301.984004 42.628203 301.984004 
Q 43.642578 301.984004 44.233203 301.451504 
Q 44.825703 300.919004 44.825703 300.004004 
Q 44.825703 299.090879 44.233203 298.558379 
Q 43.642578 298.024004 42.628203 298.024004 
Q 42.153828 298.024004 41.681328 298.129004 
Q 41.210703 298.234004 40.719453 298.457129 
z
"/>
     </g>
    </g>
    <g id="ytick_2">
     <g id="line2d_10">
      <g>
       <use style="stroke:#000000;stroke-width:0.8;" x="54.06" xlink:href="#mf902900eb5" y="243.193453"/>
      </g>
     </g>
     <g id="text_10">
      <path d="M 23.005625 243.492516 
L 30.516875 243.492516 
L 30.516875 244.488141 
L 23.005625 244.488141 
z
M 33.277813 246.756891 
L 35.210938 246.756891 
L 35.210938 240.081891 
L 33.107188 240.503766 
L 33.107188 239.425641 
L 35.199688 239.003766 
L 36.382813 239.003766 
L 36.382813 246.756891 
L 38.315938 246.756891 
L 38.315938 247.752516 
L 33.277813 247.752516 
z
M 43.237578 239.783766 
Q 42.324453 239.783766 41.863203 240.683766 
Q 41.403828 241.581891 41.403828 243.387516 
Q 41.403828 245.185641 41.863203 246.085641 
Q 42.324453 246.985641 43.237578 246.985641 
Q 44.158203 246.985641 44.617578 246.085641 
Q 45.078828 245.185641 45.078828 243.387516 
Q 45.078828 241.581891 44.617578 240.683766 
Q 44.158203 239.783766 43.237578 239.783766 
z
M 43.237578 238.846266 
Q 44.709453 238.846266 45.485703 240.010641 
Q 46.261953 241.173141 46.261953 243.387516 
Q 46.261953 245.596266 45.485703 246.760641 
Q 44.709453 247.923141 43.237578 247.923141 
Q 41.767578 247.923141 40.991328 246.760641 
Q 40.215078 245.596266 40.215078 243.387516 
Q 40.215078 241.173141 40.991328 240.010641 
Q 41.767578 238.846266 43.237578 238.846266 
z
"/>
     </g>
    </g>
    <g id="ytick_3">
     <g id="line2d_11">
      <g>
       <use style="stroke:#000000;stroke-width:0.8;" x="54.06" xlink:href="#mf902900eb5" y="188.13509"/>
      </g>
     </g>
     <g id="text_11">
      <path d="M 30.640625 188.434152 
L 38.151875 188.434152 
L 38.151875 189.429777 
L 30.640625 189.429777 
z
M 40.719688 183.945402 
L 45.365938 183.945402 
L 45.365938 184.942902 
L 41.803438 184.942902 
L 41.803438 187.086027 
Q 42.060313 186.997902 42.317188 186.954777 
Q 42.575938 186.911652 42.834688 186.911652 
Q 44.299063 186.911652 45.154063 187.714152 
Q 46.010938 188.516652 46.010938 189.887277 
Q 46.010938 191.299152 45.131563 192.082902 
Q 44.252188 192.864777 42.652813 192.864777 
Q 42.101563 192.864777 41.529688 192.771027 
Q 40.959688 192.677277 40.350313 192.489777 
L 40.350313 191.299152 
Q 40.877188 191.586027 41.439688 191.726652 
Q 42.002188 191.867277 42.628438 191.867277 
Q 43.642813 191.867277 44.233438 191.334777 
Q 44.825938 190.802277 44.825938 189.887277 
Q 44.825938 188.974152 44.233438 188.441652 
Q 43.642813 187.907277 42.628438 187.907277 
Q 42.154063 187.907277 41.681563 188.012277 
Q 41.210938 188.117277 40.719688 188.340402 
z
"/>
     </g>
    </g>
    <g id="ytick_4">
     <g id="line2d_12">
      <g>
       <use style="stroke:#000000;stroke-width:0.8;" x="54.06" xlink:href="#mf902900eb5" y="133.076727"/>
      </g>
     </g>
     <g id="text_12">
      <path d="M 43.23875 129.667039 
Q 42.325625 129.667039 41.864375 130.567039 
Q 41.405 131.465164 41.405 133.270789 
Q 41.405 135.068914 41.864375 135.968914 
Q 42.325625 136.868914 43.23875 136.868914 
Q 44.159375 136.868914 44.61875 135.968914 
Q 45.08 135.068914 45.08 133.270789 
Q 45.08 131.465164 44.61875 130.567039 
Q 44.159375 129.667039 43.23875 129.667039 
z
M 43.23875 128.729539 
Q 44.710625 128.729539 45.486875 129.893914 
Q 46.263125 131.056414 46.263125 133.270789 
Q 46.263125 135.479539 45.486875 136.643914 
Q 44.710625 137.806414 43.23875 137.806414 
Q 41.76875 137.806414 40.9925 136.643914 
Q 40.21625 135.479539 40.21625 133.270789 
Q 40.21625 131.056414 40.9925 129.893914 
Q 41.76875 128.729539 43.23875 128.729539 
z
"/>
     </g>
    </g>
    <g id="ytick_5">
     <g id="line2d_13">
      <g>
       <use style="stroke:#000000;stroke-width:0.8;" x="54.06" xlink:href="#mf902900eb5" y="78.018363"/>
      </g>
     </g>
     <g id="text_13">
      <path d="M 40.720625 73.828676 
L 45.366875 73.828676 
L 45.366875 74.826176 
L 41.804375 74.826176 
L 41.804375 76.969301 
Q 42.06125 76.881176 42.318125 76.838051 
Q 42.576875 76.794926 42.835625 76.794926 
Q 44.3 76.794926 45.155 77.597426 
Q 46.011875 78.399926 46.011875 79.770551 
Q 46.011875 81.182426 45.1325 81.966176 
Q 44.253125 82.748051 42.65375 82.748051 
Q 42.1025 82.748051 41.530625 82.654301 
Q 40.960625 82.560551 40.35125 82.373051 
L 40.35125 81.182426 
Q 40.878125 81.469301 41.440625 81.609926 
Q 42.003125 81.750551 42.629375 81.750551 
Q 43.64375 81.750551 44.234375 81.218051 
Q 44.826875 80.685551 44.826875 79.770551 
Q 44.826875 78.857426 44.234375 78.324926 
Q 43.64375 77.790551 42.629375 77.790551 
Q 42.155 77.790551 41.6825 77.895551 
Q 41.211875 78.000551 40.720625 78.223676 
z
"/>
     </g>
    </g>
    <g id="ytick_6">
     <g id="line2d_14">
      <g>
       <use style="stroke:#000000;stroke-width:0.8;" x="54.06" xlink:href="#mf902900eb5" y="22.96"/>
      </g>
     </g>
     <g id="text_14">
      <path d="M 33.27875 26.523438 
L 35.211875 26.523438 
L 35.211875 19.848438 
L 33.108125 20.270313 
L 33.108125 19.192188 
L 35.200625 18.770313 
L 36.38375 18.770313 
L 36.38375 26.523438 
L 38.316875 26.523438 
L 38.316875 27.519063 
L 33.27875 27.519063 
z
M 43.238516 19.550313 
Q 42.325391 19.550313 41.864141 20.450313 
Q 41.404766 21.348438 41.404766 23.154063 
Q 41.404766 24.952188 41.864141 25.852188 
Q 42.325391 26.752188 43.238516 26.752188 
Q 44.159141 26.752188 44.618516 25.852188 
Q 45.079766 24.952188 45.079766 23.154063 
Q 45.079766 21.348438 44.618516 20.450313 
Q 44.159141 19.550313 43.238516 19.550313 
z
M 43.238516 18.612813 
Q 44.710391 18.612813 45.486641 19.777188 
Q 46.262891 20.939688 46.262891 23.154063 
Q 46.262891 25.362813 45.486641 26.527188 
Q 44.710391 27.689688 43.238516 27.689688 
Q 41.768516 27.689688 40.992266 26.527188 
Q 40.216016 25.362813 40.216016 23.154063 
Q 40.216016 20.939688 40.992266 19.777188 
Q 41.768516 18.612813 43.238516 18.612813 
z
"/>
     </g>
    </g>
    <g id="text_15">
     <path d="M 6.450625 197.2825 
L 6.450625 191.75125 
L 7.448125 191.75125 
L 7.448125 196.099375 
L 10.0375 196.099375 
L 10.0375 191.933125 
L 11.033125 191.933125 
L 11.033125 196.099375 
L 14.20375 196.099375 
L 14.20375 191.64625 
L 15.199375 191.64625 
L 15.199375 197.2825 
z
M 11.2375 184.291094 
L 15.199375 184.291094 
L 15.199375 185.369219 
L 11.273125 185.369219 
Q 10.34125 185.369219 9.88 185.732969 
Q 9.416875 186.096719 9.416875 186.822344 
Q 9.416875 187.696094 9.97375 188.200469 
Q 10.52875 188.704844 11.490625 188.704844 
L 15.199375 188.704844 
L 15.199375 189.788594 
L 8.636875 189.788594 
L 8.636875 188.704844 
L 9.656875 188.704844 
Q 9.064375 188.316719 8.771875 187.793594 
Q 8.479375 187.268594 8.479375 186.582344 
Q 8.479375 185.451719 9.17875 184.872344 
Q 9.878125 184.291094 11.2375 184.291094 
z
M 11.648125 176.528125 
L 12.175 176.528125 
L 12.175 181.485625 
Q 13.28875 181.414375 13.871875 180.814375 
Q 14.455 180.214375 14.455 179.141875 
Q 14.455 178.52125 14.303125 177.938125 
Q 14.15125 177.355 13.845625 176.779375 
L 14.865625 176.779375 
Q 15.11125 177.360625 15.240625 177.97 
Q 15.37 178.579375 15.37 179.205625 
Q 15.37 180.776875 14.456875 181.69375 
Q 13.541875 182.610625 11.981875 182.610625 
Q 10.37125 182.610625 9.42625 181.740625 
Q 8.479375 180.870625 8.479375 179.393125 
Q 8.479375 178.069375 9.3325 177.29875 
Q 10.18375 176.528125 11.648125 176.528125 
z
M 11.33125 177.60625 
Q 10.448125 177.6175 9.92125 178.10125 
Q 9.3925 178.585 9.3925 179.381875 
Q 9.3925 180.28375 9.9025 180.825625 
Q 10.4125 181.3675 11.33875 181.45 
z
M 9.64375 170.956562 
Q 9.53875 171.138437 9.49 171.352187 
Q 9.439375 171.565937 9.439375 171.822812 
Q 9.439375 172.737812 10.03375 173.227187 
Q 10.628125 173.716562 11.741875 173.716562 
L 15.199375 173.716562 
L 15.199375 174.800312 
L 8.636875 174.800312 
L 8.636875 173.716562 
L 9.656875 173.716562 
Q 9.05875 173.375312 8.77 172.831562 
Q 8.479375 172.285937 8.479375 171.505937 
Q 8.479375 171.395312 8.494375 171.260312 
Q 8.5075 171.125312 8.5375 170.962187 
z
M 11.84125 165.507344 
Q 10.669375 165.507344 10.02625 165.991094 
Q 9.38125 166.472969 9.38125 167.346719 
Q 9.38125 168.212969 10.02625 168.696719 
Q 10.669375 169.180469 11.84125 169.180469 
Q 13.0075 169.180469 13.6525 168.696719 
Q 14.2975 168.212969 14.2975 167.346719 
Q 14.2975 166.472969 13.6525 165.991094 
Q 13.0075 165.507344 11.84125 165.507344 
z
M 14.385625 164.429219 
Q 16.06 164.429219 16.8775 165.173594 
Q 17.695 165.916094 17.695 167.451719 
Q 17.695 168.019844 17.610625 168.524219 
Q 17.52625 169.028594 17.35 169.502969 
L 16.301875 169.502969 
Q 16.55875 169.028594 16.680625 168.565469 
Q 16.804375 168.102344 16.804375 167.622344 
Q 16.804375 166.561094 16.25125 166.034219 
Q 15.698125 165.507344 14.57875 165.507344 
L 14.044375 165.507344 
Q 14.625625 165.841094 14.9125 166.362344 
Q 15.199375 166.883594 15.199375 167.611094 
Q 15.199375 168.816719 14.280625 169.555469 
Q 13.36 170.294219 11.84125 170.294219 
Q 10.31875 170.294219 9.4 169.555469 
Q 8.479375 168.816719 8.479375 167.611094 
Q 8.479375 166.883594 8.76625 166.362344 
Q 9.053125 165.841094 9.6325 165.507344 
L 8.636875 165.507344 
L 8.636875 164.429219 
z
M 15.80875 159.478281 
Q 16.980625 159.933906 17.336875 160.368906 
Q 17.695 160.802031 17.695 161.527656 
L 17.695 162.390156 
L 16.793125 162.390156 
L 16.793125 161.756406 
Q 16.793125 161.312031 16.58125 161.066406 
Q 16.37125 160.818906 15.585625 160.520781 
L 15.094375 160.327656 
L 8.636875 162.980781 
L 8.636875 161.838906 
L 13.76875 159.787656 
L 8.636875 157.736406 
L 8.636875 156.594531 
z
M 6.094375 148.702891 
Q 7.440625 149.486641 8.760625 149.869141 
Q 10.07875 150.249766 11.4325 150.249766 
Q 12.784375 150.249766 14.111875 149.865391 
Q 15.439375 149.481016 16.781875 148.702891 
L 16.781875 149.640391 
Q 15.40375 150.517891 14.074375 150.954766 
Q 12.745 151.391641 11.4325 151.391641 
Q 10.125625 151.391641 8.801875 150.958516 
Q 7.47625 150.523516 6.094375 149.640391 
z
M 11.648125 140.996875 
L 12.175 140.996875 
L 12.175 145.954375 
Q 13.28875 145.883125 13.871875 145.283125 
Q 14.455 144.683125 14.455 143.610625 
Q 14.455 142.99 14.303125 142.406875 
Q 14.15125 141.82375 13.845625 141.248125 
L 14.865625 141.248125 
Q 15.11125 141.829375 15.240625 142.43875 
Q 15.37 143.048125 15.37 143.674375 
Q 15.37 145.245625 14.456875 146.1625 
Q 13.541875 147.079375 11.981875 147.079375 
Q 10.37125 147.079375 9.42625 146.209375 
Q 8.479375 145.339375 8.479375 143.861875 
Q 8.479375 142.538125 9.3325 141.7675 
Q 10.18375 140.996875 11.648125 140.996875 
z
M 11.33125 142.075 
Q 10.448125 142.08625 9.92125 142.57 
Q 9.3925 143.05375 9.3925 143.850625 
Q 9.3925 144.7525 9.9025 145.294375 
Q 10.4125 145.83625 11.33875 145.91875 
z
M 15.199375 136.925312 
L 6.450625 140.264687 
L 6.450625 139.029062 
L 13.815625 136.255937 
L 6.450625 133.479062 
L 6.450625 132.249062 
L 15.199375 135.582812 
z
M 6.094375 131.187578 
L 6.094375 130.250078 
Q 7.47625 129.372578 8.801875 128.935703 
Q 10.125625 128.498828 11.4325 128.498828 
Q 12.745 128.498828 14.074375 128.935703 
Q 15.40375 129.372578 16.781875 130.250078 
L 16.781875 131.187578 
Q 15.439375 130.409453 14.111875 130.025078 
Q 12.784375 129.640703 11.4325 129.640703 
Q 10.07875 129.640703 8.760625 130.025078 
Q 7.440625 130.409453 6.094375 131.187578 
z
"/>
    </g>
   </g>
   <g id="LineCollection_2">
    <path clip-path="url(#p5a073a3f88)" d="M 54.06 261.711158 
L 56.967853 263.119664 
L 68.599265 272.893491 
L 71.507118 275.104418 
L 74.41497 277.175709 
L 77.322823 279.102196 
L 80.230676 280.880269 
L 83.138529 282.507103 
L 86.046382 283.980212 
L 88.954235 285.297069 
L 91.862088 286.454615 
L 94.769941 287.448375 
L 97.677794 288.27046 
L 100.585647 288.904351 
L 103.4935 289.309001 
L 106.401353 289.362909 
L 109.309206 288.694182 
L 112.217058 287.565508 
L 113.897534 287.949442 
L 115.578009 288.630627 
L 117.258484 289.134993 
L 118.938959 289.418798 
L 122.299909 289.588571 
L 127.341335 289.407866 
L 142.465611 288.451932 
L 148.734415 288.326576 
L 151.642268 288.097402 
L 154.550121 287.714449 
L 157.457973 287.176869 
L 160.365826 286.484214 
L 163.273679 285.636527 
L 166.181532 284.634269 
L 169.089385 283.478202 
L 171.997238 282.169314 
L 174.905091 280.708789 
L 177.812944 279.098031 
L 180.720797 277.33875 
L 183.62865 275.433119 
L 186.536503 273.384081 
L 192.352209 268.875863 
L 201.075767 261.45238 
L 203.98362 259.982389 
L 207.013722 261.45238 
L 219.134127 271.195957 
L 222.164228 273.384081 
L 225.19433 275.433119 
L 228.224431 277.33875 
L 231.254532 279.098031 
L 234.284634 280.708789 
L 237.314735 282.169314 
L 240.344836 283.478202 
L 243.374938 284.634269 
L 246.405039 285.636527 
L 249.43514 286.484214 
L 252.465242 287.176869 
L 255.495343 287.714449 
L 258.525444 288.097402 
L 261.555546 288.326576 
L 264.585647 288.402841 
L 267.4935 288.326576 
L 270.401353 288.097402 
L 273.309206 287.714449 
L 276.217059 287.176869 
L 279.124912 286.484214 
L 282.032765 285.636527 
L 284.940618 284.634269 
L 287.848471 283.478202 
L 290.756323 282.169314 
L 293.664176 280.708789 
L 296.572029 279.098031 
L 299.479882 277.33875 
L 302.387735 275.433119 
L 305.295588 273.384081 
L 311.111294 268.875863 
L 319.834853 261.45238 
L 322.742706 259.982389 
L 326.101218 261.463879 
L 339.535268 271.46577 
L 346.252292 275.943863 
L 349.610805 277.988861 
L 352.969317 279.894825 
L 356.327829 281.655116 
L 359.686342 283.263345 
L 363.044854 284.713238 
L 366.403367 285.998359 
L 369.761879 287.111441 
L 373.120391 288.04275 
L 376.478904 288.775559 
L 379.837416 289.271839 
L 383.195928 289.418166 
L 386.554441 288.820493 
L 389.912953 287.565508 
L 392.820806 288.694182 
L 395.728659 289.362909 
L 398.636512 289.309001 
L 401.544365 288.904351 
L 404.452218 288.27046 
L 407.360071 287.448375 
L 410.267924 286.454615 
L 413.175777 285.297069 
L 416.08363 283.980212 
L 418.991482 282.507103 
L 421.899335 280.880269 
L 424.807188 279.102196 
L 427.715041 277.175709 
L 430.622894 275.104418 
L 436.4386 270.551375 
L 445.162159 263.119664 
L 448.070012 261.711158 
L 448.070012 261.711158 
" style="fill:none;stroke:#000000;"/>
    <path clip-path="url(#p5a073a3f88)" d="M 54.06 257.069483 
L 56.967853 255.533628 
L 59.875706 252.707183 
L 62.783559 249.544064 
L 68.599265 242.740868 
L 74.41497 235.534035 
L 77.322823 234.516982 
L 83.138529 236.429555 
L 88.954235 238.136124 
L 94.769941 239.535761 
L 100.585647 240.567165 
L 106.401353 241.196133 
L 113.897534 241.527071 
L 115.578009 241.875771 
L 117.258484 242.422853 
L 120.619434 243.944898 
L 125.66086 246.710591 
L 130.702285 249.400303 
L 134.063236 250.928204 
L 137.424186 252.144323 
L 140.785136 252.989135 
L 144.146087 253.422032 
L 145.826562 253.476645 
L 148.734415 253.404064 
L 151.642268 253.186632 
L 154.550121 252.825296 
L 157.457973 252.321675 
L 160.365826 251.678126 
L 163.273679 250.897851 
L 166.181532 249.985068 
L 169.089385 248.945252 
L 174.905091 246.515204 
L 180.720797 243.696329 
L 186.536503 240.649051 
L 189.444356 241.306074 
L 195.260061 248.136641 
L 198.167914 251.307111 
L 201.075767 254.16204 
L 203.98362 255.762162 
L 207.013722 254.16204 
L 210.043823 251.307111 
L 213.073924 248.136641 
L 219.134127 241.306074 
L 222.164228 240.649051 
L 231.254532 245.146623 
L 237.314735 247.785525 
L 240.344836 248.945252 
L 243.374938 249.985068 
L 246.405039 250.897851 
L 249.43514 251.678126 
L 252.465242 252.321675 
L 255.495343 252.825296 
L 258.525444 253.186632 
L 261.555546 253.404064 
L 264.585647 253.476645 
L 267.4935 253.404064 
L 270.401353 253.186632 
L 273.309206 252.825296 
L 276.217059 252.321675 
L 279.124912 251.678126 
L 282.032765 250.897851 
L 284.940618 249.985068 
L 287.848471 248.945252 
L 293.664176 246.515204 
L 299.479882 243.696329 
L 305.295588 240.649051 
L 308.203441 241.306074 
L 314.019147 248.136641 
L 316.927 251.307111 
L 319.834853 254.16204 
L 322.742706 255.762162 
L 326.101218 254.171297 
L 329.45973 251.345325 
L 332.818243 248.223608 
L 339.535268 241.582428 
L 342.89378 239.40845 
L 349.610805 241.034852 
L 352.969317 241.707126 
L 356.327829 242.219888 
L 359.686342 242.567557 
L 363.044854 242.753554 
L 366.403367 242.78891 
L 373.120391 242.490626 
L 386.554441 241.474017 
L 395.728659 241.196133 
L 401.544365 240.567165 
L 407.360071 239.535761 
L 413.175777 238.136124 
L 418.991482 236.429555 
L 424.807188 234.516982 
L 427.715041 235.534035 
L 433.530747 242.740868 
L 439.346453 249.544064 
L 442.254306 252.707183 
L 445.162159 255.533628 
L 448.070012 257.069483 
L 448.070012 257.069483 
" style="fill:none;stroke:#000000;"/>
    <path clip-path="url(#p5a073a3f88)" d="M 54.06 229.036858 
L 56.967853 229.156912 
L 59.875706 229.507471 
L 62.783559 230.062044 
L 65.691412 230.782993 
L 71.507118 232.55618 
L 74.41497 233.529581 
L 77.322823 231.846436 
L 83.138529 224.551518 
L 86.046382 221.175806 
L 88.954235 218.351472 
L 91.862088 216.581394 
L 94.769941 215.996145 
L 97.677794 216.082745 
L 106.401353 216.988771 
L 109.309206 217.140601 
L 112.217058 217.172874 
L 113.897534 217.001651 
L 115.578009 216.489204 
L 117.258484 215.654736 
L 118.938959 214.53731 
L 120.619434 213.180957 
L 122.299909 211.626 
L 125.66086 208.049887 
L 129.02181 204.01205 
L 134.063236 197.395226 
L 137.424186 192.884423 
L 139.104661 192.572199 
L 144.146087 192.361226 
L 145.826562 192.346795 
L 148.734415 192.915367 
L 151.642268 194.51128 
L 154.550121 196.897001 
L 157.457973 199.843675 
L 160.365826 203.179984 
L 163.273679 206.784479 
L 169.089385 214.462587 
L 180.720797 230.186166 
L 186.536503 237.701396 
L 189.444356 239.125505 
L 192.352209 237.675489 
L 195.260061 236.37739 
L 198.167914 235.329827 
L 201.075767 234.640465 
L 203.98362 234.398791 
L 207.013722 234.640465 
L 210.043823 235.329827 
L 213.073924 236.37739 
L 216.104026 237.675489 
L 219.134127 239.125505 
L 222.164228 237.701396 
L 228.224431 230.186166 
L 237.314735 218.412179 
L 243.374938 210.568257 
L 246.405039 206.784479 
L 249.43514 203.179984 
L 252.465242 199.843675 
L 255.495343 196.897001 
L 258.525444 194.51128 
L 261.555546 192.915367 
L 264.585647 192.346795 
L 267.4935 192.915367 
L 270.401353 194.51128 
L 273.309206 196.897001 
L 276.217059 199.843675 
L 279.124912 203.179984 
L 282.032765 206.784479 
L 287.848471 214.462587 
L 299.479882 230.186166 
L 305.295588 237.701396 
L 308.203441 239.125505 
L 311.111294 237.675489 
L 314.019147 236.37739 
L 316.927 235.329827 
L 319.834853 234.640465 
L 322.742706 234.398791 
L 326.101218 234.607915 
L 329.45973 235.194101 
L 332.818243 236.054816 
L 339.535268 238.097975 
L 342.89378 237.802079 
L 346.252292 234.339309 
L 359.686342 219.648921 
L 363.044854 216.258384 
L 366.403367 213.477871 
L 369.761879 212.151839 
L 373.120391 212.635972 
L 379.837416 215.224807 
L 383.195928 216.292702 
L 386.554441 216.964547 
L 389.912953 217.172874 
L 392.820806 217.140601 
L 395.728659 216.988771 
L 401.544365 216.393513 
L 404.452218 216.082745 
L 407.360071 215.996145 
L 410.267924 216.581394 
L 413.175777 218.351472 
L 416.08363 221.175806 
L 418.991482 224.551518 
L 424.807188 231.846436 
L 427.715041 233.529581 
L 433.530747 231.62816 
L 436.4386 230.782993 
L 439.346453 230.062044 
L 442.254306 229.507471 
L 445.162159 229.156912 
L 448.070012 229.036858 
L 448.070012 229.036858 
" style="fill:none;stroke:#000000;"/>
    <path clip-path="url(#p5a073a3f88)" d="M 54.06 185.143695 
L 56.967853 187.349263 
L 62.783559 192.799807 
L 65.691412 195.33827 
L 68.599265 197.725639 
L 71.507118 199.951309 
L 74.41497 202.003423 
L 77.322823 203.865191 
L 80.230676 205.508299 
L 83.138529 206.877511 
L 86.046382 207.851168 
L 88.954235 208.152416 
L 91.862088 207.333378 
L 94.769941 205.333329 
L 100.585647 200.138717 
L 103.4935 197.816645 
L 106.401353 195.996617 
L 109.309206 194.835097 
L 112.217058 194.435858 
L 117.258484 194.332214 
L 122.299909 194.037943 
L 130.702285 193.277599 
L 137.424186 192.597735 
L 142.465611 186.433988 
L 144.146087 184.982262 
L 145.826562 184.416138 
L 157.457973 184.484316 
L 163.273679 184.739679 
L 166.181532 185.030058 
L 169.089385 185.509366 
L 171.997238 186.260995 
L 174.905091 187.372754 
L 177.812944 188.900569 
L 180.720797 190.825709 
L 183.62865 193.047436 
L 189.444356 197.791068 
L 192.352209 200.019155 
L 195.260061 201.967944 
L 198.167914 203.501876 
L 201.075767 204.490913 
L 203.98362 204.833712 
L 207.013722 204.490913 
L 210.043823 203.501876 
L 213.073924 201.967944 
L 216.104026 200.019155 
L 219.134127 197.791068 
L 225.19433 193.047436 
L 228.224431 190.825709 
L 231.254532 188.900569 
L 234.284634 187.372754 
L 237.314735 186.260995 
L 240.344836 185.509366 
L 243.374938 185.030058 
L 246.405039 184.739679 
L 252.465242 184.484316 
L 264.585647 184.416138 
L 276.217059 184.484316 
L 282.032765 184.739679 
L 284.940618 185.030058 
L 287.848471 185.509366 
L 290.756323 186.260995 
L 293.664176 187.372754 
L 296.572029 188.900569 
L 299.479882 190.825709 
L 302.387735 193.047436 
L 308.203441 197.791068 
L 311.111294 200.019155 
L 314.019147 201.967944 
L 316.927 203.501876 
L 319.834853 204.490913 
L 322.742706 204.833712 
L 326.101218 204.433996 
L 329.45973 203.287632 
L 332.818243 201.536392 
L 342.89378 195.130654 
L 346.252292 193.999446 
L 349.610805 194.146946 
L 352.969317 195.442835 
L 356.327829 197.423624 
L 363.044854 201.848191 
L 366.403367 203.480813 
L 369.761879 203.695338 
L 373.120391 202.143141 
L 379.837416 197.698278 
L 383.195928 195.948323 
L 386.554441 194.823371 
L 389.912953 194.435858 
L 392.820806 194.835097 
L 395.728659 195.996617 
L 398.636512 197.816645 
L 401.544365 200.138717 
L 407.360071 205.333329 
L 410.267924 207.333378 
L 413.175777 208.152416 
L 416.08363 207.851168 
L 418.991482 206.877511 
L 421.899335 205.508299 
L 424.807188 203.865191 
L 427.715041 202.003423 
L 430.622894 199.951309 
L 433.530747 197.725639 
L 436.4386 195.33827 
L 442.254306 190.124105 
L 445.162159 187.349263 
L 448.070012 185.143695 
L 448.070012 185.143695 
" style="fill:none;stroke:#000000;"/>
    <path clip-path="url(#p5a073a3f88)" d="M 54.06 184.89287 
L 56.967853 184.637813 
L 59.875706 183.874029 
L 62.783559 182.631988 
L 65.691412 180.95155 
L 68.599265 178.878153 
L 71.507118 176.457739 
L 74.41497 173.733767 
L 77.322823 172.4162 
L 80.230676 174.939703 
L 83.138529 177.247916 
L 86.046382 179.338274 
L 88.954235 181.209256 
L 91.862088 182.860032 
L 94.769941 184.290237 
L 97.677794 185.49982 
L 100.585647 186.488931 
L 103.4935 187.257825 
L 106.401353 187.806782 
L 109.309206 188.136046 
L 113.897534 188.222774 
L 117.258484 188.040137 
L 120.619434 187.682649 
L 125.66086 186.857946 
L 132.38276 185.404122 
L 137.424186 184.315318 
L 140.785136 183.757714 
L 144.146087 183.447623 
L 148.734415 183.295294 
L 151.642268 182.959468 
L 154.550121 182.399526 
L 157.457973 181.615141 
L 160.365826 180.605891 
L 163.273679 179.371299 
L 166.181532 177.910877 
L 169.089385 176.224175 
L 171.997238 174.310842 
L 174.905091 172.1707 
L 177.812944 170.78214 
L 180.720797 172.228249 
L 183.62865 173.230894 
L 186.536503 173.893162 
L 189.444356 174.316441 
L 195.260061 174.739404 
L 201.075767 174.878112 
L 210.043823 174.831205 
L 216.104026 174.580014 
L 219.134127 174.316441 
L 222.164228 173.893162 
L 225.19433 173.230894 
L 228.224431 172.228249 
L 231.254532 170.78214 
L 234.284634 172.1707 
L 237.314735 174.310842 
L 240.344836 176.224175 
L 243.374938 177.910877 
L 246.405039 179.371299 
L 249.43514 180.605891 
L 252.465242 181.615141 
L 255.495343 182.399526 
L 258.525444 182.959468 
L 261.555546 183.295294 
L 264.585647 183.407212 
L 267.4935 183.295294 
L 270.401353 182.959468 
L 273.309206 182.399526 
L 276.217059 181.615141 
L 279.124912 180.605891 
L 282.032765 179.371299 
L 284.940618 177.910877 
L 287.848471 176.224175 
L 290.756323 174.310842 
L 293.664176 172.1707 
L 296.572029 170.78214 
L 299.479882 172.228249 
L 302.387735 173.230894 
L 305.295588 173.893162 
L 308.203441 174.316441 
L 314.019147 174.739404 
L 319.834853 174.878112 
L 326.101218 174.933609 
L 329.45973 175.079716 
L 332.818243 175.386726 
L 336.176755 175.896109 
L 339.535268 176.534283 
L 342.89378 176.987303 
L 346.252292 176.680589 
L 349.610805 175.122668 
L 352.969317 172.368468 
L 356.327829 175.076755 
L 359.686342 177.557148 
L 363.044854 179.786656 
L 366.403367 181.760932 
L 369.761879 183.476668 
L 373.120391 184.931415 
L 376.478904 186.123423 
L 379.837416 187.051494 
L 383.195928 187.714853 
L 386.554441 188.11303 
L 389.912953 188.245781 
L 392.820806 188.136046 
L 395.728659 187.806782 
L 398.636512 187.257825 
L 401.544365 186.488931 
L 404.452218 185.49982 
L 407.360071 184.290237 
L 410.267924 182.860032 
L 413.175777 181.209256 
L 416.08363 179.338274 
L 418.991482 177.247916 
L 421.899335 174.939703 
L 424.807188 172.4162 
L 427.715041 173.733767 
L 430.622894 176.457739 
L 433.530747 178.878153 
L 436.4386 180.95155 
L 439.346453 182.631988 
L 442.254306 183.874029 
L 445.162159 184.637813 
L 448.070012 184.89287 
L 448.070012 184.89287 
" style="fill:none;stroke:#000000;"/>
    <path clip-path="url(#p5a073a3f88)" d="M 54.06 183.359588 
L 56.967853 181.02638 
L 62.783559 174.583951 
L 68.599265 167.70858 
L 71.507118 166.743128 
L 74.41497 169.681645 
L 77.322823 170.746093 
L 80.230676 167.531149 
L 86.046382 160.555399 
L 91.862088 153.091817 
L 97.677794 145.541565 
L 100.585647 141.948261 
L 103.4935 138.675634 
L 106.401353 135.961907 
L 109.309206 134.578865 
L 112.217058 134.58988 
L 113.897534 134.81161 
L 115.578009 135.460418 
L 117.258484 136.497601 
L 118.938959 137.874925 
L 120.619434 139.540763 
L 122.299909 141.444674 
L 125.66086 145.788356 
L 129.02181 150.606698 
L 140.785136 168.143883 
L 142.465611 170.191903 
L 144.146087 171.711331 
L 145.826562 172.300025 
L 148.734415 171.999726 
L 151.642268 171.198117 
L 157.457973 168.896175 
L 163.273679 166.551321 
L 169.089385 164.529749 
L 171.997238 166.401984 
L 174.905091 168.832267 
L 177.812944 169.803838 
L 180.720797 167.210732 
L 183.62865 164.392442 
L 186.536503 161.35094 
L 189.444356 159.985438 
L 195.260061 159.344423 
L 201.075767 159.017001 
L 207.013722 159.017001 
L 213.073924 159.344423 
L 219.134127 159.985438 
L 222.164228 161.35094 
L 225.19433 164.392442 
L 228.224431 167.210732 
L 231.254532 169.803838 
L 234.284634 168.832267 
L 237.314735 166.401984 
L 240.344836 164.529749 
L 246.405039 166.551321 
L 252.465242 168.896175 
L 258.525444 171.198117 
L 261.555546 171.999726 
L 264.585647 172.300025 
L 267.4935 171.999726 
L 270.401353 171.198117 
L 276.217059 168.896175 
L 282.032765 166.551321 
L 287.848471 164.529749 
L 290.756323 166.401984 
L 293.664176 168.832267 
L 296.572029 169.803838 
L 299.479882 167.210732 
L 302.387735 164.392442 
L 305.295588 161.35094 
L 308.203441 159.985438 
L 314.019147 159.344423 
L 319.834853 159.017001 
L 322.742706 158.975704 
L 326.101218 159.113884 
L 336.176755 160.112426 
L 339.535268 159.979832 
L 342.89378 162.782982 
L 346.252292 166.194113 
L 349.610805 169.387213 
L 352.969317 172.351075 
L 356.327829 168.810663 
L 359.686342 164.787781 
L 366.403367 156.124298 
L 373.120391 147.403297 
L 376.478904 143.286379 
L 379.837416 139.54254 
L 383.195928 136.44362 
L 386.554441 134.815058 
L 389.912953 134.58988 
L 392.820806 134.578865 
L 395.728659 135.961907 
L 398.636512 138.675634 
L 401.544365 141.948261 
L 407.360071 149.292537 
L 416.08363 160.555399 
L 421.899335 167.531149 
L 424.807188 170.746093 
L 427.715041 169.681645 
L 430.622894 166.743128 
L 433.530747 167.70858 
L 439.346453 174.583951 
L 445.162159 181.02638 
L 448.070012 183.359588 
L 448.070012 183.359588 
" style="fill:none;stroke:#000000;"/>
    <path clip-path="url(#p5a073a3f88)" d="M 54.06 148.993381 
L 56.967853 150.442176 
L 59.875706 153.480148 
L 68.599265 163.613005 
L 71.507118 164.169789 
L 83.138529 149.988245 
L 86.046382 146.659008 
L 88.954235 143.555453 
L 91.862088 140.779904 
L 94.769941 138.447123 
L 97.677794 136.660955 
L 100.585647 135.472382 
L 103.4935 134.836442 
L 106.401353 134.605246 
L 109.309206 134.119585 
L 112.217058 133.459753 
L 113.897534 133.553083 
L 115.578009 133.831307 
L 117.258484 134.283944 
L 118.938959 134.889702 
L 120.619434 135.665644 
L 127.341335 142.948044 
L 130.702285 146.249468 
L 134.063236 149.119245 
L 135.743711 150.353769 
L 137.424186 151.434363 
L 139.104661 152.345812 
L 140.785136 153.073478 
L 142.465611 153.60417 
L 144.146087 153.927248 
L 145.826562 154.03575 
L 148.734415 153.931791 
L 151.642268 153.620137 
L 154.550121 153.101468 
L 157.457973 152.376973 
L 160.365826 154.3756 
L 169.089385 163.59406 
L 171.997238 163.652022 
L 177.812944 162.139412 
L 183.62865 160.920792 
L 186.536503 160.417381 
L 189.444356 158.089761 
L 192.352209 154.615516 
L 198.167914 147.10741 
L 201.075767 143.267479 
L 203.98362 140.794403 
L 207.013722 143.267479 
L 216.104026 154.615516 
L 219.134127 158.089761 
L 222.164228 160.417381 
L 228.224431 161.494663 
L 234.284634 162.857204 
L 237.314735 163.652022 
L 240.344836 163.59406 
L 249.43514 154.3756 
L 252.465242 152.376973 
L 255.495343 153.101468 
L 258.525444 153.620137 
L 261.555546 153.931791 
L 264.585647 154.03575 
L 267.4935 153.931791 
L 270.401353 153.620137 
L 273.309206 153.101468 
L 276.217059 152.376973 
L 279.124912 154.3756 
L 287.848471 163.59406 
L 290.756323 163.652022 
L 296.572029 162.139412 
L 302.387735 160.920792 
L 305.295588 160.417381 
L 308.203441 158.089761 
L 311.111294 154.615516 
L 316.927 147.10741 
L 319.834853 143.267479 
L 322.742706 140.794403 
L 326.101218 143.339272 
L 336.176755 155.36755 
L 339.535268 159.167964 
L 342.89378 159.370887 
L 346.252292 158.277623 
L 349.610805 156.748139 
L 352.969317 154.84761 
L 356.327829 152.643175 
L 359.686342 150.204678 
L 369.761879 142.372581 
L 373.120391 139.987827 
L 376.478904 137.951765 
L 379.837416 136.377047 
L 386.554441 134.193146 
L 389.912953 133.459753 
L 392.820806 134.119585 
L 395.728659 134.605246 
L 398.636512 134.836442 
L 401.544365 135.472382 
L 404.452218 136.660955 
L 407.360071 138.447123 
L 410.267924 140.779904 
L 413.175777 143.555453 
L 416.08363 146.659008 
L 421.899335 153.460587 
L 430.622894 164.169789 
L 433.530747 163.613005 
L 439.346453 156.896303 
L 442.254306 153.480148 
L 445.162159 150.442176 
L 448.070012 148.993381 
L 448.070012 148.993381 
" style="fill:none;stroke:#000000;"/>
    <path clip-path="url(#p5a073a3f88)" d="M 54.06 138.038056 
L 56.967853 136.398925 
L 59.875706 132.794628 
L 62.783559 128.451628 
L 68.599265 118.955817 
L 71.507118 114.160519 
L 74.41497 111.128949 
L 77.322823 113.843501 
L 80.230676 116.350179 
L 83.138529 118.646233 
L 86.046382 120.729365 
L 88.954235 122.597619 
L 91.862088 124.249349 
L 94.769941 125.683195 
L 97.677794 126.898059 
L 100.585647 127.893079 
L 103.4935 128.667597 
L 106.401353 129.221141 
L 109.309206 129.553389 
L 112.217058 129.664158 
L 113.897534 129.99563 
L 115.578009 130.918251 
L 117.258484 132.271382 
L 120.619434 135.62096 
L 123.980385 137.340785 
L 132.38276 141.905942 
L 135.743711 143.408669 
L 139.104661 144.555178 
L 142.465611 145.272684 
L 144.146087 145.455569 
L 145.826562 145.516844 
L 148.734415 145.939374 
L 151.642268 147.165244 
L 154.550121 149.082696 
L 157.457973 151.540319 
L 160.365826 151.448433 
L 163.273679 150.318361 
L 166.181532 148.9902 
L 169.089385 147.46861 
L 171.997238 145.759889 
L 174.905091 143.872591 
L 177.812944 141.818461 
L 183.62865 137.282197 
L 195.260061 127.689945 
L 198.167914 128.376408 
L 201.075767 132.84806 
L 203.98362 135.531918 
L 207.013722 132.84806 
L 210.043823 128.376408 
L 213.073924 127.689945 
L 216.104026 129.961008 
L 228.224431 139.613883 
L 231.254532 141.818461 
L 234.284634 143.872591 
L 237.314735 145.759889 
L 240.344836 147.46861 
L 243.374938 148.9902 
L 246.405039 150.318361 
L 249.43514 151.448433 
L 252.465242 151.540319 
L 255.495343 149.082696 
L 258.525444 147.165244 
L 261.555546 145.939374 
L 264.585647 145.516844 
L 267.4935 145.939374 
L 270.401353 147.165244 
L 273.309206 149.082696 
L 276.217059 151.540319 
L 279.124912 151.448433 
L 282.032765 150.318361 
L 284.940618 148.9902 
L 287.848471 147.46861 
L 290.756323 145.759889 
L 293.664176 143.872591 
L 296.572029 141.818461 
L 302.387735 137.282197 
L 314.019147 127.689945 
L 316.927 128.376408 
L 319.834853 132.84806 
L 322.742706 135.531918 
L 326.101218 132.899012 
L 329.45973 128.809264 
L 332.818243 127.260745 
L 336.176755 128.440447 
L 342.89378 131.154146 
L 346.252292 132.302061 
L 349.610805 133.234558 
L 352.969317 133.927761 
L 356.327829 134.370536 
L 359.686342 134.560434 
L 363.044854 134.502069 
L 366.403367 134.20715 
L 369.761879 133.696098 
L 373.120391 133.001607 
L 383.195928 130.480144 
L 386.554441 129.885217 
L 395.728659 129.221141 
L 398.636512 128.667597 
L 401.544365 127.893079 
L 404.452218 126.898059 
L 407.360071 125.683195 
L 410.267924 124.249349 
L 413.175777 122.597619 
L 416.08363 120.729365 
L 418.991482 118.646233 
L 421.899335 116.350179 
L 424.807188 113.843501 
L 427.715041 111.128949 
L 430.622894 114.160519 
L 439.346453 128.451628 
L 442.254306 132.794628 
L 445.162159 136.398925 
L 448.070012 138.038056 
L 448.070012 138.038056 
" style="fill:none;stroke:#000000;"/>
    <path clip-path="url(#p5a073a3f88)" d="M 54.06 88.318529 
L 56.967853 90.899666 
L 62.783559 98.275047 
L 65.691412 101.774626 
L 68.599265 105.089503 
L 71.507118 108.209497 
L 74.41497 109.690503 
L 77.322823 106.127866 
L 80.230676 104.167548 
L 83.138529 103.744306 
L 86.046382 104.167461 
L 91.862088 105.804267 
L 97.677794 107.438254 
L 100.585647 108.106927 
L 103.4935 108.643683 
L 106.401353 109.035106 
L 109.309206 109.272948 
L 112.217058 109.352706 
L 113.897534 108.947056 
L 115.578009 107.801723 
L 117.258484 106.076819 
L 118.938959 103.932246 
L 120.619434 101.487904 
L 123.980385 95.994075 
L 127.341335 89.96462 
L 129.02181 86.80885 
L 130.702285 85.692115 
L 134.063236 84.274184 
L 137.424186 83.250809 
L 140.785136 82.598581 
L 144.146087 82.283421 
L 145.826562 82.244581 
L 148.734415 81.780581 
L 151.642268 80.403416 
L 154.550121 78.157068 
L 157.457973 75.114591 
L 160.365826 71.387106 
L 163.273679 67.207231 
L 166.181532 64.594309 
L 177.812944 89.738947 
L 183.62865 101.710042 
L 189.444356 112.994773 
L 195.260061 123.490465 
L 198.167914 125.762354 
L 201.075767 124.42942 
L 203.98362 123.946549 
L 207.013722 124.42942 
L 210.043823 125.762354 
L 213.073924 123.490465 
L 219.134127 112.994773 
L 225.19433 101.710042 
L 231.254532 89.738947 
L 240.344836 70.890723 
L 243.374938 64.594309 
L 246.405039 67.207231 
L 249.43514 71.387106 
L 252.465242 75.114591 
L 255.495343 78.157068 
L 258.525444 80.403416 
L 261.555546 81.780581 
L 264.585647 82.244581 
L 267.4935 81.780581 
L 270.401353 80.403416 
L 273.309206 78.157068 
L 276.217059 75.114591 
L 279.124912 71.387106 
L 282.032765 67.207231 
L 284.940618 64.594309 
L 296.572029 89.738947 
L 302.387735 101.710042 
L 308.203441 112.994773 
L 314.019147 123.490465 
L 316.927 125.762354 
L 319.834853 124.42942 
L 322.742706 123.946549 
L 326.101218 124.252411 
L 329.45973 124.889073 
L 332.818243 123.020634 
L 336.176755 118.39545 
L 342.89378 108.238257 
L 352.969317 92.367019 
L 356.327829 87.847132 
L 359.686342 86.588667 
L 363.044854 89.062065 
L 373.120391 99.539658 
L 376.478904 102.660377 
L 379.837416 105.355099 
L 383.195928 107.480664 
L 386.554441 108.867029 
L 389.912953 109.352706 
L 392.820806 109.272948 
L 395.728659 109.035106 
L 398.636512 108.643683 
L 401.544365 108.106927 
L 407.360071 106.659034 
L 416.08363 104.167461 
L 418.991482 103.744306 
L 421.899335 104.167548 
L 424.807188 106.127866 
L 427.715041 109.690503 
L 430.622894 108.209497 
L 433.530747 105.089503 
L 436.4386 101.774626 
L 442.254306 94.615618 
L 445.162159 90.899666 
L 448.070012 88.318529 
L 448.070012 88.318529 
" style="fill:none;stroke:#000000;"/>
    <path clip-path="url(#p5a073a3f88)" d="M 54.06 86.817142 
L 56.967853 86.981159 
L 59.875706 87.456103 
L 62.783559 88.191814 
L 71.507118 90.932046 
L 74.41497 91.332381 
L 77.322823 90.669704 
L 80.230676 88.22503 
L 83.138529 84.051864 
L 86.046382 78.846401 
L 88.954235 78.448422 
L 91.862088 81.423599 
L 94.769941 83.862448 
L 97.677794 85.582533 
L 100.585647 86.463104 
L 103.4935 88.869911 
L 106.401353 91.859256 
L 109.309206 93.870519 
L 112.217058 94.587574 
L 113.897534 94.446484 
L 115.578009 94.036997 
L 117.258484 93.395533 
L 118.938959 92.571471 
L 122.299909 90.589847 
L 127.341335 87.481288 
L 129.02181 86.544704 
L 130.702285 83.580842 
L 137.424186 70.262109 
L 139.104661 67.574811 
L 142.465611 67.214258 
L 145.826562 67.088216 
L 148.734415 66.518199 
L 151.642268 64.854859 
L 154.550121 62.226112 
L 157.457973 58.816717 
L 160.365826 58.101256 
L 163.273679 59.837222 
L 166.181532 64.108046 
L 169.089385 65.131991 
L 180.720797 73.026298 
L 183.62865 74.770501 
L 186.536503 78.315167 
L 189.444356 82.262402 
L 192.352209 85.960951 
L 195.260061 89.25184 
L 198.167914 91.9243 
L 201.075767 93.71056 
L 203.98362 94.345541 
L 207.013722 93.71056 
L 210.043823 91.9243 
L 213.073924 89.25184 
L 216.104026 85.960951 
L 219.134127 82.262402 
L 222.164228 78.315167 
L 225.19433 74.770501 
L 228.224431 73.026298 
L 234.284634 69.143141 
L 240.344836 65.131991 
L 243.374938 64.108046 
L 246.405039 59.837222 
L 249.43514 58.101256 
L 252.465242 58.816717 
L 255.495343 62.226112 
L 258.525444 64.854859 
L 261.555546 66.518199 
L 264.585647 67.088216 
L 267.4935 66.518199 
L 270.401353 64.854859 
L 273.309206 62.226112 
L 276.217059 58.816717 
L 279.124912 58.101256 
L 282.032765 59.837222 
L 284.940618 64.108046 
L 287.848471 65.131991 
L 299.479882 73.026298 
L 302.387735 74.770501 
L 305.295588 78.315167 
L 308.203441 82.262402 
L 311.111294 85.960951 
L 314.019147 89.25184 
L 316.927 91.9243 
L 319.834853 93.71056 
L 322.742706 94.345541 
L 326.101218 93.655386 
L 329.45973 91.699881 
L 332.818243 88.751274 
L 336.176755 85.130026 
L 339.535268 81.191186 
L 342.89378 77.432316 
L 346.252292 75.506851 
L 349.610805 75.327683 
L 352.969317 75.51295 
L 356.327829 77.3353 
L 359.686342 77.035202 
L 363.044854 78.357207 
L 366.403367 79.969105 
L 373.120391 83.358152 
L 376.478904 84.651509 
L 379.837416 87.818862 
L 383.195928 91.347702 
L 386.554441 93.732465 
L 389.912953 94.587574 
L 392.820806 93.870519 
L 395.728659 91.859256 
L 398.636512 88.869911 
L 401.544365 86.463104 
L 404.452218 85.582533 
L 407.360071 83.862448 
L 410.267924 81.423599 
L 413.175777 78.448422 
L 416.08363 78.846401 
L 418.991482 84.051864 
L 421.899335 88.22503 
L 424.807188 90.669704 
L 427.715041 91.332381 
L 430.622894 90.932046 
L 433.530747 90.08088 
L 439.346453 88.191814 
L 442.254306 87.456103 
L 445.162159 86.981159 
L 448.070012 86.817142 
L 448.070012 86.817142 
" style="fill:none;stroke:#000000;"/>
    <path clip-path="url(#p5a073a3f88)" d="M 54.06 84.363838 
L 56.967853 81.599434 
L 59.875706 77.335986 
L 65.691412 68.022364 
L 71.507118 58.377723 
L 74.41497 61.405196 
L 77.322823 64.673364 
L 86.046382 75.128334 
L 88.954235 73.139573 
L 91.862088 72.519604 
L 97.677794 81.171927 
L 100.585647 85.221647 
L 103.4935 86.505279 
L 106.401353 85.908427 
L 109.309206 85.101985 
L 113.897534 84.540834 
L 115.578009 84.025504 
L 117.258484 83.184493 
L 118.938959 82.042066 
L 120.619434 80.628056 
L 122.299909 78.975461 
L 123.980385 77.119094 
L 127.341335 72.954213 
L 129.02181 70.806385 
L 130.702285 69.339953 
L 132.38276 68.815631 
L 135.743711 68.121764 
L 137.424186 67.828749 
L 139.104661 66.946546 
L 142.465611 60.755941 
L 144.146087 58.357116 
L 145.826562 57.33326 
L 148.734415 57.260039 
L 151.642268 57.042603 
L 157.457973 56.348481 
L 160.365826 55.852208 
L 163.273679 58.615762 
L 166.181532 60.08496 
L 169.089385 55.952796 
L 171.997238 58.995691 
L 174.905091 62.442226 
L 177.812944 66.202261 
L 183.62865 74.247385 
L 186.536503 76.340718 
L 189.444356 77.712116 
L 192.352209 78.863737 
L 195.260061 79.778159 
L 198.167914 80.441513 
L 201.075767 80.843658 
L 203.98362 80.978402 
L 207.013722 80.843658 
L 210.043823 80.441513 
L 213.073924 79.778159 
L 216.104026 78.863737 
L 219.134127 77.712116 
L 222.164228 76.340718 
L 225.19433 74.247385 
L 231.254532 66.202261 
L 234.284634 62.442226 
L 237.314735 58.995691 
L 240.344836 55.952796 
L 243.374938 60.08496 
L 246.405039 58.615762 
L 249.43514 55.852208 
L 252.465242 56.348481 
L 261.555546 57.260039 
L 264.585647 57.33326 
L 267.4935 57.260039 
L 270.401353 57.042603 
L 276.217059 56.348481 
L 279.124912 55.852208 
L 282.032765 58.615762 
L 284.940618 60.08496 
L 287.848471 55.952796 
L 290.756323 58.995691 
L 293.664176 62.442226 
L 296.572029 66.202261 
L 302.387735 74.247385 
L 305.295588 76.340718 
L 308.203441 77.712116 
L 311.111294 78.863737 
L 314.019147 79.778159 
L 316.927 80.441513 
L 319.834853 80.843658 
L 322.742706 80.978402 
L 326.101218 80.724091 
L 329.45973 80.016419 
L 336.176755 77.884828 
L 339.535268 76.846238 
L 342.89378 76.026735 
L 346.252292 74.698934 
L 349.610805 74.031065 
L 352.969317 75.4241 
L 356.327829 76.079899 
L 359.686342 76.475676 
L 363.044854 72.002267 
L 366.403367 67.338431 
L 369.761879 73.116924 
L 373.120391 78.503354 
L 376.478904 83.401602 
L 379.837416 85.245765 
L 383.195928 85.284355 
L 386.554441 84.933564 
L 389.912953 84.714479 
L 392.820806 85.101985 
L 395.728659 85.908427 
L 398.636512 86.505279 
L 401.544365 85.221647 
L 404.452218 81.171927 
L 410.267924 72.519604 
L 413.175777 73.139573 
L 416.08363 75.128334 
L 424.807188 64.673364 
L 427.715041 61.405196 
L 430.622894 58.377723 
L 442.254306 77.335986 
L 445.162159 81.599434 
L 448.070012 84.363838 
L 448.070012 84.363838 
" style="fill:none;stroke:#000000;"/>
    <path clip-path="url(#p5a073a3f88)" d="M 54.06 48.651987 
L 56.967853 48.961255 
L 59.875706 49.870868 
L 62.783559 51.332377 
L 65.691412 53.281228 
L 71.507118 58.127682 
L 74.41497 53.051257 
L 77.322823 51.747606 
L 80.230676 55.588046 
L 86.046382 63.821357 
L 88.954235 68.138128 
L 91.862088 67.233581 
L 94.769941 61.344784 
L 97.677794 57.072943 
L 100.585647 60.928712 
L 103.4935 64.484821 
L 106.401353 67.514118 
L 109.309206 69.648596 
L 112.217058 70.432714 
L 118.938959 70.39245 
L 122.299909 70.174306 
L 125.66086 69.759661 
L 127.341335 69.467119 
L 129.02181 69.040662 
L 130.702285 67.835942 
L 134.063236 63.291572 
L 137.424186 58.756993 
L 139.104661 56.734224 
L 140.785136 54.995297 
L 142.465611 53.64372 
L 144.146087 52.780757 
L 145.826562 52.483388 
L 148.734415 52.770575 
L 151.642268 53.581368 
L 154.550121 54.810231 
L 157.457973 56.22928 
L 160.365826 54.82931 
L 166.181532 53.60143 
L 169.089385 55.878986 
L 171.997238 51.491176 
L 177.812944 49.11211 
L 183.62865 46.647558 
L 186.536503 47.886535 
L 189.444356 49.442188 
L 192.352209 50.766047 
L 195.260061 51.824405 
L 198.167914 52.594775 
L 201.075767 53.06253 
L 203.98362 53.21935 
L 207.013722 53.06253 
L 210.043823 52.594775 
L 213.073924 51.824405 
L 216.104026 50.766047 
L 219.134127 49.442188 
L 222.164228 47.886535 
L 225.19433 46.647558 
L 237.314735 51.491176 
L 240.344836 55.878986 
L 243.374938 53.60143 
L 249.43514 54.82931 
L 252.465242 56.22928 
L 255.495343 54.810231 
L 258.525444 53.581368 
L 261.555546 52.770575 
L 264.585647 52.483388 
L 267.4935 52.770575 
L 270.401353 53.581368 
L 273.309206 54.810231 
L 276.217059 56.22928 
L 279.124912 54.82931 
L 284.940618 53.60143 
L 287.848471 55.878986 
L 290.756323 51.491176 
L 296.572029 49.11211 
L 302.387735 46.647558 
L 305.295588 47.886535 
L 308.203441 49.442188 
L 311.111294 50.766047 
L 314.019147 51.824405 
L 316.927 52.594775 
L 319.834853 53.06253 
L 322.742706 53.21935 
L 326.101218 52.89363 
L 329.45973 51.897942 
L 332.818243 50.188023 
L 336.176755 47.728709 
L 339.535268 49.213366 
L 342.89378 51.52776 
L 346.252292 52.810971 
L 349.610805 51.952891 
L 352.969317 48.794422 
L 356.327829 48.771081 
L 363.044854 61.23858 
L 366.403367 66.497482 
L 369.761879 60.832428 
L 373.120391 56.329452 
L 376.478904 60.494602 
L 379.837416 64.271655 
L 383.195928 67.447361 
L 386.554441 69.64482 
L 389.912953 70.432714 
L 392.820806 69.648596 
L 395.728659 67.514118 
L 398.636512 64.484821 
L 401.544365 60.928712 
L 404.452218 57.072943 
L 407.360071 61.344784 
L 410.267924 67.233581 
L 413.175777 68.138128 
L 418.991482 59.623816 
L 421.899335 55.588046 
L 424.807188 51.747606 
L 427.715041 53.051257 
L 430.622894 58.127682 
L 436.4386 53.281228 
L 439.346453 51.332377 
L 442.254306 49.870868 
L 445.162159 48.961255 
L 448.070012 48.651987 
L 448.070012 48.651987 
" style="fill:none;stroke:#000000;"/>
    <path clip-path="url(#p5a073a3f88)" d="M 54.06 33.053179 
L 56.967853 33.477068 
L 59.875706 34.688208 
L 62.783559 36.547777 
L 65.691412 38.912746 
L 68.599265 41.674658 
L 71.507118 44.762229 
L 74.41497 48.13025 
L 77.322823 47.940815 
L 80.230676 42.842851 
L 83.138529 43.330643 
L 88.954235 46.899006 
L 91.862088 49.432476 
L 94.769941 53.105951 
L 97.677794 55.689902 
L 100.585647 50.540891 
L 103.4935 46.273205 
L 106.401353 43.337591 
L 109.309206 41.882717 
L 112.217058 41.492142 
L 115.578009 41.371595 
L 118.938959 41.01756 
L 120.619434 40.760226 
L 122.299909 43.264635 
L 123.980385 45.226997 
L 125.66086 46.458826 
L 127.341335 47.213915 
L 129.02181 47.64657 
L 130.702285 47.855072 
L 134.063236 47.846327 
L 139.104661 47.351826 
L 142.465611 47.028564 
L 145.826562 46.900126 
L 148.734415 46.918533 
L 151.642268 47.197432 
L 154.550121 47.707206 
L 157.457973 48.509809 
L 160.365826 51.757506 
L 163.273679 51.277435 
L 166.181532 53.299546 
L 169.089385 52.570662 
L 171.997238 50.540128 
L 174.905091 45.203772 
L 177.812944 42.57584 
L 183.62865 46.15142 
L 186.536503 45.467628 
L 189.444356 44.373249 
L 192.352209 43.404408 
L 195.260061 42.600301 
L 198.167914 41.996491 
L 201.075767 41.621665 
L 203.98362 41.494551 
L 207.013722 41.621665 
L 210.043823 41.996491 
L 213.073924 42.600301 
L 216.104026 43.404408 
L 219.134127 44.373249 
L 222.164228 45.467628 
L 225.19433 46.15142 
L 231.254532 42.57584 
L 234.284634 45.203772 
L 237.314735 50.540128 
L 240.344836 52.570662 
L 243.374938 53.299546 
L 246.405039 51.277435 
L 249.43514 51.757506 
L 252.465242 48.509809 
L 255.495343 47.707206 
L 258.525444 47.197432 
L 261.555546 46.918533 
L 267.4935 46.918533 
L 270.401353 47.197432 
L 273.309206 47.707206 
L 276.217059 48.509809 
L 279.124912 51.757506 
L 282.032765 51.277435 
L 284.940618 53.299546 
L 287.848471 52.570662 
L 290.756323 50.540128 
L 293.664176 45.203772 
L 296.572029 42.57584 
L 302.387735 46.15142 
L 305.295588 45.467628 
L 308.203441 44.373249 
L 311.111294 43.404408 
L 314.019147 42.600301 
L 316.927 41.996491 
L 319.834853 41.621665 
L 322.742706 41.494551 
L 326.101218 41.843959 
L 329.45973 42.878015 
L 332.818243 44.545958 
L 336.176755 46.734217 
L 339.535268 44.554541 
L 342.89378 40.904933 
L 346.252292 38.100043 
L 349.610805 39.539381 
L 352.969317 43.405464 
L 356.327829 44.249054 
L 359.686342 42.620743 
L 363.044854 44.922557 
L 366.403367 47.691117 
L 369.761879 51.920831 
L 373.120391 55.336159 
L 376.478904 50.302811 
L 379.837416 46.116571 
L 383.195928 43.246603 
L 386.554441 41.854438 
L 389.912953 41.492142 
L 392.820806 41.882717 
L 395.728659 43.337591 
L 398.636512 46.273205 
L 401.544365 50.540891 
L 404.452218 55.689902 
L 407.360071 53.105951 
L 410.267924 49.432476 
L 413.175777 46.899006 
L 418.991482 43.330643 
L 421.899335 42.842851 
L 424.807188 47.940815 
L 427.715041 48.13025 
L 430.622894 44.762229 
L 433.530747 41.674658 
L 436.4386 38.912746 
L 439.346453 36.547777 
L 442.254306 34.688208 
L 445.162159 33.477068 
L 448.070012 33.053179 
L 448.070012 33.053179 
" style="fill:none;stroke:#000000;"/>
    <path clip-path="url(#p5a073a3f88)" d="M 54.06 16.495871 
L 56.967853 18.68883 
L 65.691412 28.356677 
L 68.599265 31.368417 
L 71.507118 34.190571 
L 74.41497 36.804649 
L 77.322823 39.200041 
L 80.230676 41.373026 
L 83.138529 37.81086 
L 86.046382 38.235512 
L 88.954235 42.478385 
L 91.862088 45.498054 
L 94.769941 46.799454 
L 97.677794 47.033337 
L 100.585647 46.170548 
L 103.4935 43.321588 
L 106.401353 35.696039 
L 109.309206 34.588392 
L 112.217058 34.235439 
L 117.258484 34.136471 
L 118.938959 35.138559 
L 120.619434 40.141659 
L 122.299909 40.456356 
L 132.38276 38.393497 
L 134.063236 38.255316 
L 135.743711 38.331105 
L 137.424186 38.79004 
L 139.104661 39.883978 
L 140.785136 41.694976 
L 142.465611 43.900942 
L 144.146087 45.920799 
L 145.826562 46.830201 
L 148.734415 46.78257 
L 151.642268 46.453494 
L 154.550121 45.944493 
L 157.457973 46.50497 
L 160.365826 49.676116 
L 163.273679 50.553121 
L 166.181532 46.353856 
L 169.089385 42.888572 
L 171.997238 41.098896 
L 174.905091 41.258352 
L 177.812944 40.437483 
L 180.720797 36.529101 
L 183.62865 33.183155 
L 192.352209 23.602456 
L 201.075767 13.686824 
L 203.98362 11.842438 
L 207.013722 13.686824 
L 210.043823 16.887673 
L 219.134127 26.852811 
L 225.19433 33.183155 
L 228.224431 36.529101 
L 231.254532 40.437483 
L 234.284634 41.258352 
L 237.314735 41.098896 
L 240.344836 42.888572 
L 243.374938 46.353856 
L 246.405039 50.553121 
L 249.43514 49.676116 
L 252.465242 46.50497 
L 255.495343 45.944493 
L 258.525444 46.453494 
L 261.555546 46.78257 
L 267.4935 46.78257 
L 270.401353 46.453494 
L 273.309206 45.944493 
L 276.217059 46.50497 
L 279.124912 49.676116 
L 282.032765 50.553121 
L 284.940618 46.353856 
L 287.848471 42.888572 
L 290.756323 41.098896 
L 293.664176 41.258352 
L 296.572029 40.437483 
L 299.479882 36.529101 
L 302.387735 33.183155 
L 311.111294 23.602456 
L 319.834853 13.686824 
L 322.742706 11.842438 
L 326.101218 13.737679 
L 329.45973 17.078966 
L 339.535268 27.652805 
L 342.89378 30.783 
L 346.252292 32.582466 
L 349.610805 30.973792 
L 352.969317 35.734841 
L 356.327829 39.77219 
L 359.686342 39.141369 
L 363.044854 41.203361 
L 366.403367 45.049143 
L 369.761879 46.719675 
L 373.120391 47.326269 
L 376.478904 46.938088 
L 379.837416 44.768662 
L 383.195928 38.199356 
L 386.554441 34.575141 
L 389.912953 34.235439 
L 392.820806 34.588392 
L 395.728659 35.696039 
L 398.636512 43.321588 
L 401.544365 46.170548 
L 404.452218 47.033337 
L 407.360071 46.799454 
L 410.267924 45.498054 
L 413.175777 42.478385 
L 416.08363 38.235512 
L 418.991482 37.81086 
L 421.899335 41.373026 
L 424.807188 39.200041 
L 427.715041 36.804649 
L 430.622894 34.190571 
L 433.530747 31.368417 
L 439.346453 25.18675 
L 445.162159 18.68883 
L 448.070012 16.495871 
L 448.070012 16.495871 
" style="fill:none;stroke:#000000;"/>
    <path clip-path="url(#p5a073a3f88)" d="M 54.06 13.785138 
L 56.967853 11.938942 
L 59.875706 9.914643 
L 62.783559 9.056382 
L 65.691412 9.71299 
L 68.599265 11.868638 
L 71.507118 15.190116 
L 74.41497 19.345717 
L 80.230676 28.76994 
L 83.138529 33.579078 
L 86.046382 32.905843 
L 88.954235 30.313798 
L 91.862088 31.976221 
L 94.769941 33.370134 
L 97.677794 34.470957 
L 100.585647 35.226424 
L 103.4935 35.529976 
L 106.401353 35.252539 
L 109.309206 16.939213 
L 112.217058 7.017791 
L 113.897534 7.142696 
L 115.578009 16.208775 
L 117.258484 27.240024 
L 118.938959 34.056769 
L 123.980385 33.642346 
L 127.341335 33.165717 
L 130.702285 32.455423 
L 134.063236 31.545035 
L 135.743711 31.299299 
L 137.424186 31.945771 
L 139.104661 33.154832 
L 140.785136 33.997755 
L 142.465611 34.42178 
L 144.146087 34.606306 
L 145.826562 34.657743 
L 148.734415 35.503241 
L 151.642268 37.949288 
L 154.550121 41.736108 
L 157.457973 45.257067 
L 160.365826 44.37003 
L 163.273679 43.253477 
L 166.181532 41.870404 
L 169.089385 40.164301 
L 171.997238 38.026063 
L 174.905091 35.223321 
L 177.812944 31.369634 
L 180.720797 26.314401 
L 186.536503 14.62144 
L 189.444356 9.254015 
L 192.352209 5.207781 
L 195.260061 3.314906 
L 198.167914 3.734472 
L 201.075767 5.625155 
L 203.98362 7.116144 
L 207.013722 5.625155 
L 210.043823 3.734472 
L 213.073924 3.314906 
L 216.104026 5.207781 
L 219.134127 9.254015 
L 222.164228 14.62144 
L 228.224431 26.314401 
L 231.254532 31.369634 
L 234.284634 35.223321 
L 237.314735 38.026063 
L 240.344836 40.164301 
L 243.374938 41.870404 
L 246.405039 43.253477 
L 249.43514 44.37003 
L 252.465242 45.257067 
L 255.495343 41.736108 
L 258.525444 37.949288 
L 261.555546 35.503241 
L 264.585647 34.657743 
L 267.4935 35.503241 
L 270.401353 37.949288 
L 273.309206 41.736108 
L 276.217059 45.257067 
L 279.124912 44.37003 
L 282.032765 43.253477 
L 284.940618 41.870404 
L 287.848471 40.164301 
L 290.756323 38.026063 
L 293.664176 35.223321 
L 296.572029 31.369634 
L 299.479882 26.314401 
L 305.295588 14.62144 
L 308.203441 9.254015 
L 311.111294 5.207781 
L 314.019147 3.314906 
L 316.927 3.734472 
L 319.834853 5.625155 
L 322.742706 7.116144 
L 326.101218 5.682531 
L 329.45973 3.946625 
L 332.818243 3.732639 
L 336.176755 5.991726 
L 339.535268 10.680571 
L 342.89378 16.761747 
L 346.252292 23.381558 
L 349.610805 29.410685 
L 352.969317 28.827956 
L 356.327829 31.638808 
L 359.686342 36.315454 
L 363.044854 34.067037 
L 366.403367 31.130588 
L 369.761879 32.276668 
L 373.120391 33.680329 
L 376.478904 34.740741 
L 379.837416 35.29009 
L 383.195928 35.172828 
L 386.554441 19.638611 
L 389.912953 7.017791 
L 392.820806 16.939213 
L 395.728659 35.252539 
L 398.636512 35.529976 
L 401.544365 35.226424 
L 404.452218 34.470957 
L 407.360071 33.370134 
L 410.267924 31.976221 
L 413.175777 30.313798 
L 416.08363 32.905843 
L 418.991482 33.579078 
L 427.715041 19.345717 
L 430.622894 15.190116 
L 433.530747 11.868638 
L 436.4386 9.71299 
L 439.346453 9.056382 
L 442.254306 9.914643 
L 445.162159 11.938942 
L 448.070012 13.785138 
L 448.070012 13.785138 
" style="fill:none;stroke:#000000;"/>
    <path clip-path="url(#p5a073a3f88)" d="M 54.06 9.025882 
L 56.967853 8.703975 
L 59.875706 7.802657 
L 62.783559 6.477367 
L 65.691412 8.370739 
L 71.507118 15.182499 
L 74.41497 18.286729 
L 77.322823 21.167705 
L 80.230676 23.816802 
L 83.138529 26.227722 
L 86.046382 28.395173 
L 88.954235 28.196426 
L 91.862088 23.758689 
L 94.769941 19.674421 
L 97.677794 16.028765 
L 100.585647 12.906056 
L 103.4935 10.384742 
L 106.401353 8.532003 
L 109.309206 7.399049 
L 112.217058 3.003587 
L 113.897534 6.331055 
L 115.578009 7.516591 
L 117.258484 8.137028 
L 118.938959 8.999975 
L 120.619434 10.099844 
L 122.299909 11.429453 
L 123.980385 12.979808 
L 125.66086 14.73955 
L 127.341335 16.693784 
L 130.702285 21.091993 
L 134.063236 25.782485 
L 135.743711 27.752361 
L 137.424186 28.495639 
L 139.104661 28.067822 
L 144.146087 25.796463 
L 145.826562 25.532245 
L 148.734415 25.429251 
L 151.642268 25.094527 
L 154.550121 24.493808 
L 157.457973 23.660611 
L 160.365826 23.826181 
L 163.273679 24.513772 
L 166.181532 25.549621 
L 169.089385 26.147461 
L 171.997238 25.237275 
L 174.905091 22.546864 
L 180.720797 15.149558 
L 186.536503 7.878399 
L 193.924173 -1 
M 214.465975 -1 
L 222.164228 7.878399 
L 228.224431 15.149558 
L 234.284634 22.546864 
L 237.314735 25.237275 
L 240.344836 26.147461 
L 243.374938 25.549621 
L 246.405039 24.513772 
L 249.43514 23.826181 
L 252.465242 23.660611 
L 255.495343 24.493808 
L 258.525444 25.094527 
L 261.555546 25.429251 
L 264.585647 25.532245 
L 267.4935 25.429251 
L 270.401353 25.094527 
L 273.309206 24.493808 
L 276.217059 23.660611 
L 279.124912 23.826181 
L 282.032765 24.513772 
L 284.940618 25.549621 
L 287.848471 26.147461 
L 290.756323 25.237275 
L 293.664176 22.546864 
L 299.479882 15.149558 
L 305.295588 7.878399 
L 312.683258 -1 
M 334.082185 -1 
L 342.89378 7.865337 
L 349.610805 15.514621 
L 352.969317 18.325796 
L 356.327829 21.767112 
L 359.686342 24.751583 
L 363.044854 27.154002 
L 366.403367 27.144611 
L 369.761879 22.963481 
L 373.120391 18.571723 
L 376.478904 14.662926 
L 379.837416 11.431824 
L 383.195928 9.016607 
L 386.554441 7.523077 
L 389.912953 3.003587 
L 392.820806 7.399049 
L 395.728659 8.532003 
L 398.636512 10.384742 
L 401.544365 12.906056 
L 404.452218 16.028765 
L 407.360071 19.674421 
L 410.267924 23.758689 
L 413.175777 28.196426 
L 416.08363 28.395173 
L 418.991482 26.227722 
L 421.899335 23.816802 
L 424.807188 21.167705 
L 427.715041 18.286729 
L 430.622894 15.182499 
L 436.4386 8.370739 
L 439.346453 6.477367 
L 442.254306 7.802657 
L 445.162159 8.703975 
L 448.070012 9.025882 
L 448.070012 9.025882 
" style="fill:none;stroke:#000000;"/>
    <path clip-path="url(#p5a073a3f88)" d="M 54.06 -0.233439 
L 56.967853 -0.524401 
L 59.875706 1.14661 
L 62.783559 4.746267 
L 65.691412 4.895159 
L 75.966373 -1 
M 116.924335 -1 
L 117.258484 -0.832921 
L 118.938959 1.138376 
L 123.980385 7.867806 
L 127.341335 11.949607 
L 130.702285 15.600989 
L 134.063236 18.749763 
L 135.743711 20.106224 
L 137.424186 21.297951 
L 139.104661 22.308229 
L 140.785136 23.119423 
L 142.465611 23.714326 
L 144.146087 24.07811 
L 145.826562 24.200588 
L 151.642268 23.990988 
L 157.457973 23.614981 
L 160.365826 22.455339 
L 163.273679 21.011726 
L 166.181532 19.278397 
L 169.089385 17.247067 
L 171.997238 14.907096 
L 174.905091 12.245449 
L 177.812944 9.246395 
L 180.720797 5.89095 
L 183.62865 2.156089 
L 185.84415 -1 
M 222.885688 -1 
L 225.19433 2.156089 
L 228.224431 5.89095 
L 231.254532 9.246395 
L 234.284634 12.245449 
L 237.314735 14.907096 
L 240.344836 17.247067 
L 243.374938 19.278397 
L 246.405039 21.011726 
L 249.43514 22.455339 
L 252.465242 23.614981 
L 261.555546 24.144723 
L 267.4935 24.144723 
L 276.217059 23.614981 
L 279.124912 22.455339 
L 282.032765 21.011726 
L 284.940618 19.278397 
L 287.848471 17.247067 
L 290.756323 14.907096 
L 293.664176 12.245449 
L 296.572029 9.246395 
L 299.479882 5.89095 
L 302.387735 2.156089 
L 304.603236 -1 
M 339.327867 -1 
L 339.535268 -0.609536 
L 342.89378 5.015133 
L 346.252292 10.001539 
L 349.610805 14.418189 
L 352.969317 16.964813 
L 356.327829 13.925927 
L 359.686342 9.209917 
L 363.044854 5.456492 
L 366.403367 3.666464 
L 373.120391 1.321583 
L 378.797115 -1 
M 426.163639 -1 
L 427.715041 -0.186799 
L 436.4386 4.895159 
L 439.346453 4.746267 
L 442.254306 1.14661 
L 445.162159 -0.524401 
L 448.070012 -0.233439 
L 448.070012 -0.233439 
" style="fill:none;stroke:#000000;"/>
    <path clip-path="url(#p5a073a3f88)" d="M 130.007074 -1 
L 132.38276 3.110697 
L 135.743711 8.243676 
L 137.424186 10.52451 
L 139.104661 12.60015 
L 140.785136 14.437048 
L 142.465611 15.962066 
L 144.146087 17.030677 
L 145.826562 17.428425 
L 151.642268 17.281775 
L 154.550121 17.061531 
L 157.457973 16.684846 
L 160.365826 16.087288 
L 163.273679 15.196023 
L 166.181532 13.940091 
L 169.089385 12.312428 
L 171.997238 10.147614 
L 174.905091 7.462416 
L 177.812944 4.295647 
L 180.720797 0.594771 
L 181.811939 -1 
M 227.087417 -1 
L 228.224431 0.594771 
L 231.254532 4.295647 
L 234.284634 7.462416 
L 237.314735 10.147614 
L 240.344836 12.312428 
L 243.374938 13.940091 
L 246.405039 15.196023 
L 249.43514 16.087288 
L 252.465242 16.684846 
L 255.495343 17.061531 
L 261.555546 17.39422 
L 267.4935 17.39422 
L 273.309206 17.061531 
L 276.217059 16.684846 
L 279.124912 16.087288 
L 282.032765 15.196023 
L 284.940618 13.940091 
L 287.848471 12.312428 
L 290.756323 10.147614 
L 293.664176 7.462416 
L 296.572029 4.295647 
L 299.479882 0.594771 
L 300.571024 -1 
M 351.990543 -1 
L 352.969317 -0.43903 
L 356.327829 0.591289 
L 359.686342 0.584302 
L 362.523317 -1 
L 362.523317 -1 
" style="fill:none;stroke:#000000;"/>
    <path clip-path="url(#p5a073a3f88)" d="M 138.379409 -1 
L 139.104661 0.160596 
L 140.785136 2.423955 
L 142.465611 4.151952 
L 144.146087 5.241309 
L 148.734415 6.155769 
L 151.642268 7.615008 
L 157.457973 11.685808 
L 160.365826 13.336787 
L 163.273679 14.060777 
L 166.181532 13.667762 
L 169.089385 12.259655 
L 171.997238 10.110407 
L 174.905091 7.195069 
L 177.812944 3.411891 
L 180.596459 -1 
M 228.353996 -1 
L 231.254532 3.411891 
L 234.284634 7.195069 
L 237.314735 10.110407 
L 240.344836 12.259655 
L 243.374938 13.667762 
L 246.405039 14.060777 
L 249.43514 13.336787 
L 252.465242 11.685808 
L 258.525444 7.615008 
L 261.555546 6.155769 
L 264.585647 5.614227 
L 267.4935 6.155769 
L 270.401353 7.615008 
L 276.217059 11.685808 
L 279.124912 13.336787 
L 282.032765 14.060777 
L 284.940618 13.667762 
L 287.848471 12.259655 
L 290.756323 10.110407 
L 293.664176 7.195069 
L 296.572029 3.411891 
L 299.355545 -1 
L 299.355545 -1 
" style="fill:none;stroke:#000000;"/>
    <path clip-path="url(#p5a073a3f88)" d="M 0 0 
" style="fill:none;stroke:#000000;"/>
    <path clip-path="url(#p5a073a3f88)" d="M 0 0 
" style="fill:none;stroke:#000000;"/>
    <path clip-path="url(#p5a073a3f88)" d="M 0 0 
" style="fill:none;stroke:#000000;"/>
    <path clip-path="url(#p5a073a3f88)" d="M 0 0 
" style="fill:none;stroke:#000000;"/>
    <path clip-path="url(#p5a073a3f88)" d="M 0 0 
" style="fill:none;stroke:#000000;"/>
    <path clip-path="url(#p5a073a3f88)" d="M 0 0 
" style="fill:none;stroke:#000000;"/>
    <path clip-path="url(#p5a073a3f88)" d="M 0 0 
" style="fill:none;stroke:#000000;"/>
    <path clip-path="url(#p5a073a3f88)" d="M 0 0 
" style="fill:none;stroke:#000000;"/>
    <path clip-path="url(#p5a073a3f88)" d="M 0 0 
" style="fill:none;stroke:#000000;"/>
    <path clip-path="url(#p5a073a3f88)" d="M 0 0 
" style="fill:none;stroke:#000000;"/>
    <path clip-path="url(#p5a073a3f88)" d="M 0 0 
" style="fill:none;stroke:#000000;"/>
    <path clip-path="url(#p5a073a3f88)" d="M 0 0 
" style="fill:none;stroke:#000000;"/>
    <path clip-path="url(#p5a073a3f88)" d="M 0 0 
" style="fill:none;stroke:#000000;"/>
    <path clip-path="url(#p5a073a3f88)" d="M 0 0 
" style="fill:none;stroke:#000000;"/>
    <path clip-path="url(#p5a073a3f88)" d="M 0 0 
" style="fill:none;stroke:#000000;"/>
    <path clip-path="url(#p5a073a3f88)" d="M 0 0 
" style="fill:none;stroke:#000000;"/>
    <path clip-path="url(#p5a073a3f88)" d="M 0 0 
" style="fill:none;stroke:#000000;"/>
    <path clip-path="url(#p5a073a3f88)" d="M 0 0 
" style="fill:none;stroke:#000000;"/>
    <path clip-path="url(#p5a073a3f88)" d="M 0 0 
" style="fill:none;stroke:#000000;"/>
    <path clip-path="url(#p5a073a3f88)" d="M 0 0 
" style="fill:none;stroke:#000000;"/>
    <path clip-path="url(#p5a073a3f88)" d="M 0 0 
" style="fill:none;stroke:#000000;"/>
    <path clip-path="url(#p5a073a3f88)" d="M 0 0 
" style="fill:none;stroke:#000000;"/>
    <path clip-path="url(#p5a073a3f88)" d="M 0 0 
" style="fill:none;stroke:#000000;"/>
    <path clip-path="url(#p5a073a3f88)" d="M 0 0 
" style="fill:none;stroke:#000000;"/>
    <path clip-path="url(#p5a073a3f88)" d="M 0 0 
" style="fill:none;stroke:#000000;"/>
    <path clip-path="url(#p5a073a3f88)" d="M 0 0 
" style="fill:none;stroke:#000000;"/>
    <path clip-path="url(#p5a073a3f88)" d="M 0 0 
" style="fill:none;stroke:#000000;"/>
    <path clip-path="url(#p5a073a3f88)" d="M 0 0 
" style="fill:none;stroke:#000000;"/>
    <path clip-path="url(#p5a073a3f88)" d="M 0 0 
" style="fill:none;stroke:#000000;"/>
    <path clip-path="url(#p5a073a3f88)" d="M 0 0 
" style="fill:none;stroke:#000000;"/>
    <path clip-path="url(#p5a073a3f88)" d="M 0 0 
" style="fill:none;stroke:#000000;"/>
    <path clip-path="url(#p5a073a3f88)" d="M 0 0 
" style="fill:none;stroke:#000000;"/>
    <path clip-path="url(#p5a073a3f88)" d="M 0 0 
" style="fill:none;stroke:#000000;"/>
    <path clip-path="url(#p5a073a3f88)" d="M 0 0 
" style="fill:none;stroke:#000000;"/>
    <path clip-path="url(#p5a073a3f88)" d="M 0 0 
" style="fill:none;stroke:#000000;"/>
    <path clip-path="url(#p5a073a3f88)" d="M 0 0 
" style="fill:none;stroke:#000000;"/>
    <path clip-path="url(#p5a073a3f88)" d="M 0 0 
" style="fill:none;stroke:#000000;"/>
    <path clip-path="url(#p5a073a3f88)" d="M 0 0 
" style="fill:none;stroke:#000000;"/>
    <path clip-path="url(#p5a073a3f88)" d="M 0 0 
" style="fill:none;stroke:#000000;"/>
    <path clip-path="url(#p5a073a3f88)" d="M 0 0 
" style="fill:none;stroke:#000000;"/>
    <path clip-path="url(#p5a073a3f88)" d="M 0 0 
" style="fill:none;stroke:#000000;"/>
    <path clip-path="url(#p5a073a3f88)" d="M 0 0 
" style="fill:none;stroke:#000000;"/>
    <path clip-path="url(#p5a073a3f88)" d="M 0 0 
" style="fill:none;stroke:#000000;"/>
    <path clip-path="url(#p5a073a3f88)" d="M 0 0 
" style="fill:none;stroke:#000000;"/>
    <path clip-path="url(#p5a073a3f88)" d="M 0 0 
" style="fill:none;stroke:#000000;"/>
    <path clip-path="url(#p5a073a3f88)" d="M 0 0 
" style="fill:none;stroke:#000000;"/>
   </g>
   <g id="patch_3">
    <path d="M 54.06 302.92 
L 54.06 22.96 
" style="fill:none;stroke:#000000;stroke-linecap:square;stroke-linejoin:miter;stroke-width:0.8;"/>
   </g>
   <g id="patch_4">
    <path d="M 448.070012 302.92 
L 448.070012 22.96 
" style="fill:none;stroke:#000000;stroke-linecap:square;stroke-linejoin:miter;stroke-width:0.8;"/>
   </g>
   <g id="patch_5">
    <path d="M 54.06 302.92 
L 448.070012 302.92 
" style="fill:none;stroke:#000000;stroke-linecap:square;stroke-linejoin:miter;stroke-width:0.8;"/>
   </g>
   <g id="patch_6">
    <path d="M 54.06 22.96 
L 448.070012 22.96 
" style="fill:none;stroke:#000000;stroke-linecap:square;stroke-linejoin:miter;stroke-width:0.8;"/>
   </g>
   <g id="text_16">
    <g id="patch_7">
     <path clip-path="url(#p5a073a3f88)" d="M 428.429812 141.283602 
L 440.189812 141.283602 
Q 442.589812 141.283602 442.589812 138.883602 
L 442.589812 127.269852 
Q 442.589812 124.869852 440.189812 124.869852 
L 428.429812 124.869852 
Q 426.029812 124.869852 426.029812 127.269852 
L 426.029812 138.883602 
Q 426.029812 141.283602 428.429812 141.283602 
z
" style="fill:#ffffff;stroke:#ffffff;stroke-linejoin:miter;"/>
    </g>
    <path clip-path="url(#p5a073a3f88)" d="M 430.797937 132.735477 
Q 430.164187 132.594852 429.888562 132.214227 
Q 429.684187 131.946102 429.684187 131.582352 
Q 429.684187 130.586727 430.632937 130.005477 
Q 431.382937 129.547977 432.532312 129.547977 
Q 432.976687 129.547977 433.462312 129.619227 
Q 433.949812 129.688602 434.493562 129.829227 
L 434.306062 130.807977 
Q 433.767937 130.639227 433.316062 130.562352 
Q 432.852937 130.485477 432.438562 130.485477 
Q 431.741062 130.485477 431.283562 130.755477 
Q 430.732312 131.077977 430.732312 131.546727 
Q 430.732312 131.857977 431.019187 132.073602 
Q 431.360437 132.332352 432.039187 132.332352 
L 432.946687 132.332352 
L 432.777937 133.222977 
L 431.909812 133.222977 
Q 431.101687 133.222977 430.627312 133.521102 
Q 429.982312 133.926102 429.982312 134.557977 
Q 429.982312 134.957352 430.329187 135.219852 
Q 430.762312 135.547977 431.647312 135.547977 
Q 432.191062 135.547977 432.712312 135.442977 
Q 433.235437 135.332352 433.691062 135.114852 
L 433.492312 136.117977 
Q 432.935437 136.281102 432.425437 136.363602 
Q 431.915437 136.446102 431.446687 136.446102 
Q 430.053562 136.446102 429.397312 135.911727 
Q 428.898562 135.501102 428.898562 134.811102 
Q 428.898562 133.879227 429.554812 133.305477 
Q 430.040437 132.876102 430.797937 132.735477 
z
M 435.74039 132.120102 
L 439.259202 132.120102 
L 439.259202 132.818352 
L 436.568577 132.818352 
L 436.568577 134.623039 
L 438.996702 134.623039 
L 438.996702 135.319977 
L 436.568577 135.319977 
L 436.568577 138.244227 
L 435.74039 138.244227 
z
"/>
   </g>
   <g id="text_17">
    <path d="M 197.196256 11.39 
L 197.196256 15.6625 
L 199.728756 15.6625 
Q 201.001256 15.6625 201.613756 15.135 
Q 202.228756 14.6075 202.228756 13.5225 
Q 202.228756 12.4275 201.613756 11.91 
Q 201.001256 11.39 199.728756 11.39 
z
M 197.196256 6.5925 
L 197.196256 10.1075 
L 199.533756 10.1075 
Q 200.688756 10.1075 201.253756 9.675 
Q 201.821256 9.24 201.821256 8.35 
Q 201.821256 7.4675 201.253756 7.03 
Q 200.688756 6.5925 199.533756 6.5925 
z
M 195.618756 5.295 
L 199.651256 5.295 
Q 201.456256 5.295 202.431256 6.045 
Q 203.408756 6.795 203.408756 8.1775 
Q 203.408756 9.25 202.908756 9.8825 
Q 202.408756 10.515 201.438756 10.67 
Q 202.603756 10.92 203.248756 11.715 
Q 203.893756 12.5075 203.893756 13.695 
Q 203.893756 15.2575 202.831256 16.11 
Q 201.768756 16.96 199.806256 16.96 
L 195.618756 16.96 
z
M 210.510318 12.5625 
Q 208.767818 12.5625 208.095318 12.96 
Q 207.422818 13.3575 207.422818 14.32 
Q 207.422818 15.085 207.927818 15.535 
Q 208.432818 15.9825 209.297818 15.9825 
Q 210.495318 15.9825 211.217818 15.135 
Q 211.940318 14.2875 211.940318 12.8825 
L 211.940318 12.5625 
z
M 213.377818 11.9675 
L 213.377818 16.96 
L 211.940318 16.96 
L 211.940318 15.6325 
Q 211.447818 16.4275 210.712818 16.8075 
Q 209.977818 17.1875 208.915318 17.1875 
Q 207.572818 17.1875 206.777818 16.4325 
Q 205.985318 15.6775 205.985318 14.4125 
Q 205.985318 12.9375 206.972818 12.1875 
Q 207.962818 11.4375 209.922818 11.4375 
L 211.940318 11.4375 
L 211.940318 11.295 
Q 211.940318 10.3025 211.287818 9.76 
Q 210.635318 9.2175 209.455318 9.2175 
Q 208.705318 9.2175 207.992818 9.3975 
Q 207.282818 9.5775 206.627818 9.9375 
L 206.627818 8.6075 
Q 207.415318 8.3025 208.157818 8.1525 
Q 208.900318 8 209.602818 8 
Q 211.502818 8 212.440318 8.985 
Q 213.377818 9.9675 213.377818 11.9675 
z
M 223.612506 11.6775 
L 223.612506 16.96 
L 222.175006 16.96 
L 222.175006 11.725 
Q 222.175006 10.4825 221.690006 9.8675 
Q 221.205006 9.25 220.237506 9.25 
Q 219.072506 9.25 218.400006 9.9925 
Q 217.727506 10.7325 217.727506 12.015 
L 217.727506 16.96 
L 216.282506 16.96 
L 216.282506 8.21 
L 217.727506 8.21 
L 217.727506 9.57 
Q 218.245006 8.78 218.942506 8.39 
Q 219.642506 8 220.557506 8 
Q 222.065006 8 222.837506 8.9325 
Q 223.612506 9.865 223.612506 11.6775 
z
M 232.235631 9.5375 
L 232.235631 4.8025 
L 233.673131 4.8025 
L 233.673131 16.96 
L 232.235631 16.96 
L 232.235631 15.6475 
Q 231.783131 16.4275 231.090631 16.8075 
Q 230.400631 17.1875 229.430631 17.1875 
Q 227.845631 17.1875 226.848131 15.9225 
Q 225.853131 14.655 225.853131 12.5925 
Q 225.853131 10.53 226.848131 9.265 
Q 227.845631 8 229.430631 8 
Q 230.400631 8 231.090631 8.38 
Q 231.783131 8.7575 232.235631 9.5375 
z
M 227.338131 12.5925 
Q 227.338131 14.1775 227.990631 15.08 
Q 228.643131 15.9825 229.783131 15.9825 
Q 230.923131 15.9825 231.578131 15.08 
Q 232.235631 14.1775 232.235631 12.5925 
Q 232.235631 11.0075 231.578131 10.105 
Q 230.923131 9.2025 229.783131 9.2025 
Q 228.643131 9.2025 227.990631 10.105 
Q 227.338131 11.0075 227.338131 12.5925 
z
M 242.211881 8.4675 
L 242.211881 9.8275 
Q 241.604381 9.515 240.946881 9.36 
Q 240.291881 9.2025 239.586881 9.2025 
Q 238.516881 9.2025 237.981881 9.53 
Q 237.446881 9.8575 237.446881 10.515 
Q 237.446881 11.015 237.829381 11.3 
Q 238.211881 11.585 239.369381 11.8425 
L 239.861881 11.9525 
Q 241.391881 12.28 242.036881 12.8775 
Q 242.681881 13.475 242.681881 14.545 
Q 242.681881 15.765 241.716881 16.4775 
Q 240.751881 17.1875 239.064381 17.1875 
Q 238.361881 17.1875 237.599381 17.05 
Q 236.836881 16.9125 235.994381 16.64 
L 235.994381 15.155 
Q 236.791881 15.57 237.564381 15.7775 
Q 238.336881 15.9825 239.096881 15.9825 
Q 240.111881 15.9825 240.656881 15.635 
Q 241.204381 15.2875 241.204381 14.655 
Q 241.204381 14.07 240.809381 13.7575 
Q 240.416881 13.445 239.079381 13.155 
L 238.579381 13.0375 
Q 237.244381 12.7575 236.649381 12.175 
Q 236.056881 11.5925 236.056881 10.5775 
Q 236.056881 9.3425 236.931881 8.6725 
Q 237.806881 8 239.416881 8 
Q 240.211881 8 240.914381 8.1175 
Q 241.619381 8.2325 242.211881 8.4675 
z
M 246.392818 5.725 
L 246.392818 8.21 
L 249.352818 8.21 
L 249.352818 9.3275 
L 246.392818 9.3275 
L 246.392818 14.0775 
Q 246.392818 15.1475 246.685318 15.4525 
Q 246.977818 15.7575 247.877818 15.7575 
L 249.352818 15.7575 
L 249.352818 16.96 
L 247.877818 16.96 
Q 246.212818 16.96 245.580318 16.34 
Q 244.947818 15.7175 244.947818 14.0775 
L 244.947818 9.3275 
L 243.892818 9.3275 
L 243.892818 8.21 
L 244.947818 8.21 
L 244.947818 5.725 
z
M 256.313756 9.5525 
Q 256.071256 9.4125 255.786256 9.3475 
Q 255.501256 9.28 255.158756 9.28 
Q 253.938756 9.28 253.286256 10.0725 
Q 252.633756 10.865 252.633756 12.35 
L 252.633756 16.96 
L 251.188756 16.96 
L 251.188756 8.21 
L 252.633756 8.21 
L 252.633756 9.57 
Q 253.088756 8.7725 253.813756 8.3875 
Q 254.541256 8 255.581256 8 
Q 255.728756 8 255.908756 8.02 
Q 256.088756 8.0375 256.306256 8.0775 
z
M 257.674381 13.5075 
L 257.674381 8.21 
L 259.111881 8.21 
L 259.111881 13.4525 
Q 259.111881 14.695 259.594381 15.3175 
Q 260.079381 15.9375 261.049381 15.9375 
Q 262.211881 15.9375 262.886881 15.195 
Q 263.564381 14.4525 263.564381 13.17 
L 263.564381 8.21 
L 265.001881 8.21 
L 265.001881 16.96 
L 263.564381 16.96 
L 263.564381 15.615 
Q 263.041881 16.4125 262.349381 16.8 
Q 261.659381 17.1875 260.744381 17.1875 
Q 259.236881 17.1875 258.454381 16.25 
Q 257.674381 15.3125 257.674381 13.5075 
z
M 261.291881 8 
z
M 274.260006 8.545 
L 274.260006 9.89 
Q 273.650006 9.5525 273.037506 9.385 
Q 272.425006 9.2175 271.800006 9.2175 
Q 270.400006 9.2175 269.625006 10.105 
Q 268.852506 10.99 268.852506 12.5925 
Q 268.852506 14.195 269.625006 15.0825 
Q 270.400006 15.9675 271.800006 15.9675 
Q 272.425006 15.9675 273.037506 15.8 
Q 273.650006 15.6325 274.260006 15.295 
L 274.260006 16.625 
Q 273.657506 16.905 273.012506 17.045 
Q 272.370006 17.1875 271.642506 17.1875 
Q 269.665006 17.1875 268.500006 15.945 
Q 267.337506 14.7025 267.337506 12.5925 
Q 267.337506 10.4525 268.512506 9.2275 
Q 269.690006 8 271.737506 8 
Q 272.400006 8 273.032506 8.1375 
Q 273.665006 8.2725 274.260006 8.545 
z
M 278.181881 5.725 
L 278.181881 8.21 
L 281.141881 8.21 
L 281.141881 9.3275 
L 278.181881 9.3275 
L 278.181881 14.0775 
Q 278.181881 15.1475 278.474381 15.4525 
Q 278.766881 15.7575 279.666881 15.7575 
L 281.141881 15.7575 
L 281.141881 16.96 
L 279.666881 16.96 
Q 278.001881 16.96 277.369381 16.34 
Q 276.736881 15.7175 276.736881 14.0775 
L 276.736881 9.3275 
L 275.681881 9.3275 
L 275.681881 8.21 
L 276.736881 8.21 
L 276.736881 5.725 
z
M 282.885318 13.5075 
L 282.885318 8.21 
L 284.322818 8.21 
L 284.322818 13.4525 
Q 284.322818 14.695 284.805318 15.3175 
Q 285.290318 15.9375 286.260318 15.9375 
Q 287.422818 15.9375 288.097818 15.195 
Q 288.775318 14.4525 288.775318 13.17 
L 288.775318 8.21 
L 290.212818 8.21 
L 290.212818 16.96 
L 288.775318 16.96 
L 288.775318 15.615 
Q 288.252818 16.4125 287.560318 16.8 
Q 286.870318 17.1875 285.955318 17.1875 
Q 284.447818 17.1875 283.665318 16.25 
Q 282.885318 15.3125 282.885318 13.5075 
z
M 286.502818 8 
z
M 298.243443 9.5525 
Q 298.000943 9.4125 297.715943 9.3475 
Q 297.430943 9.28 297.088443 9.28 
Q 295.868443 9.28 295.215943 10.0725 
Q 294.563443 10.865 294.563443 12.35 
L 294.563443 16.96 
L 293.118443 16.96 
L 293.118443 8.21 
L 294.563443 8.21 
L 294.563443 9.57 
Q 295.018443 8.7725 295.743443 8.3875 
Q 296.470943 8 297.510943 8 
Q 297.658443 8 297.838443 8.02 
Q 298.018443 8.0375 298.235943 8.0775 
z
M 307.231568 12.225 
L 307.231568 12.9275 
L 300.621568 12.9275 
Q 300.716568 14.4125 301.516568 15.19 
Q 302.316568 15.9675 303.746568 15.9675 
Q 304.574068 15.9675 305.351568 15.765 
Q 306.129068 15.5625 306.896568 15.155 
L 306.896568 16.515 
Q 306.121568 16.8425 305.309068 17.015 
Q 304.496568 17.1875 303.661568 17.1875 
Q 301.566568 17.1875 300.344068 15.97 
Q 299.121568 14.75 299.121568 12.67 
Q 299.121568 10.5225 300.281568 9.2625 
Q 301.441568 8 303.411568 8 
Q 305.176568 8 306.204068 9.1375 
Q 307.231568 10.2725 307.231568 12.225 
z
M 305.794068 11.8025 
Q 305.779068 10.625 305.134068 9.9225 
Q 304.489068 9.2175 303.426568 9.2175 
Q 302.224068 9.2175 301.501568 9.8975 
Q 300.779068 10.5775 300.669068 11.8125 
z
"/>
   </g>
  </g>
 </g>
 <defs>
  <clipPath id="p5a073a3f88">
   <rect height="279.96" width="394.010012" x="54.06" y="22.96"/>
  </clipPath>
 </defs>
</svg>
