<?xml version="1.0" encoding="utf-8" standalone="no"?>
<!DOCTYPE svg PUBLIC "-//W3C//DTD SVG 1.1//EN"
  "http://www.w3.org/Graphics/SVG/1.1/DTD/svg11.dtd">
<!-- Created with matplotlib (https://matplotlib.org/) -->
<svg height="325.44pt" version="1.1" viewBox="0 0 437.76 325.44" width="437.76pt" xmlns="http://www.w3.org/2000/svg" xmlns:xlink="http://www.w3.org/1999/xlink">
 <defs>
  <style type="text/css">
*{stroke-linecap:butt;stroke-linejoin:round;white-space:pre;}
  </style>
 </defs>
 <g id="figure_1">
  <g id="patch_1">
   <path d="M 0 325.44 
L 437.76 325.44 
L 437.76 0 
L 0 0 
z
" style="fill:#ffffff;"/>
  </g>
  <g id="axes_1">
   <g id="patch_2">
    <path d="M 49.848 285.96 
L 424.22 285.96 
L 424.22 22.96 
L 49.848 22.96 
z
" style="fill:#ffffff;"/>
   </g>
   <path clip-path="url(#p774e66444d)" d="M 49.848 285.96 
L 424.22 285.96 
" style="fill:none;stroke:#000000;stroke-dasharray:3.7,1.6;stroke-dashoffset:0;"/>
   <path clip-path="url(#p774e66444d)" d="M 237.034 285.96 
L 237.034 22.96 
" style="fill:none;stroke:#008000;stroke-dasharray:1,1.65;stroke-dashoffset:0;"/>
   <g id="matplotlib.axis_1">
    <g id="xtick_1">
     <g id="line2d_1">
      <defs>
       <path d="M 0 0 
L 0 3.5 
" id="me9a25b904e" style="stroke:#000000;stroke-width:0.8;"/>
      </defs>
      <g>
       <use style="stroke:#000000;stroke-width:0.8;" x="49.848" xlink:href="#me9a25b904e" y="285.96"/>
      </g>
     </g>
     <g id="text_1">
      <path d="M 36.549563 297.818125 
L 44.060813 297.818125 
L 44.060813 298.81375 
L 36.549563 298.81375 
z
M 47.6355 301.0825 
L 51.766125 301.0825 
L 51.766125 302.078125 
L 46.212375 302.078125 
L 46.212375 301.0825 
Q 46.8855 300.385 48.048 299.21125 
Q 49.212375 298.035625 49.5105 297.694375 
Q 50.078625 297.056875 50.303625 296.614375 
Q 50.5305 296.171875 50.5305 295.744375 
Q 50.5305 295.046875 50.041125 294.608125 
Q 49.55175 294.1675 48.766125 294.1675 
Q 48.20925 294.1675 47.5905 294.360625 
Q 46.973625 294.55375 46.2705 294.9475 
L 46.2705 293.75125 
Q 46.984875 293.464375 47.6055 293.318125 
Q 48.228 293.171875 48.743625 293.171875 
Q 50.103 293.171875 50.911125 293.8525 
Q 51.71925 294.53125 51.71925 295.6675 
Q 51.71925 296.2075 51.51675 296.69125 
Q 51.316125 297.173125 50.78175 297.829375 
Q 50.6355 298 49.849875 298.811875 
Q 49.066125 299.62375 47.6355 301.0825 
z
M 54.250266 300.589375 
L 55.487766 300.589375 
L 55.487766 302.078125 
L 54.250266 302.078125 
z
M 60.595969 294.109375 
Q 59.682844 294.109375 59.221594 295.009375 
Q 58.762219 295.9075 58.762219 297.713125 
Q 58.762219 299.51125 59.221594 300.41125 
Q 59.682844 301.31125 60.595969 301.31125 
Q 61.516594 301.31125 61.975969 300.41125 
Q 62.437219 299.51125 62.437219 297.713125 
Q 62.437219 295.9075 61.975969 295.009375 
Q 61.516594 294.109375 60.595969 294.109375 
z
M 60.595969 293.171875 
Q 62.067844 293.171875 62.844094 294.33625 
Q 63.620344 295.49875 63.620344 297.713125 
Q 63.620344 299.921875 62.844094 301.08625 
Q 62.067844 302.24875 60.595969 302.24875 
Q 59.125969 302.24875 58.349719 301.08625 
Q 57.573469 299.921875 57.573469 297.713125 
Q 57.573469 295.49875 58.349719 294.33625 
Q 59.125969 293.171875 60.595969 293.171875 
z
"/>
     </g>
    </g>
    <g id="xtick_2">
     <g id="line2d_2">
      <g>
       <use style="stroke:#000000;stroke-width:0.8;" x="96.6445" xlink:href="#me9a25b904e" y="285.96"/>
      </g>
     </g>
     <g id="text_2">
      <path d="M 83.346062 297.818125 
L 90.857312 297.818125 
L 90.857312 298.81375 
L 83.346062 298.81375 
z
M 93.61825 301.0825 
L 95.551375 301.0825 
L 95.551375 294.4075 
L 93.447625 294.829375 
L 93.447625 293.75125 
L 95.540125 293.329375 
L 96.72325 293.329375 
L 96.72325 301.0825 
L 98.656375 301.0825 
L 98.656375 302.078125 
L 93.61825 302.078125 
z
M 101.046766 300.589375 
L 102.284266 300.589375 
L 102.284266 302.078125 
L 101.046766 302.078125 
z
M 104.874344 293.329375 
L 109.520594 293.329375 
L 109.520594 294.326875 
L 105.958094 294.326875 
L 105.958094 296.47 
Q 106.214969 296.381875 106.471844 296.33875 
Q 106.730594 296.295625 106.989344 296.295625 
Q 108.453719 296.295625 109.308719 297.098125 
Q 110.165594 297.900625 110.165594 299.27125 
Q 110.165594 300.683125 109.286219 301.466875 
Q 108.406844 302.24875 106.807469 302.24875 
Q 106.256219 302.24875 105.684344 302.155 
Q 105.114344 302.06125 104.504969 301.87375 
L 104.504969 300.683125 
Q 105.031844 300.97 105.594344 301.110625 
Q 106.156844 301.25125 106.783094 301.25125 
Q 107.797469 301.25125 108.388094 300.71875 
Q 108.980594 300.18625 108.980594 299.27125 
Q 108.980594 298.358125 108.388094 297.825625 
Q 107.797469 297.29125 106.783094 297.29125 
Q 106.308719 297.29125 105.836219 297.39625 
Q 105.365594 297.50125 104.874344 297.724375 
z
"/>
     </g>
    </g>
    <g id="xtick_3">
     <g id="line2d_3">
      <g>
       <use style="stroke:#000000;stroke-width:0.8;" x="143.441" xlink:href="#me9a25b904e" y="285.96"/>
      </g>
     </g>
     <g id="text_3">
      <path d="M 130.142563 297.818125 
L 137.653813 297.818125 
L 137.653813 298.81375 
L 130.142563 298.81375 
z
M 140.41475 301.0825 
L 142.347875 301.0825 
L 142.347875 294.4075 
L 140.244125 294.829375 
L 140.244125 293.75125 
L 142.336625 293.329375 
L 143.51975 293.329375 
L 143.51975 301.0825 
L 145.452875 301.0825 
L 145.452875 302.078125 
L 140.41475 302.078125 
z
M 147.843266 300.589375 
L 149.080766 300.589375 
L 149.080766 302.078125 
L 147.843266 302.078125 
z
M 154.188969 294.109375 
Q 153.275844 294.109375 152.814594 295.009375 
Q 152.355219 295.9075 152.355219 297.713125 
Q 152.355219 299.51125 152.814594 300.41125 
Q 153.275844 301.31125 154.188969 301.31125 
Q 155.109594 301.31125 155.568969 300.41125 
Q 156.030219 299.51125 156.030219 297.713125 
Q 156.030219 295.9075 155.568969 295.009375 
Q 155.109594 294.109375 154.188969 294.109375 
z
M 154.188969 293.171875 
Q 155.660844 293.171875 156.437094 294.33625 
Q 157.213344 295.49875 157.213344 297.713125 
Q 157.213344 299.921875 156.437094 301.08625 
Q 155.660844 302.24875 154.188969 302.24875 
Q 152.718969 302.24875 151.942719 301.08625 
Q 151.166469 299.921875 151.166469 297.713125 
Q 151.166469 295.49875 151.942719 294.33625 
Q 152.718969 293.171875 154.188969 293.171875 
z
"/>
     </g>
    </g>
    <g id="xtick_4">
     <g id="line2d_4">
      <g>
       <use style="stroke:#000000;stroke-width:0.8;" x="190.2375" xlink:href="#me9a25b904e" y="285.96"/>
      </g>
     </g>
     <g id="text_4">
      <path d="M 176.939063 297.818125 
L 184.450313 297.818125 
L 184.450313 298.81375 
L 176.939063 298.81375 
z
M 189.53625 294.109375 
Q 188.623125 294.109375 188.161875 295.009375 
Q 187.7025 295.9075 187.7025 297.713125 
Q 187.7025 299.51125 188.161875 300.41125 
Q 188.623125 301.31125 189.53625 301.31125 
Q 190.456875 301.31125 190.91625 300.41125 
Q 191.3775 299.51125 191.3775 297.713125 
Q 191.3775 295.9075 190.91625 295.009375 
Q 190.456875 294.109375 189.53625 294.109375 
z
M 189.53625 293.171875 
Q 191.008125 293.171875 191.784375 294.33625 
Q 192.560625 295.49875 192.560625 297.713125 
Q 192.560625 299.921875 191.784375 301.08625 
Q 191.008125 302.24875 189.53625 302.24875 
Q 188.06625 302.24875 187.29 301.08625 
Q 186.51375 299.921875 186.51375 297.713125 
Q 186.51375 295.49875 187.29 294.33625 
Q 188.06625 293.171875 189.53625 293.171875 
z
M 194.639766 300.589375 
L 195.877266 300.589375 
L 195.877266 302.078125 
L 194.639766 302.078125 
z
M 198.467344 293.329375 
L 203.113594 293.329375 
L 203.113594 294.326875 
L 199.551094 294.326875 
L 199.551094 296.47 
Q 199.807969 296.381875 200.064844 296.33875 
Q 200.323594 296.295625 200.582344 296.295625 
Q 202.046719 296.295625 202.901719 297.098125 
Q 203.758594 297.900625 203.758594 299.27125 
Q 203.758594 300.683125 202.879219 301.466875 
Q 201.999844 302.24875 200.400469 302.24875 
Q 199.849219 302.24875 199.277344 302.155 
Q 198.707344 302.06125 198.097969 301.87375 
L 198.097969 300.683125 
Q 198.624844 300.97 199.187344 301.110625 
Q 199.749844 301.25125 200.376094 301.25125 
Q 201.390469 301.25125 201.981094 300.71875 
Q 202.573594 300.18625 202.573594 299.27125 
Q 202.573594 298.358125 201.981094 297.825625 
Q 201.390469 297.29125 200.376094 297.29125 
Q 199.901719 297.29125 199.429219 297.39625 
Q 198.958594 297.50125 198.467344 297.724375 
z
"/>
     </g>
    </g>
    <g id="xtick_5">
     <g id="line2d_5">
      <g>
       <use style="stroke:#000000;stroke-width:0.8;" x="237.034" xlink:href="#me9a25b904e" y="285.96"/>
      </g>
     </g>
     <g id="text_5">
      <path d="M 231.305875 294.109375 
Q 230.39275 294.109375 229.9315 295.009375 
Q 229.472125 295.9075 229.472125 297.713125 
Q 229.472125 299.51125 229.9315 300.41125 
Q 230.39275 301.31125 231.305875 301.31125 
Q 232.2265 301.31125 232.685875 300.41125 
Q 233.147125 299.51125 233.147125 297.713125 
Q 233.147125 295.9075 232.685875 295.009375 
Q 232.2265 294.109375 231.305875 294.109375 
z
M 231.305875 293.171875 
Q 232.77775 293.171875 233.554 294.33625 
Q 234.33025 295.49875 234.33025 297.713125 
Q 234.33025 299.921875 233.554 301.08625 
Q 232.77775 302.24875 231.305875 302.24875 
Q 229.835875 302.24875 229.059625 301.08625 
Q 228.283375 299.921875 228.283375 297.713125 
Q 228.283375 295.49875 229.059625 294.33625 
Q 229.835875 293.171875 231.305875 293.171875 
z
M 236.409391 300.589375 
L 237.646891 300.589375 
L 237.646891 302.078125 
L 236.409391 302.078125 
z
M 242.755094 294.109375 
Q 241.841969 294.109375 241.380719 295.009375 
Q 240.921344 295.9075 240.921344 297.713125 
Q 240.921344 299.51125 241.380719 300.41125 
Q 241.841969 301.31125 242.755094 301.31125 
Q 243.675719 301.31125 244.135094 300.41125 
Q 244.596344 299.51125 244.596344 297.713125 
Q 244.596344 295.9075 244.135094 295.009375 
Q 243.675719 294.109375 242.755094 294.109375 
z
M 242.755094 293.171875 
Q 244.226969 293.171875 245.003219 294.33625 
Q 245.779469 295.49875 245.779469 297.713125 
Q 245.779469 299.921875 245.003219 301.08625 
Q 244.226969 302.24875 242.755094 302.24875 
Q 241.285094 302.24875 240.508844 301.08625 
Q 239.732594 299.921875 239.732594 297.713125 
Q 239.732594 295.49875 240.508844 294.33625 
Q 241.285094 293.171875 242.755094 293.171875 
z
"/>
     </g>
    </g>
    <g id="xtick_6">
     <g id="line2d_6">
      <g>
       <use style="stroke:#000000;stroke-width:0.8;" x="283.8305" xlink:href="#me9a25b904e" y="285.96"/>
      </g>
     </g>
     <g id="text_6">
      <path d="M 278.102375 294.109375 
Q 277.18925 294.109375 276.728 295.009375 
Q 276.268625 295.9075 276.268625 297.713125 
Q 276.268625 299.51125 276.728 300.41125 
Q 277.18925 301.31125 278.102375 301.31125 
Q 279.023 301.31125 279.482375 300.41125 
Q 279.943625 299.51125 279.943625 297.713125 
Q 279.943625 295.9075 279.482375 295.009375 
Q 279.023 294.109375 278.102375 294.109375 
z
M 278.102375 293.171875 
Q 279.57425 293.171875 280.3505 294.33625 
Q 281.12675 295.49875 281.12675 297.713125 
Q 281.12675 299.921875 280.3505 301.08625 
Q 279.57425 302.24875 278.102375 302.24875 
Q 276.632375 302.24875 275.856125 301.08625 
Q 275.079875 299.921875 275.079875 297.713125 
Q 275.079875 295.49875 275.856125 294.33625 
Q 276.632375 293.171875 278.102375 293.171875 
z
M 283.205891 300.589375 
L 284.443391 300.589375 
L 284.443391 302.078125 
L 283.205891 302.078125 
z
M 287.033469 293.329375 
L 291.679719 293.329375 
L 291.679719 294.326875 
L 288.117219 294.326875 
L 288.117219 296.47 
Q 288.374094 296.381875 288.630969 296.33875 
Q 288.889719 296.295625 289.148469 296.295625 
Q 290.612844 296.295625 291.467844 297.098125 
Q 292.324719 297.900625 292.324719 299.27125 
Q 292.324719 300.683125 291.445344 301.466875 
Q 290.565969 302.24875 288.966594 302.24875 
Q 288.415344 302.24875 287.843469 302.155 
Q 287.273469 302.06125 286.664094 301.87375 
L 286.664094 300.683125 
Q 287.190969 300.97 287.753469 301.110625 
Q 288.315969 301.25125 288.942219 301.25125 
Q 289.956594 301.25125 290.547219 300.71875 
Q 291.139719 300.18625 291.139719 299.27125 
Q 291.139719 298.358125 290.547219 297.825625 
Q 289.956594 297.29125 288.942219 297.29125 
Q 288.467844 297.29125 287.995344 297.39625 
Q 287.524719 297.50125 287.033469 297.724375 
z
"/>
     </g>
    </g>
    <g id="xtick_7">
     <g id="line2d_7">
      <g>
       <use style="stroke:#000000;stroke-width:0.8;" x="330.627" xlink:href="#me9a25b904e" y="285.96"/>
      </g>
     </g>
     <g id="text_7">
      <path d="M 322.573875 301.0825 
L 324.507 301.0825 
L 324.507 294.4075 
L 322.40325 294.829375 
L 322.40325 293.75125 
L 324.49575 293.329375 
L 325.678875 293.329375 
L 325.678875 301.0825 
L 327.612 301.0825 
L 327.612 302.078125 
L 322.573875 302.078125 
z
M 330.002391 300.589375 
L 331.239891 300.589375 
L 331.239891 302.078125 
L 330.002391 302.078125 
z
M 336.348094 294.109375 
Q 335.434969 294.109375 334.973719 295.009375 
Q 334.514344 295.9075 334.514344 297.713125 
Q 334.514344 299.51125 334.973719 300.41125 
Q 335.434969 301.31125 336.348094 301.31125 
Q 337.268719 301.31125 337.728094 300.41125 
Q 338.189344 299.51125 338.189344 297.713125 
Q 338.189344 295.9075 337.728094 295.009375 
Q 337.268719 294.109375 336.348094 294.109375 
z
M 336.348094 293.171875 
Q 337.819969 293.171875 338.596219 294.33625 
Q 339.372469 295.49875 339.372469 297.713125 
Q 339.372469 299.921875 338.596219 301.08625 
Q 337.819969 302.24875 336.348094 302.24875 
Q 334.878094 302.24875 334.101844 301.08625 
Q 333.325594 299.921875 333.325594 297.713125 
Q 333.325594 295.49875 334.101844 294.33625 
Q 334.878094 293.171875 336.348094 293.171875 
z
"/>
     </g>
    </g>
    <g id="xtick_8">
     <g id="line2d_8">
      <g>
       <use style="stroke:#000000;stroke-width:0.8;" x="377.4235" xlink:href="#me9a25b904e" y="285.96"/>
      </g>
     </g>
     <g id="text_8">
      <path d="M 369.370375 301.0825 
L 371.3035 301.0825 
L 371.3035 294.4075 
L 369.19975 294.829375 
L 369.19975 293.75125 
L 371.29225 293.329375 
L 372.475375 293.329375 
L 372.475375 301.0825 
L 374.4085 301.0825 
L 374.4085 302.078125 
L 369.370375 302.078125 
z
M 376.798891 300.589375 
L 378.036391 300.589375 
L 378.036391 302.078125 
L 376.798891 302.078125 
z
M 380.626469 293.329375 
L 385.272719 293.329375 
L 385.272719 294.326875 
L 381.710219 294.326875 
L 381.710219 296.47 
Q 381.967094 296.381875 382.223969 296.33875 
Q 382.482719 296.295625 382.741469 296.295625 
Q 384.205844 296.295625 385.060844 297.098125 
Q 385.917719 297.900625 385.917719 299.27125 
Q 385.917719 300.683125 385.038344 301.466875 
Q 384.158969 302.24875 382.559594 302.24875 
Q 382.008344 302.24875 381.436469 302.155 
Q 380.866469 302.06125 380.257094 301.87375 
L 380.257094 300.683125 
Q 380.783969 300.97 381.346469 301.110625 
Q 381.908969 301.25125 382.535219 301.25125 
Q 383.549594 301.25125 384.140219 300.71875 
Q 384.732719 300.18625 384.732719 299.27125 
Q 384.732719 298.358125 384.140219 297.825625 
Q 383.549594 297.29125 382.535219 297.29125 
Q 382.060844 297.29125 381.588344 297.39625 
Q 381.117719 297.50125 380.626469 297.724375 
z
"/>
     </g>
    </g>
    <g id="xtick_9">
     <g id="line2d_9">
      <g>
       <use style="stroke:#000000;stroke-width:0.8;" x="424.22" xlink:href="#me9a25b904e" y="285.96"/>
      </g>
     </g>
     <g id="text_9">
      <path d="M 416.980625 301.0825 
L 421.11125 301.0825 
L 421.11125 302.078125 
L 415.5575 302.078125 
L 415.5575 301.0825 
Q 416.230625 300.385 417.393125 299.21125 
Q 418.5575 298.035625 418.855625 297.694375 
Q 419.42375 297.056875 419.64875 296.614375 
Q 419.875625 296.171875 419.875625 295.744375 
Q 419.875625 295.046875 419.38625 294.608125 
Q 418.896875 294.1675 418.11125 294.1675 
Q 417.554375 294.1675 416.935625 294.360625 
Q 416.31875 294.55375 415.615625 294.9475 
L 415.615625 293.75125 
Q 416.33 293.464375 416.950625 293.318125 
Q 417.573125 293.171875 418.08875 293.171875 
Q 419.448125 293.171875 420.25625 293.8525 
Q 421.064375 294.53125 421.064375 295.6675 
Q 421.064375 296.2075 420.861875 296.69125 
Q 420.66125 297.173125 420.126875 297.829375 
Q 419.980625 298 419.195 298.811875 
Q 418.41125 299.62375 416.980625 301.0825 
z
M 423.595391 300.589375 
L 424.832891 300.589375 
L 424.832891 302.078125 
L 423.595391 302.078125 
z
M 429.941094 294.109375 
Q 429.027969 294.109375 428.566719 295.009375 
Q 428.107344 295.9075 428.107344 297.713125 
Q 428.107344 299.51125 428.566719 300.41125 
Q 429.027969 301.31125 429.941094 301.31125 
Q 430.861719 301.31125 431.321094 300.41125 
Q 431.782344 299.51125 431.782344 297.713125 
Q 431.782344 295.9075 431.321094 295.009375 
Q 430.861719 294.109375 429.941094 294.109375 
z
M 429.941094 293.171875 
Q 431.412969 293.171875 432.189219 294.33625 
Q 432.965469 295.49875 432.965469 297.713125 
Q 432.965469 299.921875 432.189219 301.08625 
Q 431.412969 302.24875 429.941094 302.24875 
Q 428.471094 302.24875 427.694844 301.08625 
Q 426.918594 299.921875 426.918594 297.713125 
Q 426.918594 295.49875 427.694844 294.33625 
Q 428.471094 293.171875 429.941094 293.171875 
z
"/>
     </g>
    </g>
    <g id="text_10">
     <path d="M 202.6915 308.93 
L 208.22275 308.93 
L 208.22275 309.9275 
L 203.874625 309.9275 
L 203.874625 312.516875 
L 208.040875 312.516875 
L 208.040875 313.5125 
L 203.874625 313.5125 
L 203.874625 316.683125 
L 208.32775 316.683125 
L 208.32775 317.67875 
L 202.6915 317.67875 
z
M 215.682906 313.716875 
L 215.682906 317.67875 
L 214.604781 317.67875 
L 214.604781 313.7525 
Q 214.604781 312.820625 214.241031 312.359375 
Q 213.877281 311.89625 213.151656 311.89625 
Q 212.277906 311.89625 211.773531 312.453125 
Q 211.269156 313.008125 211.269156 313.97 
L 211.269156 317.67875 
L 210.185406 317.67875 
L 210.185406 311.11625 
L 211.269156 311.11625 
L 211.269156 312.13625 
Q 211.657281 311.54375 212.180406 311.25125 
Q 212.705406 310.95875 213.391656 310.95875 
Q 214.522281 310.95875 215.101656 311.658125 
Q 215.682906 312.3575 215.682906 313.716875 
z
M 223.445875 314.1275 
L 223.445875 314.654375 
L 218.488375 314.654375 
Q 218.559625 315.768125 219.159625 316.35125 
Q 219.759625 316.934375 220.832125 316.934375 
Q 221.45275 316.934375 222.035875 316.7825 
Q 222.619 316.630625 223.194625 316.325 
L 223.194625 317.345 
Q 222.613375 317.590625 222.004 317.72 
Q 221.394625 317.849375 220.768375 317.849375 
Q 219.197125 317.849375 218.28025 316.93625 
Q 217.363375 316.02125 217.363375 314.46125 
Q 217.363375 312.850625 218.233375 311.905625 
Q 219.103375 310.95875 220.580875 310.95875 
Q 221.904625 310.95875 222.67525 311.811875 
Q 223.445875 312.663125 223.445875 314.1275 
z
M 222.36775 313.810625 
Q 222.3565 312.9275 221.87275 312.400625 
Q 221.389 311.871875 220.592125 311.871875 
Q 219.69025 311.871875 219.148375 312.381875 
Q 218.6065 312.891875 218.524 313.818125 
z
M 229.017437 312.123125 
Q 228.835563 312.018125 228.621813 311.969375 
Q 228.408062 311.91875 228.151188 311.91875 
Q 227.236187 311.91875 226.746813 312.513125 
Q 226.257438 313.1075 226.257438 314.22125 
L 226.257438 317.67875 
L 225.173687 317.67875 
L 225.173687 311.11625 
L 226.257438 311.11625 
L 226.257438 312.13625 
Q 226.598688 311.538125 227.142437 311.249375 
Q 227.688063 310.95875 228.468063 310.95875 
Q 228.578688 310.95875 228.713688 310.97375 
Q 228.848688 310.986875 229.011813 311.016875 
z
M 234.466656 314.320625 
Q 234.466656 313.14875 233.982906 312.505625 
Q 233.501031 311.860625 232.627281 311.860625 
Q 231.761031 311.860625 231.277281 312.505625 
Q 230.793531 313.14875 230.793531 314.320625 
Q 230.793531 315.486875 231.277281 316.131875 
Q 231.761031 316.776875 232.627281 316.776875 
Q 233.501031 316.776875 233.982906 316.131875 
Q 234.466656 315.486875 234.466656 314.320625 
z
M 235.544781 316.865 
Q 235.544781 318.539375 234.800406 319.356875 
Q 234.057906 320.174375 232.522281 320.174375 
Q 231.954156 320.174375 231.449781 320.09 
Q 230.945406 320.005625 230.471031 319.829375 
L 230.471031 318.78125 
Q 230.945406 319.038125 231.408531 319.16 
Q 231.871656 319.28375 232.351656 319.28375 
Q 233.412906 319.28375 233.939781 318.730625 
Q 234.466656 318.1775 234.466656 317.058125 
L 234.466656 316.52375 
Q 234.132906 317.105 233.611656 317.391875 
Q 233.090406 317.67875 232.362906 317.67875 
Q 231.157281 317.67875 230.418531 316.76 
Q 229.679781 315.839375 229.679781 314.320625 
Q 229.679781 312.798125 230.418531 311.879375 
Q 231.157281 310.95875 232.362906 310.95875 
Q 233.090406 310.95875 233.611656 311.245625 
Q 234.132906 311.5325 234.466656 312.111875 
L 234.466656 311.11625 
L 235.544781 311.11625 
z
M 240.495719 318.288125 
Q 240.040094 319.46 239.605094 319.81625 
Q 239.171969 320.174375 238.446344 320.174375 
L 237.583844 320.174375 
L 237.583844 319.2725 
L 238.217594 319.2725 
Q 238.661969 319.2725 238.907594 319.060625 
Q 239.155094 318.850625 239.453219 318.065 
L 239.646344 317.57375 
L 236.993219 311.11625 
L 238.135094 311.11625 
L 240.186344 316.248125 
L 242.237594 311.11625 
L 243.379469 311.11625 
z
M 251.271109 308.57375 
Q 250.487359 309.92 250.104859 311.24 
Q 249.724234 312.558125 249.724234 313.911875 
Q 249.724234 315.26375 250.108609 316.59125 
Q 250.492984 317.91875 251.271109 319.26125 
L 250.333609 319.26125 
Q 249.456109 317.883125 249.019234 316.55375 
Q 248.582359 315.224375 248.582359 313.911875 
Q 248.582359 312.605 249.015484 311.28125 
Q 249.450484 309.955625 250.333609 308.57375 
z
M 258.977125 314.1275 
L 258.977125 314.654375 
L 254.019625 314.654375 
Q 254.090875 315.768125 254.690875 316.35125 
Q 255.290875 316.934375 256.363375 316.934375 
Q 256.984 316.934375 257.567125 316.7825 
Q 258.15025 316.630625 258.725875 316.325 
L 258.725875 317.345 
Q 258.144625 317.590625 257.53525 317.72 
Q 256.925875 317.849375 256.299625 317.849375 
Q 254.728375 317.849375 253.8115 316.93625 
Q 252.894625 316.02125 252.894625 314.46125 
Q 252.894625 312.850625 253.764625 311.905625 
Q 254.634625 310.95875 256.112125 310.95875 
Q 257.435875 310.95875 258.2065 311.811875 
Q 258.977125 312.663125 258.977125 314.1275 
z
M 257.899 313.810625 
Q 257.88775 312.9275 257.404 312.400625 
Q 256.92025 311.871875 256.123375 311.871875 
Q 255.2215 311.871875 254.679625 312.381875 
Q 254.13775 312.891875 254.05525 313.818125 
z
M 263.048688 317.67875 
L 259.709313 308.93 
L 260.944938 308.93 
L 263.718063 316.295 
L 266.494937 308.93 
L 267.724938 308.93 
L 264.391188 317.67875 
z
M 268.786422 308.57375 
L 269.723922 308.57375 
Q 270.601422 309.955625 271.038297 311.28125 
Q 271.475172 312.605 271.475172 313.911875 
Q 271.475172 315.224375 271.038297 316.55375 
Q 270.601422 317.883125 269.723922 319.26125 
L 268.786422 319.26125 
Q 269.564547 317.91875 269.948922 316.59125 
Q 270.333297 315.26375 270.333297 313.911875 
Q 270.333297 312.558125 269.948922 311.24 
Q 269.564547 309.92 268.786422 308.57375 
z
"/>
    </g>
   </g>
   <g id="matplotlib.axis_2">
    <g id="ytick_1">
     <g id="line2d_10">
      <defs>
       <path d="M 0 0 
L -3.5 0 
" id="m58f823a23d" style="stroke:#000000;stroke-width:0.8;"/>
      </defs>
      <g>
       <use style="stroke:#000000;stroke-width:0.8;" x="49.848" xlink:href="#m58f823a23d" y="285.96"/>
      </g>
     </g>
     <g id="text_11">
      <path d="M 27.578 282.550312 
Q 26.664875 282.550312 26.203625 283.450312 
Q 25.74425 284.348437 25.74425 286.154062 
Q 25.74425 287.952187 26.203625 288.852187 
Q 26.664875 289.752187 27.578 289.752187 
Q 28.498625 289.752187 28.958 288.852187 
Q 29.41925 287.952187 29.41925 286.154062 
Q 29.41925 284.348437 28.958 283.450312 
Q 28.498625 282.550312 27.578 282.550312 
z
M 27.578 281.612812 
Q 29.049875 281.612812 29.826125 282.777187 
Q 30.602375 283.939687 30.602375 286.154062 
Q 30.602375 288.362812 29.826125 289.527187 
Q 29.049875 290.689687 27.578 290.689687 
Q 26.108 290.689687 25.33175 289.527187 
Q 24.5555 288.362812 24.5555 286.154062 
Q 24.5555 283.939687 25.33175 282.777187 
Q 26.108 281.612812 27.578 281.612812 
z
M 32.681516 289.030312 
L 33.919016 289.030312 
L 33.919016 290.519062 
L 32.681516 290.519062 
z
M 39.027219 282.550312 
Q 38.114094 282.550312 37.652844 283.450312 
Q 37.193469 284.348437 37.193469 286.154062 
Q 37.193469 287.952187 37.652844 288.852187 
Q 38.114094 289.752187 39.027219 289.752187 
Q 39.947844 289.752187 40.407219 288.852187 
Q 40.868469 287.952187 40.868469 286.154062 
Q 40.868469 284.348437 40.407219 283.450312 
Q 39.947844 282.550312 39.027219 282.550312 
z
M 39.027219 281.612812 
Q 40.499094 281.612812 41.275344 282.777187 
Q 42.051594 283.939687 42.051594 286.154062 
Q 42.051594 288.362812 41.275344 289.527187 
Q 40.499094 290.689687 39.027219 290.689687 
Q 37.557219 290.689687 36.780969 289.527187 
Q 36.004719 288.362812 36.004719 286.154062 
Q 36.004719 283.939687 36.780969 282.777187 
Q 37.557219 281.612812 39.027219 281.612812 
z
"/>
     </g>
    </g>
    <g id="ytick_2">
     <g id="line2d_11">
      <g>
       <use style="stroke:#000000;stroke-width:0.8;" x="49.848" xlink:href="#m58f823a23d" y="228.407405"/>
      </g>
     </g>
     <g id="text_12">
      <path d="M 27.578 224.997717 
Q 26.664875 224.997717 26.203625 225.897717 
Q 25.74425 226.795842 25.74425 228.601467 
Q 25.74425 230.399592 26.203625 231.299592 
Q 26.664875 232.199592 27.578 232.199592 
Q 28.498625 232.199592 28.958 231.299592 
Q 29.41925 230.399592 29.41925 228.601467 
Q 29.41925 226.795842 28.958 225.897717 
Q 28.498625 224.997717 27.578 224.997717 
z
M 27.578 224.060217 
Q 29.049875 224.060217 29.826125 225.224592 
Q 30.602375 226.387092 30.602375 228.601467 
Q 30.602375 230.810217 29.826125 231.974592 
Q 29.049875 233.137092 27.578 233.137092 
Q 26.108 233.137092 25.33175 231.974592 
Q 24.5555 230.810217 24.5555 228.601467 
Q 24.5555 226.387092 25.33175 225.224592 
Q 26.108 224.060217 27.578 224.060217 
z
M 32.681516 231.477717 
L 33.919016 231.477717 
L 33.919016 232.966467 
L 32.681516 232.966467 
z
M 36.509094 224.217717 
L 41.155344 224.217717 
L 41.155344 225.215217 
L 37.592844 225.215217 
L 37.592844 227.358342 
Q 37.849719 227.270217 38.106594 227.227092 
Q 38.365344 227.183967 38.624094 227.183967 
Q 40.088469 227.183967 40.943469 227.986467 
Q 41.800344 228.788967 41.800344 230.159592 
Q 41.800344 231.571467 40.920969 232.355217 
Q 40.041594 233.137092 38.442219 233.137092 
Q 37.890969 233.137092 37.319094 233.043342 
Q 36.749094 232.949592 36.139719 232.762092 
L 36.139719 231.571467 
Q 36.666594 231.858342 37.229094 231.998967 
Q 37.791594 232.139592 38.417844 232.139592 
Q 39.432219 232.139592 40.022844 231.607092 
Q 40.615344 231.074592 40.615344 230.159592 
Q 40.615344 229.246467 40.022844 228.713967 
Q 39.432219 228.179592 38.417844 228.179592 
Q 37.943469 228.179592 37.470969 228.284592 
Q 37.000344 228.389592 36.509094 228.612717 
z
"/>
     </g>
    </g>
    <g id="ytick_3">
     <g id="line2d_12">
      <g>
       <use style="stroke:#000000;stroke-width:0.8;" x="49.848" xlink:href="#m58f823a23d" y="170.854809"/>
      </g>
     </g>
     <g id="text_13">
      <path d="M 25.253 174.418247 
L 27.186125 174.418247 
L 27.186125 167.743247 
L 25.082375 168.165122 
L 25.082375 167.086997 
L 27.174875 166.665122 
L 28.358 166.665122 
L 28.358 174.418247 
L 30.291125 174.418247 
L 30.291125 175.413872 
L 25.253 175.413872 
z
M 32.681516 173.925122 
L 33.919016 173.925122 
L 33.919016 175.413872 
L 32.681516 175.413872 
z
M 39.027219 167.445122 
Q 38.114094 167.445122 37.652844 168.345122 
Q 37.193469 169.243247 37.193469 171.048872 
Q 37.193469 172.846997 37.652844 173.746997 
Q 38.114094 174.646997 39.027219 174.646997 
Q 39.947844 174.646997 40.407219 173.746997 
Q 40.868469 172.846997 40.868469 171.048872 
Q 40.868469 169.243247 40.407219 168.345122 
Q 39.947844 167.445122 39.027219 167.445122 
z
M 39.027219 166.507622 
Q 40.499094 166.507622 41.275344 167.671997 
Q 42.051594 168.834497 42.051594 171.048872 
Q 42.051594 173.257622 41.275344 174.421997 
Q 40.499094 175.584497 39.027219 175.584497 
Q 37.557219 175.584497 36.780969 174.421997 
Q 36.004719 173.257622 36.004719 171.048872 
Q 36.004719 168.834497 36.780969 167.671997 
Q 37.557219 166.507622 39.027219 166.507622 
z
"/>
     </g>
    </g>
    <g id="ytick_4">
     <g id="line2d_13">
      <g>
       <use style="stroke:#000000;stroke-width:0.8;" x="49.848" xlink:href="#m58f823a23d" y="113.302214"/>
      </g>
     </g>
     <g id="text_14">
      <path d="M 25.253 116.865651 
L 27.186125 116.865651 
L 27.186125 110.190651 
L 25.082375 110.612526 
L 25.082375 109.534401 
L 27.174875 109.112526 
L 28.358 109.112526 
L 28.358 116.865651 
L 30.291125 116.865651 
L 30.291125 117.861276 
L 25.253 117.861276 
z
M 32.681516 116.372526 
L 33.919016 116.372526 
L 33.919016 117.861276 
L 32.681516 117.861276 
z
M 36.509094 109.112526 
L 41.155344 109.112526 
L 41.155344 110.110026 
L 37.592844 110.110026 
L 37.592844 112.253151 
Q 37.849719 112.165026 38.106594 112.121901 
Q 38.365344 112.078776 38.624094 112.078776 
Q 40.088469 112.078776 40.943469 112.881276 
Q 41.800344 113.683776 41.800344 115.054401 
Q 41.800344 116.466276 40.920969 117.250026 
Q 40.041594 118.031901 38.442219 118.031901 
Q 37.890969 118.031901 37.319094 117.938151 
Q 36.749094 117.844401 36.139719 117.656901 
L 36.139719 116.466276 
Q 36.666594 116.753151 37.229094 116.893776 
Q 37.791594 117.034401 38.417844 117.034401 
Q 39.432219 117.034401 40.022844 116.501901 
Q 40.615344 115.969401 40.615344 115.054401 
Q 40.615344 114.141276 40.022844 113.608776 
Q 39.432219 113.074401 38.417844 113.074401 
Q 37.943469 113.074401 37.470969 113.179401 
Q 37.000344 113.284401 36.509094 113.507526 
z
"/>
     </g>
    </g>
    <g id="ytick_5">
     <g id="line2d_14">
      <g>
       <use style="stroke:#000000;stroke-width:0.8;" x="49.848" xlink:href="#m58f823a23d" y="55.749618"/>
      </g>
     </g>
     <g id="text_15">
      <path d="M 26.06675 59.313056 
L 30.197375 59.313056 
L 30.197375 60.308681 
L 24.643625 60.308681 
L 24.643625 59.313056 
Q 25.31675 58.615556 26.47925 57.441806 
Q 27.643625 56.266181 27.94175 55.924931 
Q 28.509875 55.287431 28.734875 54.844931 
Q 28.96175 54.402431 28.96175 53.974931 
Q 28.96175 53.277431 28.472375 52.838681 
Q 27.983 52.398056 27.197375 52.398056 
Q 26.6405 52.398056 26.02175 52.591181 
Q 25.404875 52.784306 24.70175 53.178056 
L 24.70175 51.981806 
Q 25.416125 51.694931 26.03675 51.548681 
Q 26.65925 51.402431 27.174875 51.402431 
Q 28.53425 51.402431 29.342375 52.083056 
Q 30.1505 52.761806 30.1505 53.898056 
Q 30.1505 54.438056 29.948 54.921806 
Q 29.747375 55.403681 29.213 56.059931 
Q 29.06675 56.230556 28.281125 57.042431 
Q 27.497375 57.854306 26.06675 59.313056 
z
M 32.681516 58.819931 
L 33.919016 58.819931 
L 33.919016 60.308681 
L 32.681516 60.308681 
z
M 39.027219 52.339931 
Q 38.114094 52.339931 37.652844 53.239931 
Q 37.193469 54.138056 37.193469 55.943681 
Q 37.193469 57.741806 37.652844 58.641806 
Q 38.114094 59.541806 39.027219 59.541806 
Q 39.947844 59.541806 40.407219 58.641806 
Q 40.868469 57.741806 40.868469 55.943681 
Q 40.868469 54.138056 40.407219 53.239931 
Q 39.947844 52.339931 39.027219 52.339931 
z
M 39.027219 51.402431 
Q 40.499094 51.402431 41.275344 52.566806 
Q 42.051594 53.729306 42.051594 55.943681 
Q 42.051594 58.152431 41.275344 59.316806 
Q 40.499094 60.479306 39.027219 60.479306 
Q 37.557219 60.479306 36.780969 59.316806 
Q 36.004719 58.152431 36.004719 55.943681 
Q 36.004719 53.729306 36.780969 52.566806 
Q 37.557219 51.402431 39.027219 51.402431 
z
"/>
     </g>
    </g>
    <g id="text_16">
     <path d="M 9.410875 186.059375 
L 16.213375 186.059375 
L 16.213375 184.62875 
Q 16.213375 182.8175 15.394 181.9775 
Q 14.57275 181.1375 12.80275 181.1375 
Q 11.045875 181.1375 10.228375 181.9775 
Q 9.410875 182.8175 9.410875 184.62875 
z
M 8.43775 187.2425 
L 8.43775 184.810625 
Q 8.43775 182.268125 9.49525 181.079375 
Q 10.55275 179.88875 12.80275 179.88875 
Q 15.065875 179.88875 16.127125 181.085 
Q 17.1865 182.279375 17.1865 184.810625 
L 17.1865 187.2425 
z
M 9.24025 174.451016 
Q 9.24025 175.741016 10.202125 176.500391 
Q 11.162125 177.257891 12.8215 177.257891 
Q 14.473375 177.257891 15.43525 176.500391 
Q 16.39525 175.741016 16.39525 174.451016 
Q 16.39525 173.162891 15.43525 172.409141 
Q 14.473375 171.655391 12.8215 171.655391 
Q 11.162125 171.655391 10.202125 172.409141 
Q 9.24025 173.162891 9.24025 174.451016 
z
M 8.28025 174.451016 
Q 8.28025 172.611641 9.514 171.511016 
Q 10.74775 170.408516 12.8215 170.408516 
Q 14.889625 170.408516 16.123375 171.511016 
Q 17.357125 172.611641 17.357125 174.451016 
Q 17.357125 176.296016 16.127125 177.402266 
Q 14.89525 178.506641 12.8215 178.506641 
Q 10.74775 178.506641 9.514 177.402266 
Q 8.28025 176.296016 8.28025 174.451016 
z
M 8.724625 163.312578 
L 9.879625 163.312578 
Q 9.557125 163.985703 9.399625 164.583828 
Q 9.24025 165.181953 9.24025 165.738828 
Q 9.24025 166.704453 9.61525 167.229453 
Q 9.99025 167.754453 10.682125 167.754453 
Q 11.263375 167.754453 11.559625 167.405703 
Q 11.854 167.056953 12.035875 166.083828 
L 12.182125 165.369453 
Q 12.43525 164.045703 13.070875 163.415703 
Q 13.7065 162.785703 14.7715 162.785703 
Q 16.044625 162.785703 16.700875 163.638828 
Q 17.357125 164.490078 17.357125 166.136328 
Q 17.357125 166.756953 17.2165 167.458203 
Q 17.075875 168.157578 16.80025 168.907578 
L 15.5815 168.907578 
Q 15.984625 168.187578 16.190875 167.495703 
Q 16.39525 166.803828 16.39525 166.136328 
Q 16.39525 165.123828 15.99775 164.572578 
Q 15.598375 164.021328 14.859625 164.021328 
Q 14.2165 164.021328 13.85275 164.416953 
Q 13.489 164.812578 13.307125 165.714453 
L 13.1665 166.436328 
Q 12.904 167.760078 12.3415 168.352578 
Q 11.779 168.943203 10.775875 168.943203 
Q 9.61525 168.943203 8.94775 168.125703 
Q 8.28025 167.308203 8.28025 165.873828 
Q 8.28025 165.256953 8.39275 164.619453 
Q 8.503375 163.980078 8.724625 163.312578 
z
M 8.0815 154.582812 
Q 9.42775 155.366562 10.74775 155.749062 
Q 12.065875 156.129687 13.419625 156.129687 
Q 14.7715 156.129687 16.099 155.745312 
Q 17.4265 155.360937 18.769 154.582812 
L 18.769 155.520312 
Q 17.390875 156.397812 16.0615 156.834687 
Q 14.732125 157.271562 13.419625 157.271562 
Q 12.11275 157.271562 10.789 156.838437 
Q 9.463375 156.403437 8.0815 155.520312 
z
M 13.63525 146.876797 
L 14.162125 146.876797 
L 14.162125 151.834297 
Q 15.275875 151.763047 15.859 151.163047 
Q 16.442125 150.563047 16.442125 149.490547 
Q 16.442125 148.869922 16.29025 148.286797 
Q 16.138375 147.703672 15.83275 147.128047 
L 16.85275 147.128047 
Q 17.098375 147.709297 17.22775 148.318672 
Q 17.357125 148.928047 17.357125 149.554297 
Q 17.357125 151.125547 16.444 152.042422 
Q 15.529 152.959297 13.969 152.959297 
Q 12.358375 152.959297 11.413375 152.089297 
Q 10.4665 151.219297 10.4665 149.741797 
Q 10.4665 148.418047 11.319625 147.647422 
Q 12.170875 146.876797 13.63525 146.876797 
z
M 13.318375 147.954922 
Q 12.43525 147.966172 11.908375 148.449922 
Q 11.379625 148.933672 11.379625 149.730547 
Q 11.379625 150.632422 11.889625 151.174297 
Q 12.399625 151.716172 13.325875 151.798672 
z
M 17.1865 142.805234 
L 8.43775 146.144609 
L 8.43775 144.908984 
L 15.80275 142.135859 
L 8.43775 139.358984 
L 8.43775 138.128984 
L 17.1865 141.462734 
z
M 9.61075 137.024656 
L 9.61075 131.766781 
L 10.307688 131.766781 
L 10.307688 137.024656 
z
M 11.895813 129.834125 
L 11.895813 128.480937 
L 7.223313 128.480937 
L 7.518625 129.953562 
L 6.763938 129.953562 
L 6.468625 128.488812 
L 6.468625 127.660625 
L 11.895813 127.660625 
L 11.895813 126.307437 
L 12.59275 126.307437 
L 12.59275 129.834125 
z
M 8.0815 124.241914 
L 8.0815 123.304414 
Q 9.463375 122.426914 10.789 121.990039 
Q 12.11275 121.553164 13.419625 121.553164 
Q 14.732125 121.553164 16.0615 121.990039 
Q 17.390875 122.426914 18.769 123.304414 
L 18.769 124.241914 
Q 17.4265 123.463789 16.099 123.079414 
Q 14.7715 122.695039 13.419625 122.695039 
Q 12.065875 122.695039 10.74775 123.079414 
Q 9.42775 123.463789 8.0815 124.241914 
z
"/>
    </g>
   </g>
   <path clip-path="url(#p774e66444d)" d="M 49.848 149.862492 
L 50.78393 149.472453 
L 53.59172 146.707377 
L 55.46358 145.628317 
L 58.27137 144.109886 
L 59.2073 119.351052 
L 62.95102 114.040533 
L 63.88695 57.004479 
L 68.5666 35.48381 
L 69.50253 117.404993 
L 77.9259 130.405352 
L 78.86183 131.243646 
L 85.41334 134.273098 
L 86.34927 111.181235 
L 91.96485 104.81244 
L 92.90078 103.284479 
L 93.83671 102.21112 
L 96.6445 100.421491 
L 97.58043 100.538135 
L 98.51636 101.192282 
L 99.45229 101.433622 
L 101.32415 102.931149 
L 103.19601 106.466736 
L 106.93973 111.035077 
L 107.87566 111.109394 
L 109.74752 110.758123 
L 110.68345 110.306088 
L 111.61938 109.414581 
L 112.55531 104.880436 
L 113.49124 106.190969 
L 118.17089 102.332907 
L 119.10682 100.812894 
L 120.04275 101.071829 
L 122.85054 102.349338 
L 127.53019 103.293437 
L 130.33798 104.264104 
L 133.14577 104.567228 
L 134.0817 118.777434 
L 148.12065 137.325584 
L 149.05658 138.121338 
L 149.99251 140.310202 
L 152.8003 142.487326 
L 153.73623 142.931727 
L 154.67216 143.186764 
L 158.41588 142.994419 
L 160.28774 142.939849 
L 161.22367 143.637576 
L 162.1596 144.648766 
L 166.83925 150.883994 
L 167.77518 156.429434 
L 177.13448 164.984756 
L 181.81413 168.18109 
L 182.75006 168.327885 
L 183.68599 167.110437 
L 185.55785 163.804156 
L 190.2375 153.561687 
L 193.98122 155.44763 
L 194.91715 155.692576 
L 195.85308 152.059301 
L 196.78901 149.150168 
L 197.72494 147.431547 
L 202.40459 143.39087 
L 203.34052 142.799475 
L 206.14831 141.431589 
L 207.08424 141.319317 
L 209.89203 141.844768 
L 213.63575 141.260111 
L 214.57168 141.106295 
L 215.50761 137.041255 
L 218.3154 141.180391 
L 219.25133 142.296435 
L 222.99505 144.1889 
L 223.93098 146.455598 
L 225.80284 151.916844 
L 233.29028 173.00452 
L 234.22621 174.163289 
L 246.3933 168.218088 
L 247.32923 167.875886 
L 248.26516 165.282948 
L 256.68853 158.435819 
L 257.62446 157.967772 
L 259.49632 158.902576 
L 260.43225 158.83761 
L 266.04783 155.447059 
L 266.98376 156.807811 
L 271.66341 152.701765 
L 272.59934 150.796042 
L 275.40713 143.912176 
L 276.34306 142.358418 
L 279.15085 145.858269 
L 280.08678 149.782285 
L 285.70236 194.636792 
L 286.63829 212.361532 
L 288.51015 214.147478 
L 289.44608 215.106555 
L 293.1898 217.72322 
L 306.29282 226.760658 
L 307.22875 203.72817 
L 313.78026 201.104445 
L 319.39584 199.182776 
L 321.2677 198.205993 
L 322.20363 218.616916 
L 326.88328 220.58352 
L 350.28153 226.255128 
L 353.08932 227.208652 
L 354.02525 219.547793 
L 356.83304 172.445144 
L 357.76897 218.466063 
L 358.7049 233.902042 
L 359.64083 234.848948 
L 364.32048 236.97584 
L 368.0642 238.655337 
L 401.75768 246.134279 
L 402.69361 241.857344 
L 403.62954 225.08927 
L 404.56547 223.597419 
L 407.37326 233.331838 
L 412.05291 245.656247 
L 412.98884 247.666225 
L 413.92477 248.572888 
L 424.22 248.098266 
L 424.22 248.098266 
" style="fill:none;stroke:#000000;stroke-linecap:square;stroke-width:1.5;"/>
   <path clip-path="url(#p774e66444d)" d="M 49.848 267.237761 
L 54.52765 265.796535 
L 58.27137 265.238674 
L 59.2073 263.929784 
L 62.95102 263.24189 
L 63.88695 260.717069 
L 68.5666 259.228508 
L 69.50253 262.627955 
L 80.73369 262.146957 
L 85.41334 261.796473 
L 86.34927 260.697325 
L 98.51636 258.766815 
L 99.45229 258.276797 
L 101.32415 258.205964 
L 102.26008 258.633582 
L 106.93973 262.406374 
L 108.81159 262.903878 
L 111.61938 263.443865 
L 112.55531 263.315578 
L 115.3631 263.925614 
L 126.59426 266.066707 
L 133.14577 267.033082 
L 134.0817 268.011992 
L 157.47995 273.191701 
L 161.22367 273.874401 
L 166.83925 275.325929 
L 167.77518 277.97881 
L 182.75006 278.583926 
L 186.49378 277.985594 
L 190.2375 277.275792 
L 194.91715 277.452985 
L 196.78901 276.714751 
L 198.66087 276.390073 
L 206.14831 275.440042 
L 214.57168 274.751479 
L 215.50761 274.227008 
L 220.18726 274.518152 
L 222.99505 274.541727 
L 226.73877 275.255111 
L 234.22621 276.599046 
L 247.32923 275.968125 
L 248.26516 275.630704 
L 257.62446 274.738382 
L 260.43225 274.836724 
L 267.91969 274.284519 
L 273.53527 272.835715 
L 275.40713 272.269944 
L 276.34306 272.095507 
L 279.15085 272.694492 
L 280.08678 273.129572 
L 284.76643 277.020643 
L 285.70236 277.837738 
L 286.63829 279.850555 
L 294.12573 280.385733 
L 306.29282 281.110359 
L 307.22875 276.997855 
L 315.65212 276.836165 
L 321.2677 276.798414 
L 322.20363 278.684687 
L 336.24258 278.593787 
L 353.08932 278.381702 
L 354.02525 277.468336 
L 356.83304 272.097755 
L 357.76897 277.291682 
L 358.7049 278.771208 
L 361.51269 278.784065 
L 371.80792 278.541023 
L 394.27024 277.510261 
L 401.75768 277.118187 
L 402.69361 275.774859 
L 403.62954 270.904778 
L 404.56547 270.438821 
L 407.37326 272.944392 
L 411.11698 275.440566 
L 412.98884 276.569152 
L 413.92477 276.815582 
L 424.22 276.78789 
L 424.22 276.78789 
" style="fill:none;stroke:#0a3b76;stroke-linecap:square;"/>
   <path clip-path="url(#p774e66444d)" d="M 49.848 254.550893 
L 50.78393 254.439756 
L 54.52765 253.518663 
L 58.27137 252.8887 
L 59.2073 245.362915 
L 62.95102 243.434606 
L 63.88695 224.52427 
L 68.5666 217.188347 
L 69.50253 243.928612 
L 77.9259 247.556788 
L 79.79776 247.899038 
L 85.41334 248.594186 
L 86.34927 241.07506 
L 91.96485 239.074176 
L 92.90078 238.597873 
L 93.83671 238.261674 
L 96.6445 237.700834 
L 97.58043 237.750626 
L 101.32415 238.612941 
L 102.26008 239.080075 
L 103.19601 239.403146 
L 106.93973 239.944993 
L 109.74752 239.595119 
L 110.68345 239.380887 
L 111.61938 239.05232 
L 112.55531 237.898424 
L 113.49124 238.340298 
L 118.17089 236.717512 
L 119.10682 236.22295 
L 121.91461 236.443472 
L 124.7224 236.591823 
L 129.40205 236.836454 
L 131.27391 236.921944 
L 133.14577 236.94538 
L 134.0817 240.81937 
L 148.12065 245.35101 
L 149.05658 245.520812 
L 149.99251 246.135419 
L 153.73623 246.620062 
L 156.54402 246.55672 
L 160.28774 246.410858 
L 162.1596 246.798732 
L 166.83925 248.264375 
L 167.77518 249.072788 
L 178.07041 251.671295 
L 181.81413 252.393458 
L 182.75006 252.457968 
L 184.62192 251.848 
L 186.49378 250.964551 
L 190.2375 248.987378 
L 194.91715 249.483878 
L 195.85308 249.415755 
L 196.78901 249.540174 
L 198.66087 249.658905 
L 206.14831 250.713163 
L 208.02017 251.259677 
L 211.76389 252.422381 
L 214.57168 253.221295 
L 215.50761 253.179906 
L 219.25133 254.534776 
L 222.99505 255.163225 
L 224.86691 256.396487 
L 232.35435 261.218568 
L 233.29028 261.79992 
L 234.22621 262.03166 
L 247.32923 260.035017 
L 248.26516 259.352009 
L 258.56039 257.15841 
L 261.36818 256.550719 
L 266.04783 255.425424 
L 266.98376 255.674954 
L 270.72748 255.053087 
L 271.66341 254.864803 
L 273.53527 253.83707 
L 276.34306 252.195664 
L 279.15085 251.964525 
L 280.08678 252.735962 
L 285.70236 263.808165 
L 286.63829 268.153202 
L 293.1898 269.469121 
L 306.29282 271.74349 
L 307.22875 265.289356 
L 320.33177 261.230026 
L 321.2677 260.883883 
L 322.20363 268.88251 
L 328.75514 269.546132 
L 350.28153 270.873927 
L 353.08932 271.21574 
L 354.02525 269.828904 
L 356.83304 260.838274 
L 357.76897 269.721546 
L 358.7049 273.107114 
L 359.64083 273.40639 
L 368.0642 274.699896 
L 388.65466 276.230457 
L 401.75768 277.321931 
L 402.69361 276.827533 
L 403.62954 274.592013 
L 404.56547 274.367743 
L 406.43733 275.296744 
L 407.37326 275.891076 
L 410.18105 277.101114 
L 412.98884 278.400462 
L 413.92477 278.595947 
L 424.22 278.68553 
L 424.22 278.68553 
" style="fill:none;stroke:#74a402;stroke-linecap:square;"/>
   <path clip-path="url(#p774e66444d)" d="M 49.848 258.647764 
L 51.71986 258.672739 
L 58.27137 258.498634 
L 59.2073 254.300982 
L 62.95102 253.94527 
L 63.88695 245.618641 
L 68.5666 242.964713 
L 69.50253 255.432079 
L 78.86183 258.579579 
L 85.41334 259.564054 
L 86.34927 256.094993 
L 95.70857 255.018362 
L 97.58043 255.046739 
L 101.32415 255.706386 
L 103.19601 256.082561 
L 107.87566 256.28388 
L 110.68345 256.067462 
L 111.61938 255.864399 
L 112.55531 254.805783 
L 113.49124 254.904512 
L 118.17089 254.212835 
L 119.10682 253.892942 
L 123.78647 253.878667 
L 133.14577 253.765591 
L 134.0817 256.484169 
L 148.12065 259.597671 
L 149.05658 259.725841 
L 149.99251 260.075611 
L 153.73623 260.495395 
L 155.60809 260.47263 
L 160.28774 260.203683 
L 162.1596 260.455411 
L 166.83925 261.48809 
L 167.77518 262.125576 
L 179.00634 264.000634 
L 182.75006 264.38564 
L 184.62192 263.728508 
L 187.42971 262.448981 
L 190.2375 261.112508 
L 194.91715 261.661252 
L 196.78901 258.722833 
L 197.72494 257.963066 
L 203.34052 255.283299 
L 207.08424 254.032396 
L 210.82796 253.116509 
L 214.57168 251.899069 
L 215.50761 250.163158 
L 219.25133 251.267516 
L 222.99505 251.503443 
L 223.93098 252.001716 
L 227.6747 254.520801 
L 233.29028 258.385917 
L 234.22621 258.700469 
L 247.32923 257.865328 
L 248.26516 257.417662 
L 257.62446 256.224079 
L 259.49632 256.990804 
L 260.43225 257.163848 
L 266.04783 257.003932 
L 266.98376 257.411281 
L 272.59934 256.346388 
L 275.40713 255.05478 
L 276.34306 254.849243 
L 279.15085 256.551041 
L 280.08678 257.527486 
L 285.70236 266.526644 
L 286.63829 270.043739 
L 291.31794 270.901409 
L 306.29282 273.017572 
L 307.22875 270.020244 
L 315.65212 271.031019 
L 321.2677 271.75392 
L 322.20363 273.019072 
L 330.627 273.691962 
L 353.08932 275.13579 
L 354.02525 273.144304 
L 356.83304 261.249297 
L 357.76897 272.800718 
L 358.7049 276.398771 
L 360.57676 276.635014 
L 372.74385 277.502897 
L 398.94989 278.966456 
L 401.75768 279.110197 
L 402.69361 278.142656 
L 403.62954 274.450746 
L 404.56547 274.164422 
L 407.37326 276.242467 
L 411.11698 278.293957 
L 412.98884 279.068533 
L 413.92477 279.202026 
L 424.22 278.8916 
L 424.22 278.8916 
" style="fill:none;stroke:#ffc20e;stroke-linecap:square;"/>
   <g id="patch_3">
    <path d="M 49.848 285.96 
L 49.848 22.96 
" style="fill:none;stroke:#000000;stroke-linecap:square;stroke-linejoin:miter;stroke-width:0.8;"/>
   </g>
   <g id="patch_4">
    <path d="M 424.22 285.96 
L 424.22 22.96 
" style="fill:none;stroke:#000000;stroke-linecap:square;stroke-linejoin:miter;stroke-width:0.8;"/>
   </g>
   <g id="patch_5">
    <path d="M 49.848 285.96 
L 424.22 285.96 
" style="fill:none;stroke:#000000;stroke-linecap:square;stroke-linejoin:miter;stroke-width:0.8;"/>
   </g>
   <g id="patch_6">
    <path d="M 49.848 22.96 
L 424.22 22.96 
" style="fill:none;stroke:#000000;stroke-linecap:square;stroke-linejoin:miter;stroke-width:0.8;"/>
   </g>
   <g id="text_17">
    <g id="patch_7">
     <path clip-path="url(#p774e66444d)" d="M 231.154 42.23375 
L 242.914 42.23375 
Q 245.314 42.23375 245.314 39.83375 
L 245.314 28.22 
Q 245.314 25.82 242.914 25.82 
L 231.154 25.82 
Q 228.754 25.82 228.754 28.22 
L 228.754 39.83375 
Q 228.754 42.23375 231.154 42.23375 
z
" style="fill:#ffffff;stroke:#ffffff;stroke-linejoin:miter;"/>
    </g>
    <path clip-path="url(#p774e66444d)" d="M 233.522125 33.685625 
Q 232.888375 33.545 232.61275 33.164375 
Q 232.408375 32.89625 232.408375 32.5325 
Q 232.408375 31.536875 233.357125 30.955625 
Q 234.107125 30.498125 235.2565 30.498125 
Q 235.700875 30.498125 236.1865 30.569375 
Q 236.674 30.63875 237.21775 30.779375 
L 237.03025 31.758125 
Q 236.492125 31.589375 236.04025 31.5125 
Q 235.577125 31.435625 235.16275 31.435625 
Q 234.46525 31.435625 234.00775 31.705625 
Q 233.4565 32.028125 233.4565 32.496875 
Q 233.4565 32.808125 233.743375 33.02375 
Q 234.084625 33.2825 234.763375 33.2825 
L 235.670875 33.2825 
L 235.502125 34.173125 
L 234.634 34.173125 
Q 233.825875 34.173125 233.3515 34.47125 
Q 232.7065 34.87625 232.7065 35.508125 
Q 232.7065 35.9075 233.053375 36.17 
Q 233.4865 36.498125 234.3715 36.498125 
Q 234.91525 36.498125 235.4365 36.393125 
Q 235.959625 36.2825 236.41525 36.065 
L 236.2165 37.068125 
Q 235.659625 37.23125 235.149625 37.31375 
Q 234.639625 37.39625 234.170875 37.39625 
Q 232.77775 37.39625 232.1215 36.861875 
Q 231.62275 36.45125 231.62275 35.76125 
Q 231.62275 34.829375 232.279 34.255625 
Q 232.764625 33.82625 233.522125 33.685625 
z
M 238.464578 33.07025 
L 241.983391 33.07025 
L 241.983391 33.7685 
L 239.292766 33.7685 
L 239.292766 35.573188 
L 241.720891 35.573188 
L 241.720891 36.270125 
L 239.292766 36.270125 
L 239.292766 39.194375 
L 238.464578 39.194375 
z
"/>
   </g>
   <g id="text_18">
    <path d="M 182.41775 6.5925 
L 182.41775 10.975 
L 184.40275 10.975 
Q 185.50525 10.975 186.10525 10.405 
Q 186.70775 9.835 186.70775 8.78 
Q 186.70775 7.7325 186.10525 7.1625 
Q 185.50525 6.5925 184.40275 6.5925 
z
M 180.84025 5.295 
L 184.40275 5.295 
Q 186.36525 5.295 187.36775 6.1825 
Q 188.37275 7.07 188.37275 8.78 
Q 188.37275 10.5075 187.36775 11.39 
Q 186.36525 12.2725 184.40275 12.2725 
L 182.41775 12.2725 
L 182.41775 16.96 
L 180.84025 16.96 
z
M 195.493687 9.5525 
Q 195.251187 9.4125 194.966187 9.3475 
Q 194.681187 9.28 194.338687 9.28 
Q 193.118687 9.28 192.466187 10.0725 
Q 191.813687 10.865 191.813687 12.35 
L 191.813687 16.96 
L 190.368687 16.96 
L 190.368687 8.21 
L 191.813687 8.21 
L 191.813687 9.57 
Q 192.268687 8.7725 192.993687 8.3875 
Q 193.721187 8 194.761187 8 
Q 194.908687 8 195.088687 8.02 
Q 195.268687 8.0375 195.486187 8.0775 
z
M 200.386812 9.2175 
Q 199.231812 9.2175 198.559312 10.12 
Q 197.886812 11.0225 197.886812 12.5925 
Q 197.886812 14.1625 198.554312 15.065 
Q 199.224312 15.9675 200.386812 15.9675 
Q 201.536812 15.9675 202.206812 15.0625 
Q 202.879312 14.155 202.879312 12.5925 
Q 202.879312 11.0375 202.206812 10.1275 
Q 201.536812 9.2175 200.386812 9.2175 
z
M 200.386812 8 
Q 202.261812 8 203.331812 9.22 
Q 204.404312 10.4375 204.404312 12.5925 
Q 204.404312 14.74 203.331812 15.965 
Q 202.261812 17.1875 200.386812 17.1875 
Q 198.504312 17.1875 197.436812 15.965 
Q 196.371812 14.74 196.371812 12.5925 
Q 196.371812 10.4375 197.436812 9.22 
Q 198.504312 8 200.386812 8 
z
M 206.785875 8.21 
L 208.223375 8.21 
L 208.223375 17.1175 
Q 208.223375 18.7875 207.585875 19.5375 
Q 206.950875 20.2875 205.535875 20.2875 
L 204.988375 20.2875 
L 204.988375 19.07 
L 205.373375 19.07 
Q 206.193375 19.07 206.488375 18.69 
Q 206.785875 18.3125 206.785875 17.1175 
z
M 206.785875 4.8025 
L 208.223375 4.8025 
L 208.223375 6.625 
L 206.785875 6.625 
z
M 218.716187 12.225 
L 218.716187 12.9275 
L 212.106187 12.9275 
Q 212.201187 14.4125 213.001187 15.19 
Q 213.801187 15.9675 215.231187 15.9675 
Q 216.058687 15.9675 216.836187 15.765 
Q 217.613687 15.5625 218.381187 15.155 
L 218.381187 16.515 
Q 217.606187 16.8425 216.793687 17.015 
Q 215.981187 17.1875 215.146187 17.1875 
Q 213.051187 17.1875 211.828687 15.97 
Q 210.606187 14.75 210.606187 12.67 
Q 210.606187 10.5225 211.766187 9.2625 
Q 212.926187 8 214.896187 8 
Q 216.661187 8 217.688687 9.1375 
Q 218.716187 10.2725 218.716187 12.225 
z
M 217.278687 11.8025 
Q 217.263687 10.625 216.618687 9.9225 
Q 215.973687 9.2175 214.911187 9.2175 
Q 213.708687 9.2175 212.986187 9.8975 
Q 212.263687 10.5775 212.153687 11.8125 
z
M 227.372437 8.545 
L 227.372437 9.89 
Q 226.762437 9.5525 226.149937 9.385 
Q 225.537437 9.2175 224.912437 9.2175 
Q 223.512437 9.2175 222.737437 10.105 
Q 221.964937 10.99 221.964937 12.5925 
Q 221.964937 14.195 222.737437 15.0825 
Q 223.512437 15.9675 224.912437 15.9675 
Q 225.537437 15.9675 226.149937 15.8 
Q 226.762437 15.6325 227.372437 15.295 
L 227.372437 16.625 
Q 226.769937 16.905 226.124937 17.045 
Q 225.482437 17.1875 224.754937 17.1875 
Q 222.777437 17.1875 221.612437 15.945 
Q 220.449937 14.7025 220.449937 12.5925 
Q 220.449937 10.4525 221.624937 9.2275 
Q 222.802437 8 224.849937 8 
Q 225.512437 8 226.144937 8.1375 
Q 226.777437 8.2725 227.372437 8.545 
z
M 231.294312 5.725 
L 231.294312 8.21 
L 234.254312 8.21 
L 234.254312 9.3275 
L 231.294312 9.3275 
L 231.294312 14.0775 
Q 231.294312 15.1475 231.586812 15.4525 
Q 231.879312 15.7575 232.779312 15.7575 
L 234.254312 15.7575 
L 234.254312 16.96 
L 232.779312 16.96 
Q 231.114312 16.96 230.481812 16.34 
Q 229.849312 15.7175 229.849312 14.0775 
L 229.849312 9.3275 
L 228.794312 9.3275 
L 228.794312 8.21 
L 229.849312 8.21 
L 229.849312 5.725 
z
M 243.63025 12.225 
L 243.63025 12.9275 
L 237.02025 12.9275 
Q 237.11525 14.4125 237.91525 15.19 
Q 238.71525 15.9675 240.14525 15.9675 
Q 240.97275 15.9675 241.75025 15.765 
Q 242.52775 15.5625 243.29525 15.155 
L 243.29525 16.515 
Q 242.52025 16.8425 241.70775 17.015 
Q 240.89525 17.1875 240.06025 17.1875 
Q 237.96525 17.1875 236.74275 15.97 
Q 235.52025 14.75 235.52025 12.67 
Q 235.52025 10.5225 236.68025 9.2625 
Q 237.84025 8 239.81025 8 
Q 241.57525 8 242.60275 9.1375 
Q 243.63025 10.2725 243.63025 12.225 
z
M 242.19275 11.8025 
Q 242.17775 10.625 241.53275 9.9225 
Q 240.88775 9.2175 239.82525 9.2175 
Q 238.62275 9.2175 237.90025 9.8975 
Q 237.17775 10.5775 237.06775 11.8125 
z
M 251.7465 9.5375 
L 251.7465 4.8025 
L 253.184 4.8025 
L 253.184 16.96 
L 251.7465 16.96 
L 251.7465 15.6475 
Q 251.294 16.4275 250.6015 16.8075 
Q 249.9115 17.1875 248.9415 17.1875 
Q 247.3565 17.1875 246.359 15.9225 
Q 245.364 14.655 245.364 12.5925 
Q 245.364 10.53 246.359 9.265 
Q 247.3565 8 248.9415 8 
Q 249.9115 8 250.6015 8.38 
Q 251.294 8.7575 251.7465 9.5375 
z
M 246.849 12.5925 
Q 246.849 14.1775 247.5015 15.08 
Q 248.154 15.9825 249.294 15.9825 
Q 250.434 15.9825 251.089 15.08 
Q 251.7465 14.1775 251.7465 12.5925 
Q 251.7465 11.0075 251.089 10.105 
Q 250.434 9.2025 249.294 9.2025 
Q 248.154 9.2025 247.5015 10.105 
Q 246.849 11.0075 246.849 12.5925 
z
M 262.871187 6.5925 
L 262.871187 15.6625 
L 264.778687 15.6625 
Q 267.193688 15.6625 268.313687 14.57 
Q 269.433687 13.475 269.433687 11.115 
Q 269.433687 8.7725 268.313687 7.6825 
Q 267.193688 6.5925 264.778687 6.5925 
z
M 261.293687 5.295 
L 264.536187 5.295 
Q 267.926187 5.295 269.511188 6.705 
Q 271.098687 8.115 271.098687 11.115 
Q 271.098687 14.1325 269.503687 15.5475 
Q 267.911187 16.96 264.536187 16.96 
L 261.293687 16.96 
z
M 278.349 6.365 
Q 276.629 6.365 275.6165 7.6475 
Q 274.6065 8.9275 274.6065 11.14 
Q 274.6065 13.3425 275.6165 14.625 
Q 276.629 15.905 278.349 15.905 
Q 280.0665 15.905 281.0715 14.625 
Q 282.0765 13.3425 282.0765 11.14 
Q 282.0765 8.9275 281.0715 7.6475 
Q 280.0665 6.365 278.349 6.365 
z
M 278.349 5.085 
Q 280.8015 5.085 282.269 6.73 
Q 283.739 8.375 283.739 11.14 
Q 283.739 13.8975 282.269 15.5425 
Q 280.8015 17.1875 278.349 17.1875 
Q 275.889 17.1875 274.414 15.5475 
Q 272.9415 13.905 272.9415 11.14 
Q 272.9415 8.375 274.414 6.73 
Q 275.889 5.085 278.349 5.085 
z
M 293.20025 5.6775 
L 293.20025 7.2175 
Q 292.30275 6.7875 291.50525 6.5775 
Q 290.70775 6.365 289.96525 6.365 
Q 288.67775 6.365 287.97775 6.865 
Q 287.27775 7.365 287.27775 8.2875 
Q 287.27775 9.0625 287.74275 9.4575 
Q 288.20775 9.85 289.50525 10.0925 
L 290.45775 10.2875 
Q 292.22275 10.625 293.06275 11.4725 
Q 293.90275 12.32 293.90275 13.74 
Q 293.90275 15.4375 292.76525 16.3125 
Q 291.63025 17.1875 289.43525 17.1875 
Q 288.60775 17.1875 287.67275 17 
Q 286.74025 16.8125 285.74025 16.445 
L 285.74025 14.82 
Q 286.70025 15.3575 287.62275 15.6325 
Q 288.54525 15.905 289.43525 15.905 
Q 290.78525 15.905 291.52025 15.375 
Q 292.25525 14.8425 292.25525 13.8575 
Q 292.25525 13 291.72775 12.515 
Q 291.20025 12.03 289.99775 11.7875 
L 289.03525 11.6 
Q 287.27025 11.25 286.48025 10.5 
Q 285.69275 9.75 285.69275 8.4125 
Q 285.69275 6.865 286.78275 5.975 
Q 287.87275 5.085 289.78525 5.085 
Q 290.60775 5.085 291.45775 5.235 
Q 292.31025 5.3825 293.20025 5.6775 
z
"/>
   </g>
   <g id="legend_1">
    <g id="patch_8">
     <path d="M 329.735625 119.02875 
L 417.22 119.02875 
Q 419.22 119.02875 419.22 117.02875 
L 419.22 29.96 
Q 419.22 27.96 417.22 27.96 
L 329.735625 27.96 
Q 327.735625 27.96 327.735625 29.96 
L 327.735625 117.02875 
Q 327.735625 119.02875 329.735625 119.02875 
z
" style="fill:#ffffff;opacity:0.8;stroke:#cccccc;stroke-linejoin:miter;"/>
    </g>
    <path d="M 331.735625 36.058438 
L 351.735625 36.058438 
" style="fill:none;stroke:#000000;stroke-dasharray:3.7,1.6;stroke-dashoffset:0;"/>
    <g id="text_19">
     <!-- Zero -->
     <defs>
      <path d="M 5.609375 72.90625 
L 62.890625 72.90625 
L 62.890625 65.375 
L 16.796875 8.296875 
L 64.015625 8.296875 
L 64.015625 0 
L 4.5 0 
L 4.5 7.515625 
L 50.59375 64.59375 
L 5.609375 64.59375 
z
" id="DejaVuSans-90"/>
      <path d="M 56.203125 29.59375 
L 56.203125 25.203125 
L 14.890625 25.203125 
Q 15.484375 15.921875 20.484375 11.0625 
Q 25.484375 6.203125 34.421875 6.203125 
Q 39.59375 6.203125 44.453125 7.46875 
Q 49.3125 8.734375 54.109375 11.28125 
L 54.109375 2.78125 
Q 49.265625 0.734375 44.1875 -0.34375 
Q 39.109375 -1.421875 33.890625 -1.421875 
Q 20.796875 -1.421875 13.15625 6.1875 
Q 5.515625 13.8125 5.515625 26.8125 
Q 5.515625 40.234375 12.765625 48.109375 
Q 20.015625 56 32.328125 56 
Q 43.359375 56 49.78125 48.890625 
Q 56.203125 41.796875 56.203125 29.59375 
z
M 47.21875 32.234375 
Q 47.125 39.59375 43.09375 43.984375 
Q 39.0625 48.390625 32.421875 48.390625 
Q 24.90625 48.390625 20.390625 44.140625 
Q 15.875 39.890625 15.1875 32.171875 
z
" id="DejaVuSans-101"/>
      <path d="M 41.109375 46.296875 
Q 39.59375 47.171875 37.8125 47.578125 
Q 36.03125 48 33.890625 48 
Q 26.265625 48 22.1875 43.046875 
Q 18.109375 38.09375 18.109375 28.8125 
L 18.109375 0 
L 9.078125 0 
L 9.078125 54.6875 
L 18.109375 54.6875 
L 18.109375 46.1875 
Q 20.953125 51.171875 25.484375 53.578125 
Q 30.03125 56 36.53125 56 
Q 37.453125 56 38.578125 55.875 
Q 39.703125 55.765625 41.0625 55.515625 
z
" id="DejaVuSans-114"/>
      <path d="M 30.609375 48.390625 
Q 23.390625 48.390625 19.1875 42.75 
Q 14.984375 37.109375 14.984375 27.296875 
Q 14.984375 17.484375 19.15625 11.84375 
Q 23.34375 6.203125 30.609375 6.203125 
Q 37.796875 6.203125 41.984375 11.859375 
Q 46.1875 17.53125 46.1875 27.296875 
Q 46.1875 37.015625 41.984375 42.703125 
Q 37.796875 48.390625 30.609375 48.390625 
z
M 30.609375 56 
Q 42.328125 56 49.015625 48.375 
Q 55.71875 40.765625 55.71875 27.296875 
Q 55.71875 13.875 49.015625 6.21875 
Q 42.328125 -1.421875 30.609375 -1.421875 
Q 18.84375 -1.421875 12.171875 6.21875 
Q 5.515625 13.875 5.515625 27.296875 
Q 5.515625 40.765625 12.171875 48.375 
Q 18.84375 56 30.609375 56 
z
" id="DejaVuSans-111"/>
     </defs>
     <g transform="translate(359.735625 39.558438)scale(0.1 -0.1)">
      <use xlink:href="#DejaVuSans-90"/>
      <use x="68.505859" xlink:href="#DejaVuSans-101"/>
      <use x="130.029297" xlink:href="#DejaVuSans-114"/>
      <use x="171.111328" xlink:href="#DejaVuSans-111"/>
     </g>
    </g>
    <path d="M 331.735625 50.736563 
L 351.735625 50.736563 
" style="fill:none;stroke:#008000;stroke-dasharray:1,1.65;stroke-dashoffset:0;"/>
    <g id="text_20">
     <!-- Fermi level -->
     <defs>
      <path d="M 9.8125 72.90625 
L 51.703125 72.90625 
L 51.703125 64.59375 
L 19.671875 64.59375 
L 19.671875 43.109375 
L 48.578125 43.109375 
L 48.578125 34.8125 
L 19.671875 34.8125 
L 19.671875 0 
L 9.8125 0 
z
" id="DejaVuSans-70"/>
      <path d="M 52 44.1875 
Q 55.375 50.25 60.0625 53.125 
Q 64.75 56 71.09375 56 
Q 79.640625 56 84.28125 50.015625 
Q 88.921875 44.046875 88.921875 33.015625 
L 88.921875 0 
L 79.890625 0 
L 79.890625 32.71875 
Q 79.890625 40.578125 77.09375 44.375 
Q 74.3125 48.1875 68.609375 48.1875 
Q 61.625 48.1875 57.5625 43.546875 
Q 53.515625 38.921875 53.515625 30.90625 
L 53.515625 0 
L 44.484375 0 
L 44.484375 32.71875 
Q 44.484375 40.625 41.703125 44.40625 
Q 38.921875 48.1875 33.109375 48.1875 
Q 26.21875 48.1875 22.15625 43.53125 
Q 18.109375 38.875 18.109375 30.90625 
L 18.109375 0 
L 9.078125 0 
L 9.078125 54.6875 
L 18.109375 54.6875 
L 18.109375 46.1875 
Q 21.1875 51.21875 25.484375 53.609375 
Q 29.78125 56 35.6875 56 
Q 41.65625 56 45.828125 52.96875 
Q 50 49.953125 52 44.1875 
z
" id="DejaVuSans-109"/>
      <path d="M 9.421875 54.6875 
L 18.40625 54.6875 
L 18.40625 0 
L 9.421875 0 
z
M 9.421875 75.984375 
L 18.40625 75.984375 
L 18.40625 64.59375 
L 9.421875 64.59375 
z
" id="DejaVuSans-105"/>
      <path id="DejaVuSans-32"/>
      <path d="M 9.421875 75.984375 
L 18.40625 75.984375 
L 18.40625 0 
L 9.421875 0 
z
" id="DejaVuSans-108"/>
      <path d="M 2.984375 54.6875 
L 12.5 54.6875 
L 29.59375 8.796875 
L 46.6875 54.6875 
L 56.203125 54.6875 
L 35.6875 0 
L 23.484375 0 
z
" id="DejaVuSans-118"/>
     </defs>
     <g transform="translate(359.735625 54.236563)scale(0.1 -0.1)">
      <use xlink:href="#DejaVuSans-70"/>
      <use x="57.441406" xlink:href="#DejaVuSans-101"/>
      <use x="118.964844" xlink:href="#DejaVuSans-114"/>
      <use x="160.0625" xlink:href="#DejaVuSans-109"/>
      <use x="257.474609" xlink:href="#DejaVuSans-105"/>
      <use x="285.257812" xlink:href="#DejaVuSans-32"/>
      <use x="317.044922" xlink:href="#DejaVuSans-108"/>
      <use x="344.828125" xlink:href="#DejaVuSans-101"/>
      <use x="406.351562" xlink:href="#DejaVuSans-118"/>
      <use x="465.53125" xlink:href="#DejaVuSans-101"/>
      <use x="527.054688" xlink:href="#DejaVuSans-108"/>
     </g>
    </g>
    <path d="M 331.735625 65.414688 
L 351.735625 65.414688 
" style="fill:none;stroke:#000000;stroke-linecap:square;stroke-width:1.5;"/>
    <g id="text_21">
     <!-- Total -->
     <defs>
      <path d="M -0.296875 72.90625 
L 61.375 72.90625 
L 61.375 64.59375 
L 35.5 64.59375 
L 35.5 0 
L 25.59375 0 
L 25.59375 64.59375 
L -0.296875 64.59375 
z
" id="DejaVuSans-84"/>
      <path d="M 18.3125 70.21875 
L 18.3125 54.6875 
L 36.8125 54.6875 
L 36.8125 47.703125 
L 18.3125 47.703125 
L 18.3125 18.015625 
Q 18.3125 11.328125 20.140625 9.421875 
Q 21.96875 7.515625 27.59375 7.515625 
L 36.8125 7.515625 
L 36.8125 0 
L 27.59375 0 
Q 17.1875 0 13.234375 3.875 
Q 9.28125 7.765625 9.28125 18.015625 
L 9.28125 47.703125 
L 2.6875 47.703125 
L 2.6875 54.6875 
L 9.28125 54.6875 
L 9.28125 70.21875 
z
" id="DejaVuSans-116"/>
      <path d="M 34.28125 27.484375 
Q 23.390625 27.484375 19.1875 25 
Q 14.984375 22.515625 14.984375 16.5 
Q 14.984375 11.71875 18.140625 8.90625 
Q 21.296875 6.109375 26.703125 6.109375 
Q 34.1875 6.109375 38.703125 11.40625 
Q 43.21875 16.703125 43.21875 25.484375 
L 43.21875 27.484375 
z
M 52.203125 31.203125 
L 52.203125 0 
L 43.21875 0 
L 43.21875 8.296875 
Q 40.140625 3.328125 35.546875 0.953125 
Q 30.953125 -1.421875 24.3125 -1.421875 
Q 15.921875 -1.421875 10.953125 3.296875 
Q 6 8.015625 6 15.921875 
Q 6 25.140625 12.171875 29.828125 
Q 18.359375 34.515625 30.609375 34.515625 
L 43.21875 34.515625 
L 43.21875 35.40625 
Q 43.21875 41.609375 39.140625 45 
Q 35.0625 48.390625 27.6875 48.390625 
Q 23 48.390625 18.546875 47.265625 
Q 14.109375 46.140625 10.015625 43.890625 
L 10.015625 52.203125 
Q 14.9375 54.109375 19.578125 55.046875 
Q 24.21875 56 28.609375 56 
Q 40.484375 56 46.34375 49.84375 
Q 52.203125 43.703125 52.203125 31.203125 
z
" id="DejaVuSans-97"/>
     </defs>
     <g transform="translate(359.735625 68.914688)scale(0.1 -0.1)">
      <use xlink:href="#DejaVuSans-84"/>
      <use x="60.818359" xlink:href="#DejaVuSans-111"/>
      <use x="122" xlink:href="#DejaVuSans-116"/>
      <use x="161.208984" xlink:href="#DejaVuSans-97"/>
      <use x="222.488281" xlink:href="#DejaVuSans-108"/>
     </g>
    </g>
    <path d="M 331.735625 80.092813 
L 351.735625 80.092813 
" style="fill:none;stroke:#0a3b76;stroke-linecap:square;"/>
    <g id="text_22">
     <!-- Site 1 -->
     <defs>
      <path d="M 53.515625 70.515625 
L 53.515625 60.890625 
Q 47.90625 63.578125 42.921875 64.890625 
Q 37.9375 66.21875 33.296875 66.21875 
Q 25.25 66.21875 20.875 63.09375 
Q 16.5 59.96875 16.5 54.203125 
Q 16.5 49.359375 19.40625 46.890625 
Q 22.3125 44.4375 30.421875 42.921875 
L 36.375 41.703125 
Q 47.40625 39.59375 52.65625 34.296875 
Q 57.90625 29 57.90625 20.125 
Q 57.90625 9.515625 50.796875 4.046875 
Q 43.703125 -1.421875 29.984375 -1.421875 
Q 24.8125 -1.421875 18.96875 -0.25 
Q 13.140625 0.921875 6.890625 3.21875 
L 6.890625 13.375 
Q 12.890625 10.015625 18.65625 8.296875 
Q 24.421875 6.59375 29.984375 6.59375 
Q 38.421875 6.59375 43.015625 9.90625 
Q 47.609375 13.234375 47.609375 19.390625 
Q 47.609375 24.75 44.3125 27.78125 
Q 41.015625 30.8125 33.5 32.328125 
L 27.484375 33.5 
Q 16.453125 35.6875 11.515625 40.375 
Q 6.59375 45.0625 6.59375 53.421875 
Q 6.59375 63.09375 13.40625 68.65625 
Q 20.21875 74.21875 32.171875 74.21875 
Q 37.3125 74.21875 42.625 73.28125 
Q 47.953125 72.359375 53.515625 70.515625 
z
" id="DejaVuSans-83"/>
      <path d="M 12.40625 8.296875 
L 28.515625 8.296875 
L 28.515625 63.921875 
L 10.984375 60.40625 
L 10.984375 69.390625 
L 28.421875 72.90625 
L 38.28125 72.90625 
L 38.28125 8.296875 
L 54.390625 8.296875 
L 54.390625 0 
L 12.40625 0 
z
" id="DejaVuSans-49"/>
     </defs>
     <g transform="translate(359.735625 83.592813)scale(0.1 -0.1)">
      <use xlink:href="#DejaVuSans-83"/>
      <use x="63.476562" xlink:href="#DejaVuSans-105"/>
      <use x="91.259766" xlink:href="#DejaVuSans-116"/>
      <use x="130.46875" xlink:href="#DejaVuSans-101"/>
      <use x="191.992188" xlink:href="#DejaVuSans-32"/>
      <use x="223.779297" xlink:href="#DejaVuSans-49"/>
     </g>
    </g>
    <path d="M 331.735625 94.770938 
L 351.735625 94.770938 
" style="fill:none;stroke:#74a402;stroke-linecap:square;"/>
    <g id="text_23">
     <!-- Site 2 -->
     <defs>
      <path d="M 19.1875 8.296875 
L 53.609375 8.296875 
L 53.609375 0 
L 7.328125 0 
L 7.328125 8.296875 
Q 12.9375 14.109375 22.625 23.890625 
Q 32.328125 33.6875 34.8125 36.53125 
Q 39.546875 41.84375 41.421875 45.53125 
Q 43.3125 49.21875 43.3125 52.78125 
Q 43.3125 58.59375 39.234375 62.25 
Q 35.15625 65.921875 28.609375 65.921875 
Q 23.96875 65.921875 18.8125 64.3125 
Q 13.671875 62.703125 7.8125 59.421875 
L 7.8125 69.390625 
Q 13.765625 71.78125 18.9375 73 
Q 24.125 74.21875 28.421875 74.21875 
Q 39.75 74.21875 46.484375 68.546875 
Q 53.21875 62.890625 53.21875 53.421875 
Q 53.21875 48.921875 51.53125 44.890625 
Q 49.859375 40.875 45.40625 35.40625 
Q 44.1875 33.984375 37.640625 27.21875 
Q 31.109375 20.453125 19.1875 8.296875 
z
" id="DejaVuSans-50"/>
     </defs>
     <g transform="translate(359.735625 98.270938)scale(0.1 -0.1)">
      <use xlink:href="#DejaVuSans-83"/>
      <use x="63.476562" xlink:href="#DejaVuSans-105"/>
      <use x="91.259766" xlink:href="#DejaVuSans-116"/>
      <use x="130.46875" xlink:href="#DejaVuSans-101"/>
      <use x="191.992188" xlink:href="#DejaVuSans-32"/>
      <use x="223.779297" xlink:href="#DejaVuSans-50"/>
     </g>
    </g>
    <path d="M 331.735625 109.449063 
L 351.735625 109.449063 
" style="fill:none;stroke:#ffc20e;stroke-linecap:square;"/>
    <g id="text_24">
     <!-- Site 4 -->
     <defs>
      <path d="M 37.796875 64.3125 
L 12.890625 25.390625 
L 37.796875 25.390625 
z
M 35.203125 72.90625 
L 47.609375 72.90625 
L 47.609375 25.390625 
L 58.015625 25.390625 
L 58.015625 17.1875 
L 47.609375 17.1875 
L 47.609375 0 
L 37.796875 0 
L 37.796875 17.1875 
L 4.890625 17.1875 
L 4.890625 26.703125 
z
" id="DejaVuSans-52"/>
     </defs>
     <g transform="translate(359.735625 112.949063)scale(0.1 -0.1)">
      <use xlink:href="#DejaVuSans-83"/>
      <use x="63.476562" xlink:href="#DejaVuSans-105"/>
      <use x="91.259766" xlink:href="#DejaVuSans-116"/>
      <use x="130.46875" xlink:href="#DejaVuSans-101"/>
      <use x="191.992188" xlink:href="#DejaVuSans-32"/>
      <use x="223.779297" xlink:href="#DejaVuSans-52"/>
     </g>
    </g>
   </g>
  </g>
 </g>
 <defs>
  <clipPath id="p774e66444d">
   <rect height="263" width="374.372" x="49.848" y="22.96"/>
  </clipPath>
 </defs>
</svg>
