<?xml version="1.0" encoding="utf-8" standalone="no"?>
<!DOCTYPE svg PUBLIC "-//W3C//DTD SVG 1.1//EN"
  "http://www.w3.org/Graphics/SVG/1.1/DTD/svg11.dtd">
<!-- Created with matplotlib (https://matplotlib.org/) -->
<svg height="325.44pt" version="1.1" viewBox="0 0 437.76 325.44" width="437.76pt" xmlns="http://www.w3.org/2000/svg" xmlns:xlink="http://www.w3.org/1999/xlink">
 <defs>
  <style type="text/css">
*{stroke-linecap:butt;stroke-linejoin:round;white-space:pre;}
  </style>
 </defs>
 <g id="figure_1">
  <g id="patch_1">
   <path d="M 0 325.44 
L 437.76 325.44 
L 437.76 0 
L 0 0 
z
" style="fill:#ffffff;"/>
  </g>
  <g id="axes_1">
   <g id="patch_2">
    <path d="M 49.848 285.96 
L 424.22 285.96 
L 424.22 22.96 
L 49.848 22.96 
z
" style="fill:#ffffff;"/>
   </g>
   <path clip-path="url(#p0f6475c673)" d="M 49.848 285.96 
L 424.22 285.96 
" style="fill:none;stroke:#000000;stroke-dasharray:3.7,1.6;stroke-dashoffset:0;"/>
   <path clip-path="url(#p0f6475c673)" d="M 237.034 285.96 
L 237.034 22.96 
" style="fill:none;stroke:#008000;stroke-dasharray:1,1.65;stroke-dashoffset:0;"/>
   <g id="matplotlib.axis_1">
    <g id="xtick_1">
     <g id="line2d_1">
      <defs>
       <path d="M 0 0 
L 0 3.5 
" id="mf5c3397433" style="stroke:#000000;stroke-width:0.8;"/>
      </defs>
      <g>
       <use style="stroke:#000000;stroke-width:0.8;" x="49.848" xlink:href="#mf5c3397433" y="285.96"/>
      </g>
     </g>
     <g id="text_1">
      <path d="M 36.549563 297.818125 
L 44.060813 297.818125 
L 44.060813 298.81375 
L 36.549563 298.81375 
z
M 47.6355 301.0825 
L 51.766125 301.0825 
L 51.766125 302.078125 
L 46.212375 302.078125 
L 46.212375 301.0825 
Q 46.8855 300.385 48.048 299.21125 
Q 49.212375 298.035625 49.5105 297.694375 
Q 50.078625 297.056875 50.303625 296.614375 
Q 50.5305 296.171875 50.5305 295.744375 
Q 50.5305 295.046875 50.041125 294.608125 
Q 49.55175 294.1675 48.766125 294.1675 
Q 48.20925 294.1675 47.5905 294.360625 
Q 46.973625 294.55375 46.2705 294.9475 
L 46.2705 293.75125 
Q 46.984875 293.464375 47.6055 293.318125 
Q 48.228 293.171875 48.743625 293.171875 
Q 50.103 293.171875 50.911125 293.8525 
Q 51.71925 294.53125 51.71925 295.6675 
Q 51.71925 296.2075 51.51675 296.69125 
Q 51.316125 297.173125 50.78175 297.829375 
Q 50.6355 298 49.849875 298.811875 
Q 49.066125 299.62375 47.6355 301.0825 
z
M 54.250266 300.589375 
L 55.487766 300.589375 
L 55.487766 302.078125 
L 54.250266 302.078125 
z
M 60.595969 294.109375 
Q 59.682844 294.109375 59.221594 295.009375 
Q 58.762219 295.9075 58.762219 297.713125 
Q 58.762219 299.51125 59.221594 300.41125 
Q 59.682844 301.31125 60.595969 301.31125 
Q 61.516594 301.31125 61.975969 300.41125 
Q 62.437219 299.51125 62.437219 297.713125 
Q 62.437219 295.9075 61.975969 295.009375 
Q 61.516594 294.109375 60.595969 294.109375 
z
M 60.595969 293.171875 
Q 62.067844 293.171875 62.844094 294.33625 
Q 63.620344 295.49875 63.620344 297.713125 
Q 63.620344 299.921875 62.844094 301.08625 
Q 62.067844 302.24875 60.595969 302.24875 
Q 59.125969 302.24875 58.349719 301.08625 
Q 57.573469 299.921875 57.573469 297.713125 
Q 57.573469 295.49875 58.349719 294.33625 
Q 59.125969 293.171875 60.595969 293.171875 
z
"/>
     </g>
    </g>
    <g id="xtick_2">
     <g id="line2d_2">
      <g>
       <use style="stroke:#000000;stroke-width:0.8;" x="96.6445" xlink:href="#mf5c3397433" y="285.96"/>
      </g>
     </g>
     <g id="text_2">
      <path d="M 83.346062 297.818125 
L 90.857312 297.818125 
L 90.857312 298.81375 
L 83.346062 298.81375 
z
M 93.61825 301.0825 
L 95.551375 301.0825 
L 95.551375 294.4075 
L 93.447625 294.829375 
L 93.447625 293.75125 
L 95.540125 293.329375 
L 96.72325 293.329375 
L 96.72325 301.0825 
L 98.656375 301.0825 
L 98.656375 302.078125 
L 93.61825 302.078125 
z
M 101.046766 300.589375 
L 102.284266 300.589375 
L 102.284266 302.078125 
L 101.046766 302.078125 
z
M 104.874344 293.329375 
L 109.520594 293.329375 
L 109.520594 294.326875 
L 105.958094 294.326875 
L 105.958094 296.47 
Q 106.214969 296.381875 106.471844 296.33875 
Q 106.730594 296.295625 106.989344 296.295625 
Q 108.453719 296.295625 109.308719 297.098125 
Q 110.165594 297.900625 110.165594 299.27125 
Q 110.165594 300.683125 109.286219 301.466875 
Q 108.406844 302.24875 106.807469 302.24875 
Q 106.256219 302.24875 105.684344 302.155 
Q 105.114344 302.06125 104.504969 301.87375 
L 104.504969 300.683125 
Q 105.031844 300.97 105.594344 301.110625 
Q 106.156844 301.25125 106.783094 301.25125 
Q 107.797469 301.25125 108.388094 300.71875 
Q 108.980594 300.18625 108.980594 299.27125 
Q 108.980594 298.358125 108.388094 297.825625 
Q 107.797469 297.29125 106.783094 297.29125 
Q 106.308719 297.29125 105.836219 297.39625 
Q 105.365594 297.50125 104.874344 297.724375 
z
"/>
     </g>
    </g>
    <g id="xtick_3">
     <g id="line2d_3">
      <g>
       <use style="stroke:#000000;stroke-width:0.8;" x="143.441" xlink:href="#mf5c3397433" y="285.96"/>
      </g>
     </g>
     <g id="text_3">
      <path d="M 130.142563 297.818125 
L 137.653813 297.818125 
L 137.653813 298.81375 
L 130.142563 298.81375 
z
M 140.41475 301.0825 
L 142.347875 301.0825 
L 142.347875 294.4075 
L 140.244125 294.829375 
L 140.244125 293.75125 
L 142.336625 293.329375 
L 143.51975 293.329375 
L 143.51975 301.0825 
L 145.452875 301.0825 
L 145.452875 302.078125 
L 140.41475 302.078125 
z
M 147.843266 300.589375 
L 149.080766 300.589375 
L 149.080766 302.078125 
L 147.843266 302.078125 
z
M 154.188969 294.109375 
Q 153.275844 294.109375 152.814594 295.009375 
Q 152.355219 295.9075 152.355219 297.713125 
Q 152.355219 299.51125 152.814594 300.41125 
Q 153.275844 301.31125 154.188969 301.31125 
Q 155.109594 301.31125 155.568969 300.41125 
Q 156.030219 299.51125 156.030219 297.713125 
Q 156.030219 295.9075 155.568969 295.009375 
Q 155.109594 294.109375 154.188969 294.109375 
z
M 154.188969 293.171875 
Q 155.660844 293.171875 156.437094 294.33625 
Q 157.213344 295.49875 157.213344 297.713125 
Q 157.213344 299.921875 156.437094 301.08625 
Q 155.660844 302.24875 154.188969 302.24875 
Q 152.718969 302.24875 151.942719 301.08625 
Q 151.166469 299.921875 151.166469 297.713125 
Q 151.166469 295.49875 151.942719 294.33625 
Q 152.718969 293.171875 154.188969 293.171875 
z
"/>
     </g>
    </g>
    <g id="xtick_4">
     <g id="line2d_4">
      <g>
       <use style="stroke:#000000;stroke-width:0.8;" x="190.2375" xlink:href="#mf5c3397433" y="285.96"/>
      </g>
     </g>
     <g id="text_4">
      <path d="M 176.939063 297.818125 
L 184.450313 297.818125 
L 184.450313 298.81375 
L 176.939063 298.81375 
z
M 189.53625 294.109375 
Q 188.623125 294.109375 188.161875 295.009375 
Q 187.7025 295.9075 187.7025 297.713125 
Q 187.7025 299.51125 188.161875 300.41125 
Q 188.623125 301.31125 189.53625 301.31125 
Q 190.456875 301.31125 190.91625 300.41125 
Q 191.3775 299.51125 191.3775 297.713125 
Q 191.3775 295.9075 190.91625 295.009375 
Q 190.456875 294.109375 189.53625 294.109375 
z
M 189.53625 293.171875 
Q 191.008125 293.171875 191.784375 294.33625 
Q 192.560625 295.49875 192.560625 297.713125 
Q 192.560625 299.921875 191.784375 301.08625 
Q 191.008125 302.24875 189.53625 302.24875 
Q 188.06625 302.24875 187.29 301.08625 
Q 186.51375 299.921875 186.51375 297.713125 
Q 186.51375 295.49875 187.29 294.33625 
Q 188.06625 293.171875 189.53625 293.171875 
z
M 194.639766 300.589375 
L 195.877266 300.589375 
L 195.877266 302.078125 
L 194.639766 302.078125 
z
M 198.467344 293.329375 
L 203.113594 293.329375 
L 203.113594 294.326875 
L 199.551094 294.326875 
L 199.551094 296.47 
Q 199.807969 296.381875 200.064844 296.33875 
Q 200.323594 296.295625 200.582344 296.295625 
Q 202.046719 296.295625 202.901719 297.098125 
Q 203.758594 297.900625 203.758594 299.27125 
Q 203.758594 300.683125 202.879219 301.466875 
Q 201.999844 302.24875 200.400469 302.24875 
Q 199.849219 302.24875 199.277344 302.155 
Q 198.707344 302.06125 198.097969 301.87375 
L 198.097969 300.683125 
Q 198.624844 300.97 199.187344 301.110625 
Q 199.749844 301.25125 200.376094 301.25125 
Q 201.390469 301.25125 201.981094 300.71875 
Q 202.573594 300.18625 202.573594 299.27125 
Q 202.573594 298.358125 201.981094 297.825625 
Q 201.390469 297.29125 200.376094 297.29125 
Q 199.901719 297.29125 199.429219 297.39625 
Q 198.958594 297.50125 198.467344 297.724375 
z
"/>
     </g>
    </g>
    <g id="xtick_5">
     <g id="line2d_5">
      <g>
       <use style="stroke:#000000;stroke-width:0.8;" x="237.034" xlink:href="#mf5c3397433" y="285.96"/>
      </g>
     </g>
     <g id="text_5">
      <path d="M 231.305875 294.109375 
Q 230.39275 294.109375 229.9315 295.009375 
Q 229.472125 295.9075 229.472125 297.713125 
Q 229.472125 299.51125 229.9315 300.41125 
Q 230.39275 301.31125 231.305875 301.31125 
Q 232.2265 301.31125 232.685875 300.41125 
Q 233.147125 299.51125 233.147125 297.713125 
Q 233.147125 295.9075 232.685875 295.009375 
Q 232.2265 294.109375 231.305875 294.109375 
z
M 231.305875 293.171875 
Q 232.77775 293.171875 233.554 294.33625 
Q 234.33025 295.49875 234.33025 297.713125 
Q 234.33025 299.921875 233.554 301.08625 
Q 232.77775 302.24875 231.305875 302.24875 
Q 229.835875 302.24875 229.059625 301.08625 
Q 228.283375 299.921875 228.283375 297.713125 
Q 228.283375 295.49875 229.059625 294.33625 
Q 229.835875 293.171875 231.305875 293.171875 
z
M 236.409391 300.589375 
L 237.646891 300.589375 
L 237.646891 302.078125 
L 236.409391 302.078125 
z
M 242.755094 294.109375 
Q 241.841969 294.109375 241.380719 295.009375 
Q 240.921344 295.9075 240.921344 297.713125 
Q 240.921344 299.51125 241.380719 300.41125 
Q 241.841969 301.31125 242.755094 301.31125 
Q 243.675719 301.31125 244.135094 300.41125 
Q 244.596344 299.51125 244.596344 297.713125 
Q 244.596344 295.9075 244.135094 295.009375 
Q 243.675719 294.109375 242.755094 294.109375 
z
M 242.755094 293.171875 
Q 244.226969 293.171875 245.003219 294.33625 
Q 245.779469 295.49875 245.779469 297.713125 
Q 245.779469 299.921875 245.003219 301.08625 
Q 244.226969 302.24875 242.755094 302.24875 
Q 241.285094 302.24875 240.508844 301.08625 
Q 239.732594 299.921875 239.732594 297.713125 
Q 239.732594 295.49875 240.508844 294.33625 
Q 241.285094 293.171875 242.755094 293.171875 
z
"/>
     </g>
    </g>
    <g id="xtick_6">
     <g id="line2d_6">
      <g>
       <use style="stroke:#000000;stroke-width:0.8;" x="283.8305" xlink:href="#mf5c3397433" y="285.96"/>
      </g>
     </g>
     <g id="text_6">
      <path d="M 278.102375 294.109375 
Q 277.18925 294.109375 276.728 295.009375 
Q 276.268625 295.9075 276.268625 297.713125 
Q 276.268625 299.51125 276.728 300.41125 
Q 277.18925 301.31125 278.102375 301.31125 
Q 279.023 301.31125 279.482375 300.41125 
Q 279.943625 299.51125 279.943625 297.713125 
Q 279.943625 295.9075 279.482375 295.009375 
Q 279.023 294.109375 278.102375 294.109375 
z
M 278.102375 293.171875 
Q 279.57425 293.171875 280.3505 294.33625 
Q 281.12675 295.49875 281.12675 297.713125 
Q 281.12675 299.921875 280.3505 301.08625 
Q 279.57425 302.24875 278.102375 302.24875 
Q 276.632375 302.24875 275.856125 301.08625 
Q 275.079875 299.921875 275.079875 297.713125 
Q 275.079875 295.49875 275.856125 294.33625 
Q 276.632375 293.171875 278.102375 293.171875 
z
M 283.205891 300.589375 
L 284.443391 300.589375 
L 284.443391 302.078125 
L 283.205891 302.078125 
z
M 287.033469 293.329375 
L 291.679719 293.329375 
L 291.679719 294.326875 
L 288.117219 294.326875 
L 288.117219 296.47 
Q 288.374094 296.381875 288.630969 296.33875 
Q 288.889719 296.295625 289.148469 296.295625 
Q 290.612844 296.295625 291.467844 297.098125 
Q 292.324719 297.900625 292.324719 299.27125 
Q 292.324719 300.683125 291.445344 301.466875 
Q 290.565969 302.24875 288.966594 302.24875 
Q 288.415344 302.24875 287.843469 302.155 
Q 287.273469 302.06125 286.664094 301.87375 
L 286.664094 300.683125 
Q 287.190969 300.97 287.753469 301.110625 
Q 288.315969 301.25125 288.942219 301.25125 
Q 289.956594 301.25125 290.547219 300.71875 
Q 291.139719 300.18625 291.139719 299.27125 
Q 291.139719 298.358125 290.547219 297.825625 
Q 289.956594 297.29125 288.942219 297.29125 
Q 288.467844 297.29125 287.995344 297.39625 
Q 287.524719 297.50125 287.033469 297.724375 
z
"/>
     </g>
    </g>
    <g id="xtick_7">
     <g id="line2d_7">
      <g>
       <use style="stroke:#000000;stroke-width:0.8;" x="330.627" xlink:href="#mf5c3397433" y="285.96"/>
      </g>
     </g>
     <g id="text_7">
      <path d="M 322.573875 301.0825 
L 324.507 301.0825 
L 324.507 294.4075 
L 322.40325 294.829375 
L 322.40325 293.75125 
L 324.49575 293.329375 
L 325.678875 293.329375 
L 325.678875 301.0825 
L 327.612 301.0825 
L 327.612 302.078125 
L 322.573875 302.078125 
z
M 330.002391 300.589375 
L 331.239891 300.589375 
L 331.239891 302.078125 
L 330.002391 302.078125 
z
M 336.348094 294.109375 
Q 335.434969 294.109375 334.973719 295.009375 
Q 334.514344 295.9075 334.514344 297.713125 
Q 334.514344 299.51125 334.973719 300.41125 
Q 335.434969 301.31125 336.348094 301.31125 
Q 337.268719 301.31125 337.728094 300.41125 
Q 338.189344 299.51125 338.189344 297.713125 
Q 338.189344 295.9075 337.728094 295.009375 
Q 337.268719 294.109375 336.348094 294.109375 
z
M 336.348094 293.171875 
Q 337.819969 293.171875 338.596219 294.33625 
Q 339.372469 295.49875 339.372469 297.713125 
Q 339.372469 299.921875 338.596219 301.08625 
Q 337.819969 302.24875 336.348094 302.24875 
Q 334.878094 302.24875 334.101844 301.08625 
Q 333.325594 299.921875 333.325594 297.713125 
Q 333.325594 295.49875 334.101844 294.33625 
Q 334.878094 293.171875 336.348094 293.171875 
z
"/>
     </g>
    </g>
    <g id="xtick_8">
     <g id="line2d_8">
      <g>
       <use style="stroke:#000000;stroke-width:0.8;" x="377.4235" xlink:href="#mf5c3397433" y="285.96"/>
      </g>
     </g>
     <g id="text_8">
      <path d="M 369.370375 301.0825 
L 371.3035 301.0825 
L 371.3035 294.4075 
L 369.19975 294.829375 
L 369.19975 293.75125 
L 371.29225 293.329375 
L 372.475375 293.329375 
L 372.475375 301.0825 
L 374.4085 301.0825 
L 374.4085 302.078125 
L 369.370375 302.078125 
z
M 376.798891 300.589375 
L 378.036391 300.589375 
L 378.036391 302.078125 
L 376.798891 302.078125 
z
M 380.626469 293.329375 
L 385.272719 293.329375 
L 385.272719 294.326875 
L 381.710219 294.326875 
L 381.710219 296.47 
Q 381.967094 296.381875 382.223969 296.33875 
Q 382.482719 296.295625 382.741469 296.295625 
Q 384.205844 296.295625 385.060844 297.098125 
Q 385.917719 297.900625 385.917719 299.27125 
Q 385.917719 300.683125 385.038344 301.466875 
Q 384.158969 302.24875 382.559594 302.24875 
Q 382.008344 302.24875 381.436469 302.155 
Q 380.866469 302.06125 380.257094 301.87375 
L 380.257094 300.683125 
Q 380.783969 300.97 381.346469 301.110625 
Q 381.908969 301.25125 382.535219 301.25125 
Q 383.549594 301.25125 384.140219 300.71875 
Q 384.732719 300.18625 384.732719 299.27125 
Q 384.732719 298.358125 384.140219 297.825625 
Q 383.549594 297.29125 382.535219 297.29125 
Q 382.060844 297.29125 381.588344 297.39625 
Q 381.117719 297.50125 380.626469 297.724375 
z
"/>
     </g>
    </g>
    <g id="xtick_9">
     <g id="line2d_9">
      <g>
       <use style="stroke:#000000;stroke-width:0.8;" x="424.22" xlink:href="#mf5c3397433" y="285.96"/>
      </g>
     </g>
     <g id="text_9">
      <path d="M 416.980625 301.0825 
L 421.11125 301.0825 
L 421.11125 302.078125 
L 415.5575 302.078125 
L 415.5575 301.0825 
Q 416.230625 300.385 417.393125 299.21125 
Q 418.5575 298.035625 418.855625 297.694375 
Q 419.42375 297.056875 419.64875 296.614375 
Q 419.875625 296.171875 419.875625 295.744375 
Q 419.875625 295.046875 419.38625 294.608125 
Q 418.896875 294.1675 418.11125 294.1675 
Q 417.554375 294.1675 416.935625 294.360625 
Q 416.31875 294.55375 415.615625 294.9475 
L 415.615625 293.75125 
Q 416.33 293.464375 416.950625 293.318125 
Q 417.573125 293.171875 418.08875 293.171875 
Q 419.448125 293.171875 420.25625 293.8525 
Q 421.064375 294.53125 421.064375 295.6675 
Q 421.064375 296.2075 420.861875 296.69125 
Q 420.66125 297.173125 420.126875 297.829375 
Q 419.980625 298 419.195 298.811875 
Q 418.41125 299.62375 416.980625 301.0825 
z
M 423.595391 300.589375 
L 424.832891 300.589375 
L 424.832891 302.078125 
L 423.595391 302.078125 
z
M 429.941094 294.109375 
Q 429.027969 294.109375 428.566719 295.009375 
Q 428.107344 295.9075 428.107344 297.713125 
Q 428.107344 299.51125 428.566719 300.41125 
Q 429.027969 301.31125 429.941094 301.31125 
Q 430.861719 301.31125 431.321094 300.41125 
Q 431.782344 299.51125 431.782344 297.713125 
Q 431.782344 295.9075 431.321094 295.009375 
Q 430.861719 294.109375 429.941094 294.109375 
z
M 429.941094 293.171875 
Q 431.412969 293.171875 432.189219 294.33625 
Q 432.965469 295.49875 432.965469 297.713125 
Q 432.965469 299.921875 432.189219 301.08625 
Q 431.412969 302.24875 429.941094 302.24875 
Q 428.471094 302.24875 427.694844 301.08625 
Q 426.918594 299.921875 426.918594 297.713125 
Q 426.918594 295.49875 427.694844 294.33625 
Q 428.471094 293.171875 429.941094 293.171875 
z
"/>
     </g>
    </g>
    <g id="text_10">
     <path d="M 202.6915 308.93 
L 208.22275 308.93 
L 208.22275 309.9275 
L 203.874625 309.9275 
L 203.874625 312.516875 
L 208.040875 312.516875 
L 208.040875 313.5125 
L 203.874625 313.5125 
L 203.874625 316.683125 
L 208.32775 316.683125 
L 208.32775 317.67875 
L 202.6915 317.67875 
z
M 215.682906 313.716875 
L 215.682906 317.67875 
L 214.604781 317.67875 
L 214.604781 313.7525 
Q 214.604781 312.820625 214.241031 312.359375 
Q 213.877281 311.89625 213.151656 311.89625 
Q 212.277906 311.89625 211.773531 312.453125 
Q 211.269156 313.008125 211.269156 313.97 
L 211.269156 317.67875 
L 210.185406 317.67875 
L 210.185406 311.11625 
L 211.269156 311.11625 
L 211.269156 312.13625 
Q 211.657281 311.54375 212.180406 311.25125 
Q 212.705406 310.95875 213.391656 310.95875 
Q 214.522281 310.95875 215.101656 311.658125 
Q 215.682906 312.3575 215.682906 313.716875 
z
M 223.445875 314.1275 
L 223.445875 314.654375 
L 218.488375 314.654375 
Q 218.559625 315.768125 219.159625 316.35125 
Q 219.759625 316.934375 220.832125 316.934375 
Q 221.45275 316.934375 222.035875 316.7825 
Q 222.619 316.630625 223.194625 316.325 
L 223.194625 317.345 
Q 222.613375 317.590625 222.004 317.72 
Q 221.394625 317.849375 220.768375 317.849375 
Q 219.197125 317.849375 218.28025 316.93625 
Q 217.363375 316.02125 217.363375 314.46125 
Q 217.363375 312.850625 218.233375 311.905625 
Q 219.103375 310.95875 220.580875 310.95875 
Q 221.904625 310.95875 222.67525 311.811875 
Q 223.445875 312.663125 223.445875 314.1275 
z
M 222.36775 313.810625 
Q 222.3565 312.9275 221.87275 312.400625 
Q 221.389 311.871875 220.592125 311.871875 
Q 219.69025 311.871875 219.148375 312.381875 
Q 218.6065 312.891875 218.524 313.818125 
z
M 229.017437 312.123125 
Q 228.835563 312.018125 228.621813 311.969375 
Q 228.408062 311.91875 228.151188 311.91875 
Q 227.236187 311.91875 226.746813 312.513125 
Q 226.257438 313.1075 226.257438 314.22125 
L 226.257438 317.67875 
L 225.173687 317.67875 
L 225.173687 311.11625 
L 226.257438 311.11625 
L 226.257438 312.13625 
Q 226.598688 311.538125 227.142437 311.249375 
Q 227.688063 310.95875 228.468063 310.95875 
Q 228.578688 310.95875 228.713688 310.97375 
Q 228.848688 310.986875 229.011813 311.016875 
z
M 234.466656 314.320625 
Q 234.466656 313.14875 233.982906 312.505625 
Q 233.501031 311.860625 232.627281 311.860625 
Q 231.761031 311.860625 231.277281 312.505625 
Q 230.793531 313.14875 230.793531 314.320625 
Q 230.793531 315.486875 231.277281 316.131875 
Q 231.761031 316.776875 232.627281 316.776875 
Q 233.501031 316.776875 233.982906 316.131875 
Q 234.466656 315.486875 234.466656 314.320625 
z
M 235.544781 316.865 
Q 235.544781 318.539375 234.800406 319.356875 
Q 234.057906 320.174375 232.522281 320.174375 
Q 231.954156 320.174375 231.449781 320.09 
Q 230.945406 320.005625 230.471031 319.829375 
L 230.471031 318.78125 
Q 230.945406 319.038125 231.408531 319.16 
Q 231.871656 319.28375 232.351656 319.28375 
Q 233.412906 319.28375 233.939781 318.730625 
Q 234.466656 318.1775 234.466656 317.058125 
L 234.466656 316.52375 
Q 234.132906 317.105 233.611656 317.391875 
Q 233.090406 317.67875 232.362906 317.67875 
Q 231.157281 317.67875 230.418531 316.76 
Q 229.679781 315.839375 229.679781 314.320625 
Q 229.679781 312.798125 230.418531 311.879375 
Q 231.157281 310.95875 232.362906 310.95875 
Q 233.090406 310.95875 233.611656 311.245625 
Q 234.132906 311.5325 234.466656 312.111875 
L 234.466656 311.11625 
L 235.544781 311.11625 
z
M 240.495719 318.288125 
Q 240.040094 319.46 239.605094 319.81625 
Q 239.171969 320.174375 238.446344 320.174375 
L 237.583844 320.174375 
L 237.583844 319.2725 
L 238.217594 319.2725 
Q 238.661969 319.2725 238.907594 319.060625 
Q 239.155094 318.850625 239.453219 318.065 
L 239.646344 317.57375 
L 236.993219 311.11625 
L 238.135094 311.11625 
L 240.186344 316.248125 
L 242.237594 311.11625 
L 243.379469 311.11625 
z
M 251.271109 308.57375 
Q 250.487359 309.92 250.104859 311.24 
Q 249.724234 312.558125 249.724234 313.911875 
Q 249.724234 315.26375 250.108609 316.59125 
Q 250.492984 317.91875 251.271109 319.26125 
L 250.333609 319.26125 
Q 249.456109 317.883125 249.019234 316.55375 
Q 248.582359 315.224375 248.582359 313.911875 
Q 248.582359 312.605 249.015484 311.28125 
Q 249.450484 309.955625 250.333609 308.57375 
z
M 258.977125 314.1275 
L 258.977125 314.654375 
L 254.019625 314.654375 
Q 254.090875 315.768125 254.690875 316.35125 
Q 255.290875 316.934375 256.363375 316.934375 
Q 256.984 316.934375 257.567125 316.7825 
Q 258.15025 316.630625 258.725875 316.325 
L 258.725875 317.345 
Q 258.144625 317.590625 257.53525 317.72 
Q 256.925875 317.849375 256.299625 317.849375 
Q 254.728375 317.849375 253.8115 316.93625 
Q 252.894625 316.02125 252.894625 314.46125 
Q 252.894625 312.850625 253.764625 311.905625 
Q 254.634625 310.95875 256.112125 310.95875 
Q 257.435875 310.95875 258.2065 311.811875 
Q 258.977125 312.663125 258.977125 314.1275 
z
M 257.899 313.810625 
Q 257.88775 312.9275 257.404 312.400625 
Q 256.92025 311.871875 256.123375 311.871875 
Q 255.2215 311.871875 254.679625 312.381875 
Q 254.13775 312.891875 254.05525 313.818125 
z
M 263.048688 317.67875 
L 259.709313 308.93 
L 260.944938 308.93 
L 263.718063 316.295 
L 266.494937 308.93 
L 267.724938 308.93 
L 264.391188 317.67875 
z
M 268.786422 308.57375 
L 269.723922 308.57375 
Q 270.601422 309.955625 271.038297 311.28125 
Q 271.475172 312.605 271.475172 313.911875 
Q 271.475172 315.224375 271.038297 316.55375 
Q 270.601422 317.883125 269.723922 319.26125 
L 268.786422 319.26125 
Q 269.564547 317.91875 269.948922 316.59125 
Q 270.333297 315.26375 270.333297 313.911875 
Q 270.333297 312.558125 269.948922 311.24 
Q 269.564547 309.92 268.786422 308.57375 
z
"/>
    </g>
   </g>
   <g id="matplotlib.axis_2">
    <g id="ytick_1">
     <g id="line2d_10">
      <defs>
       <path d="M 0 0 
L -3.5 0 
" id="m227c07f7a0" style="stroke:#000000;stroke-width:0.8;"/>
      </defs>
      <g>
       <use style="stroke:#000000;stroke-width:0.8;" x="49.848" xlink:href="#m227c07f7a0" y="285.96"/>
      </g>
     </g>
     <g id="text_11">
      <path d="M 27.578 282.550312 
Q 26.664875 282.550312 26.203625 283.450312 
Q 25.74425 284.348437 25.74425 286.154062 
Q 25.74425 287.952187 26.203625 288.852187 
Q 26.664875 289.752187 27.578 289.752187 
Q 28.498625 289.752187 28.958 288.852187 
Q 29.41925 287.952187 29.41925 286.154062 
Q 29.41925 284.348437 28.958 283.450312 
Q 28.498625 282.550312 27.578 282.550312 
z
M 27.578 281.612812 
Q 29.049875 281.612812 29.826125 282.777187 
Q 30.602375 283.939687 30.602375 286.154062 
Q 30.602375 288.362812 29.826125 289.527187 
Q 29.049875 290.689687 27.578 290.689687 
Q 26.108 290.689687 25.33175 289.527187 
Q 24.5555 288.362812 24.5555 286.154062 
Q 24.5555 283.939687 25.33175 282.777187 
Q 26.108 281.612812 27.578 281.612812 
z
M 32.681516 289.030312 
L 33.919016 289.030312 
L 33.919016 290.519062 
L 32.681516 290.519062 
z
M 39.027219 282.550312 
Q 38.114094 282.550312 37.652844 283.450312 
Q 37.193469 284.348437 37.193469 286.154062 
Q 37.193469 287.952187 37.652844 288.852187 
Q 38.114094 289.752187 39.027219 289.752187 
Q 39.947844 289.752187 40.407219 288.852187 
Q 40.868469 287.952187 40.868469 286.154062 
Q 40.868469 284.348437 40.407219 283.450312 
Q 39.947844 282.550312 39.027219 282.550312 
z
M 39.027219 281.612812 
Q 40.499094 281.612812 41.275344 282.777187 
Q 42.051594 283.939687 42.051594 286.154062 
Q 42.051594 288.362812 41.275344 289.527187 
Q 40.499094 290.689687 39.027219 290.689687 
Q 37.557219 290.689687 36.780969 289.527187 
Q 36.004719 288.362812 36.004719 286.154062 
Q 36.004719 283.939687 36.780969 282.777187 
Q 37.557219 281.612812 39.027219 281.612812 
z
"/>
     </g>
    </g>
    <g id="ytick_2">
     <g id="line2d_11">
      <g>
       <use style="stroke:#000000;stroke-width:0.8;" x="49.848" xlink:href="#m227c07f7a0" y="254.238007"/>
      </g>
     </g>
     <g id="text_12">
      <path d="M 27.578 250.828319 
Q 26.664875 250.828319 26.203625 251.728319 
Q 25.74425 252.626444 25.74425 254.432069 
Q 25.74425 256.230194 26.203625 257.130194 
Q 26.664875 258.030194 27.578 258.030194 
Q 28.498625 258.030194 28.958 257.130194 
Q 29.41925 256.230194 29.41925 254.432069 
Q 29.41925 252.626444 28.958 251.728319 
Q 28.498625 250.828319 27.578 250.828319 
z
M 27.578 249.890819 
Q 29.049875 249.890819 29.826125 251.055194 
Q 30.602375 252.217694 30.602375 254.432069 
Q 30.602375 256.640819 29.826125 257.805194 
Q 29.049875 258.967694 27.578 258.967694 
Q 26.108 258.967694 25.33175 257.805194 
Q 24.5555 256.640819 24.5555 254.432069 
Q 24.5555 252.217694 25.33175 251.055194 
Q 26.108 249.890819 27.578 249.890819 
z
M 32.681516 257.308319 
L 33.919016 257.308319 
L 33.919016 258.797069 
L 32.681516 258.797069 
z
M 36.509094 250.048319 
L 41.155344 250.048319 
L 41.155344 251.045819 
L 37.592844 251.045819 
L 37.592844 253.188944 
Q 37.849719 253.100819 38.106594 253.057694 
Q 38.365344 253.014569 38.624094 253.014569 
Q 40.088469 253.014569 40.943469 253.817069 
Q 41.800344 254.619569 41.800344 255.990194 
Q 41.800344 257.402069 40.920969 258.185819 
Q 40.041594 258.967694 38.442219 258.967694 
Q 37.890969 258.967694 37.319094 258.873944 
Q 36.749094 258.780194 36.139719 258.592694 
L 36.139719 257.402069 
Q 36.666594 257.688944 37.229094 257.829569 
Q 37.791594 257.970194 38.417844 257.970194 
Q 39.432219 257.970194 40.022844 257.437694 
Q 40.615344 256.905194 40.615344 255.990194 
Q 40.615344 255.077069 40.022844 254.544569 
Q 39.432219 254.010194 38.417844 254.010194 
Q 37.943469 254.010194 37.470969 254.115194 
Q 37.000344 254.220194 36.509094 254.443319 
z
"/>
     </g>
    </g>
    <g id="ytick_3">
     <g id="line2d_12">
      <g>
       <use style="stroke:#000000;stroke-width:0.8;" x="49.848" xlink:href="#m227c07f7a0" y="222.516013"/>
      </g>
     </g>
     <g id="text_13">
      <path d="M 25.253 226.079451 
L 27.186125 226.079451 
L 27.186125 219.404451 
L 25.082375 219.826326 
L 25.082375 218.748201 
L 27.174875 218.326326 
L 28.358 218.326326 
L 28.358 226.079451 
L 30.291125 226.079451 
L 30.291125 227.075076 
L 25.253 227.075076 
z
M 32.681516 225.586326 
L 33.919016 225.586326 
L 33.919016 227.075076 
L 32.681516 227.075076 
z
M 39.027219 219.106326 
Q 38.114094 219.106326 37.652844 220.006326 
Q 37.193469 220.904451 37.193469 222.710076 
Q 37.193469 224.508201 37.652844 225.408201 
Q 38.114094 226.308201 39.027219 226.308201 
Q 39.947844 226.308201 40.407219 225.408201 
Q 40.868469 224.508201 40.868469 222.710076 
Q 40.868469 220.904451 40.407219 220.006326 
Q 39.947844 219.106326 39.027219 219.106326 
z
M 39.027219 218.168826 
Q 40.499094 218.168826 41.275344 219.333201 
Q 42.051594 220.495701 42.051594 222.710076 
Q 42.051594 224.918826 41.275344 226.083201 
Q 40.499094 227.245701 39.027219 227.245701 
Q 37.557219 227.245701 36.780969 226.083201 
Q 36.004719 224.918826 36.004719 222.710076 
Q 36.004719 220.495701 36.780969 219.333201 
Q 37.557219 218.168826 39.027219 218.168826 
z
"/>
     </g>
    </g>
    <g id="ytick_4">
     <g id="line2d_13">
      <g>
       <use style="stroke:#000000;stroke-width:0.8;" x="49.848" xlink:href="#m227c07f7a0" y="190.79402"/>
      </g>
     </g>
     <g id="text_14">
      <path d="M 25.253 194.357457 
L 27.186125 194.357457 
L 27.186125 187.682457 
L 25.082375 188.104332 
L 25.082375 187.026207 
L 27.174875 186.604332 
L 28.358 186.604332 
L 28.358 194.357457 
L 30.291125 194.357457 
L 30.291125 195.353082 
L 25.253 195.353082 
z
M 32.681516 193.864332 
L 33.919016 193.864332 
L 33.919016 195.353082 
L 32.681516 195.353082 
z
M 36.509094 186.604332 
L 41.155344 186.604332 
L 41.155344 187.601832 
L 37.592844 187.601832 
L 37.592844 189.744957 
Q 37.849719 189.656832 38.106594 189.613707 
Q 38.365344 189.570582 38.624094 189.570582 
Q 40.088469 189.570582 40.943469 190.373082 
Q 41.800344 191.175582 41.800344 192.546207 
Q 41.800344 193.958082 40.920969 194.741832 
Q 40.041594 195.523707 38.442219 195.523707 
Q 37.890969 195.523707 37.319094 195.429957 
Q 36.749094 195.336207 36.139719 195.148707 
L 36.139719 193.958082 
Q 36.666594 194.244957 37.229094 194.385582 
Q 37.791594 194.526207 38.417844 194.526207 
Q 39.432219 194.526207 40.022844 193.993707 
Q 40.615344 193.461207 40.615344 192.546207 
Q 40.615344 191.633082 40.022844 191.100582 
Q 39.432219 190.566207 38.417844 190.566207 
Q 37.943469 190.566207 37.470969 190.671207 
Q 37.000344 190.776207 36.509094 190.999332 
z
"/>
     </g>
    </g>
    <g id="ytick_5">
     <g id="line2d_14">
      <g>
       <use style="stroke:#000000;stroke-width:0.8;" x="49.848" xlink:href="#m227c07f7a0" y="159.072026"/>
      </g>
     </g>
     <g id="text_15">
      <path d="M 26.06675 162.635464 
L 30.197375 162.635464 
L 30.197375 163.631089 
L 24.643625 163.631089 
L 24.643625 162.635464 
Q 25.31675 161.937964 26.47925 160.764214 
Q 27.643625 159.588589 27.94175 159.247339 
Q 28.509875 158.609839 28.734875 158.167339 
Q 28.96175 157.724839 28.96175 157.297339 
Q 28.96175 156.599839 28.472375 156.161089 
Q 27.983 155.720464 27.197375 155.720464 
Q 26.6405 155.720464 26.02175 155.913589 
Q 25.404875 156.106714 24.70175 156.500464 
L 24.70175 155.304214 
Q 25.416125 155.017339 26.03675 154.871089 
Q 26.65925 154.724839 27.174875 154.724839 
Q 28.53425 154.724839 29.342375 155.405464 
Q 30.1505 156.084214 30.1505 157.220464 
Q 30.1505 157.760464 29.948 158.244214 
Q 29.747375 158.726089 29.213 159.382339 
Q 29.06675 159.552964 28.281125 160.364839 
Q 27.497375 161.176714 26.06675 162.635464 
z
M 32.681516 162.142339 
L 33.919016 162.142339 
L 33.919016 163.631089 
L 32.681516 163.631089 
z
M 39.027219 155.662339 
Q 38.114094 155.662339 37.652844 156.562339 
Q 37.193469 157.460464 37.193469 159.266089 
Q 37.193469 161.064214 37.652844 161.964214 
Q 38.114094 162.864214 39.027219 162.864214 
Q 39.947844 162.864214 40.407219 161.964214 
Q 40.868469 161.064214 40.868469 159.266089 
Q 40.868469 157.460464 40.407219 156.562339 
Q 39.947844 155.662339 39.027219 155.662339 
z
M 39.027219 154.724839 
Q 40.499094 154.724839 41.275344 155.889214 
Q 42.051594 157.051714 42.051594 159.266089 
Q 42.051594 161.474839 41.275344 162.639214 
Q 40.499094 163.801714 39.027219 163.801714 
Q 37.557219 163.801714 36.780969 162.639214 
Q 36.004719 161.474839 36.004719 159.266089 
Q 36.004719 157.051714 36.780969 155.889214 
Q 37.557219 154.724839 39.027219 154.724839 
z
"/>
     </g>
    </g>
    <g id="ytick_6">
     <g id="line2d_15">
      <g>
       <use style="stroke:#000000;stroke-width:0.8;" x="49.848" xlink:href="#m227c07f7a0" y="127.350033"/>
      </g>
     </g>
     <g id="text_16">
      <path d="M 26.06675 130.91347 
L 30.197375 130.91347 
L 30.197375 131.909095 
L 24.643625 131.909095 
L 24.643625 130.91347 
Q 25.31675 130.21597 26.47925 129.04222 
Q 27.643625 127.866595 27.94175 127.525345 
Q 28.509875 126.887845 28.734875 126.445345 
Q 28.96175 126.002845 28.96175 125.575345 
Q 28.96175 124.877845 28.472375 124.439095 
Q 27.983 123.99847 27.197375 123.99847 
Q 26.6405 123.99847 26.02175 124.191595 
Q 25.404875 124.38472 24.70175 124.77847 
L 24.70175 123.58222 
Q 25.416125 123.295345 26.03675 123.149095 
Q 26.65925 123.002845 27.174875 123.002845 
Q 28.53425 123.002845 29.342375 123.68347 
Q 30.1505 124.36222 30.1505 125.49847 
Q 30.1505 126.03847 29.948 126.52222 
Q 29.747375 127.004095 29.213 127.660345 
Q 29.06675 127.83097 28.281125 128.642845 
Q 27.497375 129.45472 26.06675 130.91347 
z
M 32.681516 130.420345 
L 33.919016 130.420345 
L 33.919016 131.909095 
L 32.681516 131.909095 
z
M 36.509094 123.160345 
L 41.155344 123.160345 
L 41.155344 124.157845 
L 37.592844 124.157845 
L 37.592844 126.30097 
Q 37.849719 126.212845 38.106594 126.16972 
Q 38.365344 126.126595 38.624094 126.126595 
Q 40.088469 126.126595 40.943469 126.929095 
Q 41.800344 127.731595 41.800344 129.10222 
Q 41.800344 130.514095 40.920969 131.297845 
Q 40.041594 132.07972 38.442219 132.07972 
Q 37.890969 132.07972 37.319094 131.98597 
Q 36.749094 131.89222 36.139719 131.70472 
L 36.139719 130.514095 
Q 36.666594 130.80097 37.229094 130.941595 
Q 37.791594 131.08222 38.417844 131.08222 
Q 39.432219 131.08222 40.022844 130.54972 
Q 40.615344 130.01722 40.615344 129.10222 
Q 40.615344 128.189095 40.022844 127.656595 
Q 39.432219 127.12222 38.417844 127.12222 
Q 37.943469 127.12222 37.470969 127.22722 
Q 37.000344 127.33222 36.509094 127.555345 
z
"/>
     </g>
    </g>
    <g id="ytick_7">
     <g id="line2d_16">
      <g>
       <use style="stroke:#000000;stroke-width:0.8;" x="49.848" xlink:href="#m227c07f7a0" y="95.628039"/>
      </g>
     </g>
     <g id="text_17">
      <path d="M 28.633625 95.469602 
Q 29.483 95.651477 29.95925 96.227102 
Q 30.437375 96.800852 30.437375 97.644602 
Q 30.437375 98.938352 29.54675 99.648977 
Q 28.656125 100.357727 27.0155 100.357727 
Q 26.466125 100.357727 25.883 100.248977 
Q 25.299875 100.140227 24.67925 99.922727 
L 24.67925 98.780852 
Q 25.1705 99.067727 25.7555 99.213977 
Q 26.342375 99.360227 26.98175 99.360227 
Q 28.093625 99.360227 28.67675 98.921477 
Q 29.259875 98.482727 29.259875 97.644602 
Q 29.259875 96.870227 28.718 96.435227 
Q 28.176125 95.998352 27.2105 95.998352 
L 26.1905 95.998352 
L 26.1905 95.025227 
L 27.257375 95.025227 
Q 28.12925 95.025227 28.592375 94.676477 
Q 29.0555 94.327727 29.0555 93.671477 
Q 29.0555 92.998352 28.577375 92.638352 
Q 28.101125 92.276477 27.2105 92.276477 
Q 26.723 92.276477 26.166125 92.383352 
Q 25.60925 92.488352 24.94175 92.709602 
L 24.94175 91.655852 
Q 25.61675 91.468352 26.2055 91.374602 
Q 26.79425 91.280852 27.3155 91.280852 
Q 28.663625 91.280852 29.447375 91.893977 
Q 30.233 92.505227 30.233 93.547727 
Q 30.233 94.275227 29.81675 94.775852 
Q 29.4005 95.276477 28.633625 95.469602 
z
M 32.681516 98.698352 
L 33.919016 98.698352 
L 33.919016 100.187102 
L 32.681516 100.187102 
z
M 39.027219 92.218352 
Q 38.114094 92.218352 37.652844 93.118352 
Q 37.193469 94.016477 37.193469 95.822102 
Q 37.193469 97.620227 37.652844 98.520227 
Q 38.114094 99.420227 39.027219 99.420227 
Q 39.947844 99.420227 40.407219 98.520227 
Q 40.868469 97.620227 40.868469 95.822102 
Q 40.868469 94.016477 40.407219 93.118352 
Q 39.947844 92.218352 39.027219 92.218352 
z
M 39.027219 91.280852 
Q 40.499094 91.280852 41.275344 92.445227 
Q 42.051594 93.607727 42.051594 95.822102 
Q 42.051594 98.030852 41.275344 99.195227 
Q 40.499094 100.357727 39.027219 100.357727 
Q 37.557219 100.357727 36.780969 99.195227 
Q 36.004719 98.030852 36.004719 95.822102 
Q 36.004719 93.607727 36.780969 92.445227 
Q 37.557219 91.280852 39.027219 91.280852 
z
"/>
     </g>
    </g>
    <g id="ytick_8">
     <g id="line2d_17">
      <g>
       <use style="stroke:#000000;stroke-width:0.8;" x="49.848" xlink:href="#m227c07f7a0" y="63.906046"/>
      </g>
     </g>
     <g id="text_18">
      <path d="M 28.633625 63.747608 
Q 29.483 63.929483 29.95925 64.505108 
Q 30.437375 65.078858 30.437375 65.922608 
Q 30.437375 67.216358 29.54675 67.926983 
Q 28.656125 68.635733 27.0155 68.635733 
Q 26.466125 68.635733 25.883 68.526983 
Q 25.299875 68.418233 24.67925 68.200733 
L 24.67925 67.058858 
Q 25.1705 67.345733 25.7555 67.491983 
Q 26.342375 67.638233 26.98175 67.638233 
Q 28.093625 67.638233 28.67675 67.199483 
Q 29.259875 66.760733 29.259875 65.922608 
Q 29.259875 65.148233 28.718 64.713233 
Q 28.176125 64.276358 27.2105 64.276358 
L 26.1905 64.276358 
L 26.1905 63.303233 
L 27.257375 63.303233 
Q 28.12925 63.303233 28.592375 62.954483 
Q 29.0555 62.605733 29.0555 61.949483 
Q 29.0555 61.276358 28.577375 60.916358 
Q 28.101125 60.554483 27.2105 60.554483 
Q 26.723 60.554483 26.166125 60.661358 
Q 25.60925 60.766358 24.94175 60.987608 
L 24.94175 59.933858 
Q 25.61675 59.746358 26.2055 59.652608 
Q 26.79425 59.558858 27.3155 59.558858 
Q 28.663625 59.558858 29.447375 60.171983 
Q 30.233 60.783233 30.233 61.825733 
Q 30.233 62.553233 29.81675 63.053858 
Q 29.4005 63.554483 28.633625 63.747608 
z
M 32.681516 66.976358 
L 33.919016 66.976358 
L 33.919016 68.465108 
L 32.681516 68.465108 
z
M 36.509094 59.716358 
L 41.155344 59.716358 
L 41.155344 60.713858 
L 37.592844 60.713858 
L 37.592844 62.856983 
Q 37.849719 62.768858 38.106594 62.725733 
Q 38.365344 62.682608 38.624094 62.682608 
Q 40.088469 62.682608 40.943469 63.485108 
Q 41.800344 64.287608 41.800344 65.658233 
Q 41.800344 67.070108 40.920969 67.853858 
Q 40.041594 68.635733 38.442219 68.635733 
Q 37.890969 68.635733 37.319094 68.541983 
Q 36.749094 68.448233 36.139719 68.260733 
L 36.139719 67.070108 
Q 36.666594 67.356983 37.229094 67.497608 
Q 37.791594 67.638233 38.417844 67.638233 
Q 39.432219 67.638233 40.022844 67.105733 
Q 40.615344 66.573233 40.615344 65.658233 
Q 40.615344 64.745108 40.022844 64.212608 
Q 39.432219 63.678233 38.417844 63.678233 
Q 37.943469 63.678233 37.470969 63.783233 
Q 37.000344 63.888233 36.509094 64.111358 
z
"/>
     </g>
    </g>
    <g id="ytick_9">
     <g id="line2d_18">
      <g>
       <use style="stroke:#000000;stroke-width:0.8;" x="49.848" xlink:href="#m227c07f7a0" y="32.184052"/>
      </g>
     </g>
     <g id="text_19">
      <path d="M 28.299875 29.025615 
L 25.311125 33.69624 
L 28.299875 33.69624 
z
M 27.988625 27.994365 
L 29.477375 27.994365 
L 29.477375 33.69624 
L 30.726125 33.69624 
L 30.726125 34.680615 
L 29.477375 34.680615 
L 29.477375 36.743115 
L 28.299875 36.743115 
L 28.299875 34.680615 
L 24.351125 34.680615 
L 24.351125 33.53874 
z
M 32.681516 35.254365 
L 33.919016 35.254365 
L 33.919016 36.743115 
L 32.681516 36.743115 
z
M 39.027219 28.774365 
Q 38.114094 28.774365 37.652844 29.674365 
Q 37.193469 30.57249 37.193469 32.378115 
Q 37.193469 34.17624 37.652844 35.07624 
Q 38.114094 35.97624 39.027219 35.97624 
Q 39.947844 35.97624 40.407219 35.07624 
Q 40.868469 34.17624 40.868469 32.378115 
Q 40.868469 30.57249 40.407219 29.674365 
Q 39.947844 28.774365 39.027219 28.774365 
z
M 39.027219 27.836865 
Q 40.499094 27.836865 41.275344 29.00124 
Q 42.051594 30.16374 42.051594 32.378115 
Q 42.051594 34.586865 41.275344 35.75124 
Q 40.499094 36.91374 39.027219 36.91374 
Q 37.557219 36.91374 36.780969 35.75124 
Q 36.004719 34.586865 36.004719 32.378115 
Q 36.004719 30.16374 36.780969 29.00124 
Q 37.557219 27.836865 39.027219 27.836865 
z
"/>
     </g>
    </g>
    <g id="text_20">
     <path d="M 9.410875 186.059375 
L 16.213375 186.059375 
L 16.213375 184.62875 
Q 16.213375 182.8175 15.394 181.9775 
Q 14.57275 181.1375 12.80275 181.1375 
Q 11.045875 181.1375 10.228375 181.9775 
Q 9.410875 182.8175 9.410875 184.62875 
z
M 8.43775 187.2425 
L 8.43775 184.810625 
Q 8.43775 182.268125 9.49525 181.079375 
Q 10.55275 179.88875 12.80275 179.88875 
Q 15.065875 179.88875 16.127125 181.085 
Q 17.1865 182.279375 17.1865 184.810625 
L 17.1865 187.2425 
z
M 9.24025 174.451016 
Q 9.24025 175.741016 10.202125 176.500391 
Q 11.162125 177.257891 12.8215 177.257891 
Q 14.473375 177.257891 15.43525 176.500391 
Q 16.39525 175.741016 16.39525 174.451016 
Q 16.39525 173.162891 15.43525 172.409141 
Q 14.473375 171.655391 12.8215 171.655391 
Q 11.162125 171.655391 10.202125 172.409141 
Q 9.24025 173.162891 9.24025 174.451016 
z
M 8.28025 174.451016 
Q 8.28025 172.611641 9.514 171.511016 
Q 10.74775 170.408516 12.8215 170.408516 
Q 14.889625 170.408516 16.123375 171.511016 
Q 17.357125 172.611641 17.357125 174.451016 
Q 17.357125 176.296016 16.127125 177.402266 
Q 14.89525 178.506641 12.8215 178.506641 
Q 10.74775 178.506641 9.514 177.402266 
Q 8.28025 176.296016 8.28025 174.451016 
z
M 8.724625 163.312578 
L 9.879625 163.312578 
Q 9.557125 163.985703 9.399625 164.583828 
Q 9.24025 165.181953 9.24025 165.738828 
Q 9.24025 166.704453 9.61525 167.229453 
Q 9.99025 167.754453 10.682125 167.754453 
Q 11.263375 167.754453 11.559625 167.405703 
Q 11.854 167.056953 12.035875 166.083828 
L 12.182125 165.369453 
Q 12.43525 164.045703 13.070875 163.415703 
Q 13.7065 162.785703 14.7715 162.785703 
Q 16.044625 162.785703 16.700875 163.638828 
Q 17.357125 164.490078 17.357125 166.136328 
Q 17.357125 166.756953 17.2165 167.458203 
Q 17.075875 168.157578 16.80025 168.907578 
L 15.5815 168.907578 
Q 15.984625 168.187578 16.190875 167.495703 
Q 16.39525 166.803828 16.39525 166.136328 
Q 16.39525 165.123828 15.99775 164.572578 
Q 15.598375 164.021328 14.859625 164.021328 
Q 14.2165 164.021328 13.85275 164.416953 
Q 13.489 164.812578 13.307125 165.714453 
L 13.1665 166.436328 
Q 12.904 167.760078 12.3415 168.352578 
Q 11.779 168.943203 10.775875 168.943203 
Q 9.61525 168.943203 8.94775 168.125703 
Q 8.28025 167.308203 8.28025 165.873828 
Q 8.28025 165.256953 8.39275 164.619453 
Q 8.503375 163.980078 8.724625 163.312578 
z
M 8.0815 154.582812 
Q 9.42775 155.366562 10.74775 155.749062 
Q 12.065875 156.129687 13.419625 156.129687 
Q 14.7715 156.129687 16.099 155.745312 
Q 17.4265 155.360937 18.769 154.582812 
L 18.769 155.520312 
Q 17.390875 156.397812 16.0615 156.834687 
Q 14.732125 157.271562 13.419625 157.271562 
Q 12.11275 157.271562 10.789 156.838437 
Q 9.463375 156.403437 8.0815 155.520312 
z
M 13.63525 146.876797 
L 14.162125 146.876797 
L 14.162125 151.834297 
Q 15.275875 151.763047 15.859 151.163047 
Q 16.442125 150.563047 16.442125 149.490547 
Q 16.442125 148.869922 16.29025 148.286797 
Q 16.138375 147.703672 15.83275 147.128047 
L 16.85275 147.128047 
Q 17.098375 147.709297 17.22775 148.318672 
Q 17.357125 148.928047 17.357125 149.554297 
Q 17.357125 151.125547 16.444 152.042422 
Q 15.529 152.959297 13.969 152.959297 
Q 12.358375 152.959297 11.413375 152.089297 
Q 10.4665 151.219297 10.4665 149.741797 
Q 10.4665 148.418047 11.319625 147.647422 
Q 12.170875 146.876797 13.63525 146.876797 
z
M 13.318375 147.954922 
Q 12.43525 147.966172 11.908375 148.449922 
Q 11.379625 148.933672 11.379625 149.730547 
Q 11.379625 150.632422 11.889625 151.174297 
Q 12.399625 151.716172 13.325875 151.798672 
z
M 17.1865 142.805234 
L 8.43775 146.144609 
L 8.43775 144.908984 
L 15.80275 142.135859 
L 8.43775 139.358984 
L 8.43775 138.128984 
L 17.1865 141.462734 
z
M 9.61075 137.024656 
L 9.61075 131.766781 
L 10.307688 131.766781 
L 10.307688 137.024656 
z
M 11.895813 129.834125 
L 11.895813 128.480937 
L 7.223313 128.480937 
L 7.518625 129.953562 
L 6.763938 129.953562 
L 6.468625 128.488812 
L 6.468625 127.660625 
L 11.895813 127.660625 
L 11.895813 126.307437 
L 12.59275 126.307437 
L 12.59275 129.834125 
z
M 8.0815 124.241914 
L 8.0815 123.304414 
Q 9.463375 122.426914 10.789 121.990039 
Q 12.11275 121.553164 13.419625 121.553164 
Q 14.732125 121.553164 16.0615 121.990039 
Q 17.390875 122.426914 18.769 123.304414 
L 18.769 124.241914 
Q 17.4265 123.463789 16.099 123.079414 
Q 14.7715 122.695039 13.419625 122.695039 
Q 12.065875 122.695039 10.74775 123.079414 
Q 9.42775 123.463789 8.0815 124.241914 
z
"/>
    </g>
   </g>
   <path clip-path="url(#p0f6475c673)" d="M 49.848 199.291776 
L 52.65579 199.639576 
L 69.50253 203.593779 
L 74.18218 205.416984 
L 81.66962 211.02483 
L 83.54148 212.178946 
L 84.47741 212.513462 
L 102.26008 212.499975 
L 105.06787 212.133287 
L 121.91461 209.324209 
L 125.65833 208.653622 
L 131.27391 204.381 
L 137.82542 199.256941 
L 138.76135 195.704979 
L 143.441 167.315679 
L 147.18472 157.619993 
L 149.99251 150.409467 
L 150.92844 35.48381 
L 151.86437 47.611042 
L 152.8003 72.841819 
L 158.41588 169.849259 
L 159.35181 184.362073 
L 161.22367 201.321871 
L 163.09553 214.183757 
L 164.03146 217.766125 
L 170.58297 220.006819 
L 171.5189 219.926004 
L 177.13448 184.430437 
L 179.00634 170.69501 
L 179.94227 165.044656 
L 183.68599 156.184519 
L 184.62192 182.461657 
L 185.55785 225.607512 
L 186.49378 228.209741 
L 193.04529 230.534709 
L 194.91715 226.055277 
L 201.46866 209.873006 
L 202.40459 208.467183 
L 203.34052 208.614427 
L 204.27645 208.875011 
L 208.9561 212.341628 
L 209.89203 212.671098 
L 224.86691 213.935149 
L 228.61063 212.170828 
L 229.54656 210.591664 
L 233.29028 198.242435 
L 235.16214 192.368212 
L 236.09807 186.813204 
L 239.84179 160.497481 
L 240.77772 149.439559 
L 242.64958 115.996198 
L 243.58551 110.420194 
L 249.20109 108.009246 
L 250.13702 108.270643 
L 252.00888 117.514801 
L 253.88074 125.450992 
L 254.81667 128.678114 
L 257.62446 121.295758 
L 258.56039 118.790504 
L 259.49632 118.223228 
L 263.24004 118.27487 
L 265.1119 119.349724 
L 268.85562 121.654106 
L 269.79155 122.441202 
L 271.66341 127.810877 
L 272.59934 129.181062 
L 277.27899 126.858589 
L 278.21492 128.501979 
L 284.76643 149.233004 
L 285.70236 151.188729 
L 290.38201 157.790631 
L 295.99759 168.274762 
L 299.74131 175.319351 
L 300.67724 176.726797 
L 316.58805 191.907494 
L 319.39584 195.292618 
L 324.07549 200.699406 
L 325.01142 201.453822 
L 329.69107 202.71175 
L 330.627 202.736425 
L 346.53781 195.63876 
L 347.47374 195.095232 
L 353.08932 190.743535 
L 354.02525 128.585429 
L 354.96118 122.883442 
L 355.89711 163.066031 
L 356.83304 183.437089 
L 358.7049 185.615253 
L 364.32048 194.498858 
L 374.61571 210.74506 
L 376.48757 211.610274 
L 385.84687 215.295848 
L 392.39838 217.821545 
L 393.33431 218.328687 
L 420.47628 236.710188 
L 424.22 237.054569 
L 424.22 237.054569 
" style="fill:none;stroke:#000000;stroke-linecap:square;stroke-width:1.5;"/>
   <path clip-path="url(#p0f6475c673)" d="M 49.848 275.591213 
L 60.14323 275.901142 
L 71.37439 276.366375 
L 86.34927 277.59468 
L 105.06787 277.730351 
L 126.59426 276.695446 
L 136.88949 275.127608 
L 137.82542 274.97264 
L 138.76135 274.23338 
L 143.441 268.314961 
L 149.99251 264.707765 
L 150.92844 243.112367 
L 151.86437 244.426129 
L 152.8003 248.873395 
L 158.41588 265.890554 
L 159.35181 268.261009 
L 161.22367 271.175615 
L 163.09553 273.13848 
L 164.03146 273.693592 
L 171.5189 274.536358 
L 177.13448 268.844171 
L 179.00634 266.541565 
L 179.94227 265.591052 
L 183.68599 264.053586 
L 184.62192 268.572293 
L 185.55785 275.502807 
L 186.49378 275.903466 
L 193.04529 276.276145 
L 196.78901 274.806539 
L 202.40459 272.501404 
L 204.27645 272.53773 
L 209.89203 273.291512 
L 223.93098 273.187068 
L 225.80284 273.083129 
L 228.61063 272.758094 
L 229.54656 272.496517 
L 233.29028 270.686833 
L 235.16214 269.874759 
L 237.034 268.643532 
L 239.84179 266.709115 
L 240.77772 265.803999 
L 242.64958 262.973156 
L 243.58551 262.475242 
L 252.00888 262.525102 
L 253.88074 262.218115 
L 254.81667 261.91487 
L 258.56039 259.694711 
L 260.43225 259.273007 
L 264.17597 258.696637 
L 268.85562 258.386188 
L 269.79155 258.463423 
L 271.66341 259.556775 
L 272.59934 259.809164 
L 277.27899 258.574556 
L 278.21492 258.896206 
L 284.76643 263.485935 
L 285.70236 263.916359 
L 301.61317 268.708549 
L 316.58805 271.034146 
L 324.07549 272.827898 
L 325.94735 273.012653 
L 330.627 273.180658 
L 349.3456 271.461027 
L 353.08932 271.006474 
L 354.02525 261.566641 
L 354.96118 261.008397 
L 355.89711 267.003331 
L 356.83304 269.945013 
L 360.57676 270.760409 
L 374.61571 274.233363 
L 379.29536 274.003219 
L 382.10315 273.918269 
L 397.07803 275.139297 
L 420.47628 277.422542 
L 424.22 277.519569 
L 424.22 277.519569 
" style="fill:none;stroke:#74a402;stroke-linecap:square;"/>
   <path clip-path="url(#p0f6475c673)" d="M 49.848 274.6333 
L 55.46358 274.737469 
L 70.43846 275.238009 
L 76.98997 275.91698 
L 84.47741 276.808383 
L 106.0038 277.25378 
L 125.65833 277.102757 
L 137.82542 275.696581 
L 139.69728 275.137818 
L 143.441 273.828345 
L 149.99251 272.478379 
L 150.92844 251.691845 
L 151.86437 253.644111 
L 152.8003 258.08833 
L 156.54402 270.066809 
L 157.47995 272.556263 
L 159.35181 276.557679 
L 162.1596 279.712889 
L 163.09553 280.694594 
L 164.03146 281.210768 
L 171.5189 280.905145 
L 179.94227 276.129207 
L 183.68599 275.450554 
L 184.62192 277.500088 
L 185.55785 281.354354 
L 186.49378 281.603905 
L 193.04529 281.810791 
L 199.5968 280.468306 
L 202.40459 280.067509 
L 207.08424 280.3418 
L 213.63575 280.707264 
L 226.73877 281.20812 
L 229.54656 281.12062 
L 235.16214 279.972662 
L 236.09807 279.413825 
L 239.84179 276.554058 
L 240.77772 275.63668 
L 242.64958 273.157433 
L 243.58551 272.658494 
L 250.13702 271.861423 
L 253.88074 271.956841 
L 255.7526 271.736076 
L 258.56039 271.258995 
L 260.43225 271.34737 
L 265.1119 271.823367 
L 271.66341 272.700272 
L 272.59934 272.708814 
L 277.27899 271.601733 
L 278.21492 271.643676 
L 285.70236 273.191846 
L 300.67724 275.302322 
L 325.01142 277.296655 
L 331.56293 277.421545 
L 350.28153 276.806996 
L 353.08932 276.63511 
L 354.02525 270.510193 
L 354.96118 269.648299 
L 355.89711 273.731759 
L 356.83304 275.917114 
L 366.19234 277.241483 
L 375.55164 278.599561 
L 383.97501 278.981359 
L 395.20617 279.554019 
L 421.41221 281.734275 
L 424.22 281.758116 
L 424.22 281.758116 
" style="fill:none;stroke:#e57300;stroke-linecap:square;"/>
   <g id="patch_3">
    <path d="M 49.848 285.96 
L 49.848 22.96 
" style="fill:none;stroke:#000000;stroke-linecap:square;stroke-linejoin:miter;stroke-width:0.8;"/>
   </g>
   <g id="patch_4">
    <path d="M 424.22 285.96 
L 424.22 22.96 
" style="fill:none;stroke:#000000;stroke-linecap:square;stroke-linejoin:miter;stroke-width:0.8;"/>
   </g>
   <g id="patch_5">
    <path d="M 49.848 285.96 
L 424.22 285.96 
" style="fill:none;stroke:#000000;stroke-linecap:square;stroke-linejoin:miter;stroke-width:0.8;"/>
   </g>
   <g id="patch_6">
    <path d="M 49.848 22.96 
L 424.22 22.96 
" style="fill:none;stroke:#000000;stroke-linecap:square;stroke-linejoin:miter;stroke-width:0.8;"/>
   </g>
   <g id="text_21">
    <g id="patch_7">
     <path clip-path="url(#p0f6475c673)" d="M 231.154 42.23375 
L 242.914 42.23375 
Q 245.314 42.23375 245.314 39.83375 
L 245.314 28.22 
Q 245.314 25.82 242.914 25.82 
L 231.154 25.82 
Q 228.754 25.82 228.754 28.22 
L 228.754 39.83375 
Q 228.754 42.23375 231.154 42.23375 
z
" style="fill:#ffffff;stroke:#ffffff;stroke-linejoin:miter;"/>
    </g>
    <path clip-path="url(#p0f6475c673)" d="M 233.522125 33.685625 
Q 232.888375 33.545 232.61275 33.164375 
Q 232.408375 32.89625 232.408375 32.5325 
Q 232.408375 31.536875 233.357125 30.955625 
Q 234.107125 30.498125 235.2565 30.498125 
Q 235.700875 30.498125 236.1865 30.569375 
Q 236.674 30.63875 237.21775 30.779375 
L 237.03025 31.758125 
Q 236.492125 31.589375 236.04025 31.5125 
Q 235.577125 31.435625 235.16275 31.435625 
Q 234.46525 31.435625 234.00775 31.705625 
Q 233.4565 32.028125 233.4565 32.496875 
Q 233.4565 32.808125 233.743375 33.02375 
Q 234.084625 33.2825 234.763375 33.2825 
L 235.670875 33.2825 
L 235.502125 34.173125 
L 234.634 34.173125 
Q 233.825875 34.173125 233.3515 34.47125 
Q 232.7065 34.87625 232.7065 35.508125 
Q 232.7065 35.9075 233.053375 36.17 
Q 233.4865 36.498125 234.3715 36.498125 
Q 234.91525 36.498125 235.4365 36.393125 
Q 235.959625 36.2825 236.41525 36.065 
L 236.2165 37.068125 
Q 235.659625 37.23125 235.149625 37.31375 
Q 234.639625 37.39625 234.170875 37.39625 
Q 232.77775 37.39625 232.1215 36.861875 
Q 231.62275 36.45125 231.62275 35.76125 
Q 231.62275 34.829375 232.279 34.255625 
Q 232.764625 33.82625 233.522125 33.685625 
z
M 238.464578 33.07025 
L 241.983391 33.07025 
L 241.983391 33.7685 
L 239.292766 33.7685 
L 239.292766 35.573188 
L 241.720891 35.573188 
L 241.720891 36.270125 
L 239.292766 36.270125 
L 239.292766 39.194375 
L 238.464578 39.194375 
z
"/>
   </g>
   <g id="text_22">
    <path d="M 182.41775 6.5925 
L 182.41775 10.975 
L 184.40275 10.975 
Q 185.50525 10.975 186.10525 10.405 
Q 186.70775 9.835 186.70775 8.78 
Q 186.70775 7.7325 186.10525 7.1625 
Q 185.50525 6.5925 184.40275 6.5925 
z
M 180.84025 5.295 
L 184.40275 5.295 
Q 186.36525 5.295 187.36775 6.1825 
Q 188.37275 7.07 188.37275 8.78 
Q 188.37275 10.5075 187.36775 11.39 
Q 186.36525 12.2725 184.40275 12.2725 
L 182.41775 12.2725 
L 182.41775 16.96 
L 180.84025 16.96 
z
M 195.493687 9.5525 
Q 195.251187 9.4125 194.966187 9.3475 
Q 194.681187 9.28 194.338687 9.28 
Q 193.118687 9.28 192.466187 10.0725 
Q 191.813687 10.865 191.813687 12.35 
L 191.813687 16.96 
L 190.368687 16.96 
L 190.368687 8.21 
L 191.813687 8.21 
L 191.813687 9.57 
Q 192.268687 8.7725 192.993687 8.3875 
Q 193.721187 8 194.761187 8 
Q 194.908687 8 195.088687 8.02 
Q 195.268687 8.0375 195.486187 8.0775 
z
M 200.386812 9.2175 
Q 199.231812 9.2175 198.559312 10.12 
Q 197.886812 11.0225 197.886812 12.5925 
Q 197.886812 14.1625 198.554312 15.065 
Q 199.224312 15.9675 200.386812 15.9675 
Q 201.536812 15.9675 202.206812 15.0625 
Q 202.879312 14.155 202.879312 12.5925 
Q 202.879312 11.0375 202.206812 10.1275 
Q 201.536812 9.2175 200.386812 9.2175 
z
M 200.386812 8 
Q 202.261812 8 203.331812 9.22 
Q 204.404312 10.4375 204.404312 12.5925 
Q 204.404312 14.74 203.331812 15.965 
Q 202.261812 17.1875 200.386812 17.1875 
Q 198.504312 17.1875 197.436812 15.965 
Q 196.371812 14.74 196.371812 12.5925 
Q 196.371812 10.4375 197.436812 9.22 
Q 198.504312 8 200.386812 8 
z
M 206.785875 8.21 
L 208.223375 8.21 
L 208.223375 17.1175 
Q 208.223375 18.7875 207.585875 19.5375 
Q 206.950875 20.2875 205.535875 20.2875 
L 204.988375 20.2875 
L 204.988375 19.07 
L 205.373375 19.07 
Q 206.193375 19.07 206.488375 18.69 
Q 206.785875 18.3125 206.785875 17.1175 
z
M 206.785875 4.8025 
L 208.223375 4.8025 
L 208.223375 6.625 
L 206.785875 6.625 
z
M 218.716187 12.225 
L 218.716187 12.9275 
L 212.106187 12.9275 
Q 212.201187 14.4125 213.001187 15.19 
Q 213.801187 15.9675 215.231187 15.9675 
Q 216.058687 15.9675 216.836187 15.765 
Q 217.613687 15.5625 218.381187 15.155 
L 218.381187 16.515 
Q 217.606187 16.8425 216.793687 17.015 
Q 215.981187 17.1875 215.146187 17.1875 
Q 213.051187 17.1875 211.828687 15.97 
Q 210.606187 14.75 210.606187 12.67 
Q 210.606187 10.5225 211.766187 9.2625 
Q 212.926187 8 214.896187 8 
Q 216.661187 8 217.688687 9.1375 
Q 218.716187 10.2725 218.716187 12.225 
z
M 217.278687 11.8025 
Q 217.263687 10.625 216.618687 9.9225 
Q 215.973687 9.2175 214.911187 9.2175 
Q 213.708687 9.2175 212.986187 9.8975 
Q 212.263687 10.5775 212.153687 11.8125 
z
M 227.372437 8.545 
L 227.372437 9.89 
Q 226.762437 9.5525 226.149937 9.385 
Q 225.537437 9.2175 224.912437 9.2175 
Q 223.512437 9.2175 222.737437 10.105 
Q 221.964937 10.99 221.964937 12.5925 
Q 221.964937 14.195 222.737437 15.0825 
Q 223.512437 15.9675 224.912437 15.9675 
Q 225.537437 15.9675 226.149937 15.8 
Q 226.762437 15.6325 227.372437 15.295 
L 227.372437 16.625 
Q 226.769937 16.905 226.124937 17.045 
Q 225.482437 17.1875 224.754937 17.1875 
Q 222.777437 17.1875 221.612437 15.945 
Q 220.449937 14.7025 220.449937 12.5925 
Q 220.449937 10.4525 221.624937 9.2275 
Q 222.802437 8 224.849937 8 
Q 225.512437 8 226.144937 8.1375 
Q 226.777437 8.2725 227.372437 8.545 
z
M 231.294312 5.725 
L 231.294312 8.21 
L 234.254312 8.21 
L 234.254312 9.3275 
L 231.294312 9.3275 
L 231.294312 14.0775 
Q 231.294312 15.1475 231.586812 15.4525 
Q 231.879312 15.7575 232.779312 15.7575 
L 234.254312 15.7575 
L 234.254312 16.96 
L 232.779312 16.96 
Q 231.114312 16.96 230.481812 16.34 
Q 229.849312 15.7175 229.849312 14.0775 
L 229.849312 9.3275 
L 228.794312 9.3275 
L 228.794312 8.21 
L 229.849312 8.21 
L 229.849312 5.725 
z
M 243.63025 12.225 
L 243.63025 12.9275 
L 237.02025 12.9275 
Q 237.11525 14.4125 237.91525 15.19 
Q 238.71525 15.9675 240.14525 15.9675 
Q 240.97275 15.9675 241.75025 15.765 
Q 242.52775 15.5625 243.29525 15.155 
L 243.29525 16.515 
Q 242.52025 16.8425 241.70775 17.015 
Q 240.89525 17.1875 240.06025 17.1875 
Q 237.96525 17.1875 236.74275 15.97 
Q 235.52025 14.75 235.52025 12.67 
Q 235.52025 10.5225 236.68025 9.2625 
Q 237.84025 8 239.81025 8 
Q 241.57525 8 242.60275 9.1375 
Q 243.63025 10.2725 243.63025 12.225 
z
M 242.19275 11.8025 
Q 242.17775 10.625 241.53275 9.9225 
Q 240.88775 9.2175 239.82525 9.2175 
Q 238.62275 9.2175 237.90025 9.8975 
Q 237.17775 10.5775 237.06775 11.8125 
z
M 251.7465 9.5375 
L 251.7465 4.8025 
L 253.184 4.8025 
L 253.184 16.96 
L 251.7465 16.96 
L 251.7465 15.6475 
Q 251.294 16.4275 250.6015 16.8075 
Q 249.9115 17.1875 248.9415 17.1875 
Q 247.3565 17.1875 246.359 15.9225 
Q 245.364 14.655 245.364 12.5925 
Q 245.364 10.53 246.359 9.265 
Q 247.3565 8 248.9415 8 
Q 249.9115 8 250.6015 8.38 
Q 251.294 8.7575 251.7465 9.5375 
z
M 246.849 12.5925 
Q 246.849 14.1775 247.5015 15.08 
Q 248.154 15.9825 249.294 15.9825 
Q 250.434 15.9825 251.089 15.08 
Q 251.7465 14.1775 251.7465 12.5925 
Q 251.7465 11.0075 251.089 10.105 
Q 250.434 9.2025 249.294 9.2025 
Q 248.154 9.2025 247.5015 10.105 
Q 246.849 11.0075 246.849 12.5925 
z
M 262.871187 6.5925 
L 262.871187 15.6625 
L 264.778687 15.6625 
Q 267.193688 15.6625 268.313687 14.57 
Q 269.433687 13.475 269.433687 11.115 
Q 269.433687 8.7725 268.313687 7.6825 
Q 267.193688 6.5925 264.778687 6.5925 
z
M 261.293687 5.295 
L 264.536187 5.295 
Q 267.926187 5.295 269.511188 6.705 
Q 271.098687 8.115 271.098687 11.115 
Q 271.098687 14.1325 269.503687 15.5475 
Q 267.911187 16.96 264.536187 16.96 
L 261.293687 16.96 
z
M 278.349 6.365 
Q 276.629 6.365 275.6165 7.6475 
Q 274.6065 8.9275 274.6065 11.14 
Q 274.6065 13.3425 275.6165 14.625 
Q 276.629 15.905 278.349 15.905 
Q 280.0665 15.905 281.0715 14.625 
Q 282.0765 13.3425 282.0765 11.14 
Q 282.0765 8.9275 281.0715 7.6475 
Q 280.0665 6.365 278.349 6.365 
z
M 278.349 5.085 
Q 280.8015 5.085 282.269 6.73 
Q 283.739 8.375 283.739 11.14 
Q 283.739 13.8975 282.269 15.5425 
Q 280.8015 17.1875 278.349 17.1875 
Q 275.889 17.1875 274.414 15.5475 
Q 272.9415 13.905 272.9415 11.14 
Q 272.9415 8.375 274.414 6.73 
Q 275.889 5.085 278.349 5.085 
z
M 293.20025 5.6775 
L 293.20025 7.2175 
Q 292.30275 6.7875 291.50525 6.5775 
Q 290.70775 6.365 289.96525 6.365 
Q 288.67775 6.365 287.97775 6.865 
Q 287.27775 7.365 287.27775 8.2875 
Q 287.27775 9.0625 287.74275 9.4575 
Q 288.20775 9.85 289.50525 10.0925 
L 290.45775 10.2875 
Q 292.22275 10.625 293.06275 11.4725 
Q 293.90275 12.32 293.90275 13.74 
Q 293.90275 15.4375 292.76525 16.3125 
Q 291.63025 17.1875 289.43525 17.1875 
Q 288.60775 17.1875 287.67275 17 
Q 286.74025 16.8125 285.74025 16.445 
L 285.74025 14.82 
Q 286.70025 15.3575 287.62275 15.6325 
Q 288.54525 15.905 289.43525 15.905 
Q 290.78525 15.905 291.52025 15.375 
Q 292.25525 14.8425 292.25525 13.8575 
Q 292.25525 13 291.72775 12.515 
Q 291.20025 12.03 289.99775 11.7875 
L 289.03525 11.6 
Q 287.27025 11.25 286.48025 10.5 
Q 285.69275 9.75 285.69275 8.4125 
Q 285.69275 6.865 286.78275 5.975 
Q 287.87275 5.085 289.78525 5.085 
Q 290.60775 5.085 291.45775 5.235 
Q 292.31025 5.3825 293.20025 5.6775 
z
"/>
   </g>
   <g id="legend_1">
    <g id="patch_8">
     <path d="M 329.735625 104.350625 
L 417.22 104.350625 
Q 419.22 104.350625 419.22 102.350625 
L 419.22 29.96 
Q 419.22 27.96 417.22 27.96 
L 329.735625 27.96 
Q 327.735625 27.96 327.735625 29.96 
L 327.735625 102.350625 
Q 327.735625 104.350625 329.735625 104.350625 
z
" style="fill:#ffffff;opacity:0.8;stroke:#cccccc;stroke-linejoin:miter;"/>
    </g>
    <path d="M 331.735625 36.058438 
L 351.735625 36.058438 
" style="fill:none;stroke:#000000;stroke-dasharray:3.7,1.6;stroke-dashoffset:0;"/>
    <g id="text_23">
     <!-- Zero -->
     <defs>
      <path d="M 5.609375 72.90625 
L 62.890625 72.90625 
L 62.890625 65.375 
L 16.796875 8.296875 
L 64.015625 8.296875 
L 64.015625 0 
L 4.5 0 
L 4.5 7.515625 
L 50.59375 64.59375 
L 5.609375 64.59375 
z
" id="DejaVuSans-90"/>
      <path d="M 56.203125 29.59375 
L 56.203125 25.203125 
L 14.890625 25.203125 
Q 15.484375 15.921875 20.484375 11.0625 
Q 25.484375 6.203125 34.421875 6.203125 
Q 39.59375 6.203125 44.453125 7.46875 
Q 49.3125 8.734375 54.109375 11.28125 
L 54.109375 2.78125 
Q 49.265625 0.734375 44.1875 -0.34375 
Q 39.109375 -1.421875 33.890625 -1.421875 
Q 20.796875 -1.421875 13.15625 6.1875 
Q 5.515625 13.8125 5.515625 26.8125 
Q 5.515625 40.234375 12.765625 48.109375 
Q 20.015625 56 32.328125 56 
Q 43.359375 56 49.78125 48.890625 
Q 56.203125 41.796875 56.203125 29.59375 
z
M 47.21875 32.234375 
Q 47.125 39.59375 43.09375 43.984375 
Q 39.0625 48.390625 32.421875 48.390625 
Q 24.90625 48.390625 20.390625 44.140625 
Q 15.875 39.890625 15.1875 32.171875 
z
" id="DejaVuSans-101"/>
      <path d="M 41.109375 46.296875 
Q 39.59375 47.171875 37.8125 47.578125 
Q 36.03125 48 33.890625 48 
Q 26.265625 48 22.1875 43.046875 
Q 18.109375 38.09375 18.109375 28.8125 
L 18.109375 0 
L 9.078125 0 
L 9.078125 54.6875 
L 18.109375 54.6875 
L 18.109375 46.1875 
Q 20.953125 51.171875 25.484375 53.578125 
Q 30.03125 56 36.53125 56 
Q 37.453125 56 38.578125 55.875 
Q 39.703125 55.765625 41.0625 55.515625 
z
" id="DejaVuSans-114"/>
      <path d="M 30.609375 48.390625 
Q 23.390625 48.390625 19.1875 42.75 
Q 14.984375 37.109375 14.984375 27.296875 
Q 14.984375 17.484375 19.15625 11.84375 
Q 23.34375 6.203125 30.609375 6.203125 
Q 37.796875 6.203125 41.984375 11.859375 
Q 46.1875 17.53125 46.1875 27.296875 
Q 46.1875 37.015625 41.984375 42.703125 
Q 37.796875 48.390625 30.609375 48.390625 
z
M 30.609375 56 
Q 42.328125 56 49.015625 48.375 
Q 55.71875 40.765625 55.71875 27.296875 
Q 55.71875 13.875 49.015625 6.21875 
Q 42.328125 -1.421875 30.609375 -1.421875 
Q 18.84375 -1.421875 12.171875 6.21875 
Q 5.515625 13.875 5.515625 27.296875 
Q 5.515625 40.765625 12.171875 48.375 
Q 18.84375 56 30.609375 56 
z
" id="DejaVuSans-111"/>
     </defs>
     <g transform="translate(359.735625 39.558438)scale(0.1 -0.1)">
      <use xlink:href="#DejaVuSans-90"/>
      <use x="68.505859" xlink:href="#DejaVuSans-101"/>
      <use x="130.029297" xlink:href="#DejaVuSans-114"/>
      <use x="171.111328" xlink:href="#DejaVuSans-111"/>
     </g>
    </g>
    <path d="M 331.735625 50.736563 
L 351.735625 50.736563 
" style="fill:none;stroke:#008000;stroke-dasharray:1,1.65;stroke-dashoffset:0;"/>
    <g id="text_24">
     <!-- Fermi level -->
     <defs>
      <path d="M 9.8125 72.90625 
L 51.703125 72.90625 
L 51.703125 64.59375 
L 19.671875 64.59375 
L 19.671875 43.109375 
L 48.578125 43.109375 
L 48.578125 34.8125 
L 19.671875 34.8125 
L 19.671875 0 
L 9.8125 0 
z
" id="DejaVuSans-70"/>
      <path d="M 52 44.1875 
Q 55.375 50.25 60.0625 53.125 
Q 64.75 56 71.09375 56 
Q 79.640625 56 84.28125 50.015625 
Q 88.921875 44.046875 88.921875 33.015625 
L 88.921875 0 
L 79.890625 0 
L 79.890625 32.71875 
Q 79.890625 40.578125 77.09375 44.375 
Q 74.3125 48.1875 68.609375 48.1875 
Q 61.625 48.1875 57.5625 43.546875 
Q 53.515625 38.921875 53.515625 30.90625 
L 53.515625 0 
L 44.484375 0 
L 44.484375 32.71875 
Q 44.484375 40.625 41.703125 44.40625 
Q 38.921875 48.1875 33.109375 48.1875 
Q 26.21875 48.1875 22.15625 43.53125 
Q 18.109375 38.875 18.109375 30.90625 
L 18.109375 0 
L 9.078125 0 
L 9.078125 54.6875 
L 18.109375 54.6875 
L 18.109375 46.1875 
Q 21.1875 51.21875 25.484375 53.609375 
Q 29.78125 56 35.6875 56 
Q 41.65625 56 45.828125 52.96875 
Q 50 49.953125 52 44.1875 
z
" id="DejaVuSans-109"/>
      <path d="M 9.421875 54.6875 
L 18.40625 54.6875 
L 18.40625 0 
L 9.421875 0 
z
M 9.421875 75.984375 
L 18.40625 75.984375 
L 18.40625 64.59375 
L 9.421875 64.59375 
z
" id="DejaVuSans-105"/>
      <path id="DejaVuSans-32"/>
      <path d="M 9.421875 75.984375 
L 18.40625 75.984375 
L 18.40625 0 
L 9.421875 0 
z
" id="DejaVuSans-108"/>
      <path d="M 2.984375 54.6875 
L 12.5 54.6875 
L 29.59375 8.796875 
L 46.6875 54.6875 
L 56.203125 54.6875 
L 35.6875 0 
L 23.484375 0 
z
" id="DejaVuSans-118"/>
     </defs>
     <g transform="translate(359.735625 54.236563)scale(0.1 -0.1)">
      <use xlink:href="#DejaVuSans-70"/>
      <use x="57.441406" xlink:href="#DejaVuSans-101"/>
      <use x="118.964844" xlink:href="#DejaVuSans-114"/>
      <use x="160.0625" xlink:href="#DejaVuSans-109"/>
      <use x="257.474609" xlink:href="#DejaVuSans-105"/>
      <use x="285.257812" xlink:href="#DejaVuSans-32"/>
      <use x="317.044922" xlink:href="#DejaVuSans-108"/>
      <use x="344.828125" xlink:href="#DejaVuSans-101"/>
      <use x="406.351562" xlink:href="#DejaVuSans-118"/>
      <use x="465.53125" xlink:href="#DejaVuSans-101"/>
      <use x="527.054688" xlink:href="#DejaVuSans-108"/>
     </g>
    </g>
    <path d="M 331.735625 65.414688 
L 351.735625 65.414688 
" style="fill:none;stroke:#000000;stroke-linecap:square;stroke-width:1.5;"/>
    <g id="text_25">
     <!-- Total -->
     <defs>
      <path d="M -0.296875 72.90625 
L 61.375 72.90625 
L 61.375 64.59375 
L 35.5 64.59375 
L 35.5 0 
L 25.59375 0 
L 25.59375 64.59375 
L -0.296875 64.59375 
z
" id="DejaVuSans-84"/>
      <path d="M 18.3125 70.21875 
L 18.3125 54.6875 
L 36.8125 54.6875 
L 36.8125 47.703125 
L 18.3125 47.703125 
L 18.3125 18.015625 
Q 18.3125 11.328125 20.140625 9.421875 
Q 21.96875 7.515625 27.59375 7.515625 
L 36.8125 7.515625 
L 36.8125 0 
L 27.59375 0 
Q 17.1875 0 13.234375 3.875 
Q 9.28125 7.765625 9.28125 18.015625 
L 9.28125 47.703125 
L 2.6875 47.703125 
L 2.6875 54.6875 
L 9.28125 54.6875 
L 9.28125 70.21875 
z
" id="DejaVuSans-116"/>
      <path d="M 34.28125 27.484375 
Q 23.390625 27.484375 19.1875 25 
Q 14.984375 22.515625 14.984375 16.5 
Q 14.984375 11.71875 18.140625 8.90625 
Q 21.296875 6.109375 26.703125 6.109375 
Q 34.1875 6.109375 38.703125 11.40625 
Q 43.21875 16.703125 43.21875 25.484375 
L 43.21875 27.484375 
z
M 52.203125 31.203125 
L 52.203125 0 
L 43.21875 0 
L 43.21875 8.296875 
Q 40.140625 3.328125 35.546875 0.953125 
Q 30.953125 -1.421875 24.3125 -1.421875 
Q 15.921875 -1.421875 10.953125 3.296875 
Q 6 8.015625 6 15.921875 
Q 6 25.140625 12.171875 29.828125 
Q 18.359375 34.515625 30.609375 34.515625 
L 43.21875 34.515625 
L 43.21875 35.40625 
Q 43.21875 41.609375 39.140625 45 
Q 35.0625 48.390625 27.6875 48.390625 
Q 23 48.390625 18.546875 47.265625 
Q 14.109375 46.140625 10.015625 43.890625 
L 10.015625 52.203125 
Q 14.9375 54.109375 19.578125 55.046875 
Q 24.21875 56 28.609375 56 
Q 40.484375 56 46.34375 49.84375 
Q 52.203125 43.703125 52.203125 31.203125 
z
" id="DejaVuSans-97"/>
     </defs>
     <g transform="translate(359.735625 68.914688)scale(0.1 -0.1)">
      <use xlink:href="#DejaVuSans-84"/>
      <use x="60.818359" xlink:href="#DejaVuSans-111"/>
      <use x="122" xlink:href="#DejaVuSans-116"/>
      <use x="161.208984" xlink:href="#DejaVuSans-97"/>
      <use x="222.488281" xlink:href="#DejaVuSans-108"/>
     </g>
    </g>
    <path d="M 331.735625 80.092813 
L 351.735625 80.092813 
" style="fill:none;stroke:#74a402;stroke-linecap:square;"/>
    <g id="text_26">
     <!-- Site 2 -->
     <defs>
      <path d="M 53.515625 70.515625 
L 53.515625 60.890625 
Q 47.90625 63.578125 42.921875 64.890625 
Q 37.9375 66.21875 33.296875 66.21875 
Q 25.25 66.21875 20.875 63.09375 
Q 16.5 59.96875 16.5 54.203125 
Q 16.5 49.359375 19.40625 46.890625 
Q 22.3125 44.4375 30.421875 42.921875 
L 36.375 41.703125 
Q 47.40625 39.59375 52.65625 34.296875 
Q 57.90625 29 57.90625 20.125 
Q 57.90625 9.515625 50.796875 4.046875 
Q 43.703125 -1.421875 29.984375 -1.421875 
Q 24.8125 -1.421875 18.96875 -0.25 
Q 13.140625 0.921875 6.890625 3.21875 
L 6.890625 13.375 
Q 12.890625 10.015625 18.65625 8.296875 
Q 24.421875 6.59375 29.984375 6.59375 
Q 38.421875 6.59375 43.015625 9.90625 
Q 47.609375 13.234375 47.609375 19.390625 
Q 47.609375 24.75 44.3125 27.78125 
Q 41.015625 30.8125 33.5 32.328125 
L 27.484375 33.5 
Q 16.453125 35.6875 11.515625 40.375 
Q 6.59375 45.0625 6.59375 53.421875 
Q 6.59375 63.09375 13.40625 68.65625 
Q 20.21875 74.21875 32.171875 74.21875 
Q 37.3125 74.21875 42.625 73.28125 
Q 47.953125 72.359375 53.515625 70.515625 
z
" id="DejaVuSans-83"/>
      <path d="M 19.1875 8.296875 
L 53.609375 8.296875 
L 53.609375 0 
L 7.328125 0 
L 7.328125 8.296875 
Q 12.9375 14.109375 22.625 23.890625 
Q 32.328125 33.6875 34.8125 36.53125 
Q 39.546875 41.84375 41.421875 45.53125 
Q 43.3125 49.21875 43.3125 52.78125 
Q 43.3125 58.59375 39.234375 62.25 
Q 35.15625 65.921875 28.609375 65.921875 
Q 23.96875 65.921875 18.8125 64.3125 
Q 13.671875 62.703125 7.8125 59.421875 
L 7.8125 69.390625 
Q 13.765625 71.78125 18.9375 73 
Q 24.125 74.21875 28.421875 74.21875 
Q 39.75 74.21875 46.484375 68.546875 
Q 53.21875 62.890625 53.21875 53.421875 
Q 53.21875 48.921875 51.53125 44.890625 
Q 49.859375 40.875 45.40625 35.40625 
Q 44.1875 33.984375 37.640625 27.21875 
Q 31.109375 20.453125 19.1875 8.296875 
z
" id="DejaVuSans-50"/>
     </defs>
     <g transform="translate(359.735625 83.592813)scale(0.1 -0.1)">
      <use xlink:href="#DejaVuSans-83"/>
      <use x="63.476562" xlink:href="#DejaVuSans-105"/>
      <use x="91.259766" xlink:href="#DejaVuSans-116"/>
      <use x="130.46875" xlink:href="#DejaVuSans-101"/>
      <use x="191.992188" xlink:href="#DejaVuSans-32"/>
      <use x="223.779297" xlink:href="#DejaVuSans-50"/>
     </g>
    </g>
    <path d="M 331.735625 94.770938 
L 351.735625 94.770938 
" style="fill:none;stroke:#e57300;stroke-linecap:square;"/>
    <g id="text_27">
     <!-- Site 3 -->
     <defs>
      <path d="M 40.578125 39.3125 
Q 47.65625 37.796875 51.625 33 
Q 55.609375 28.21875 55.609375 21.1875 
Q 55.609375 10.40625 48.1875 4.484375 
Q 40.765625 -1.421875 27.09375 -1.421875 
Q 22.515625 -1.421875 17.65625 -0.515625 
Q 12.796875 0.390625 7.625 2.203125 
L 7.625 11.71875 
Q 11.71875 9.328125 16.59375 8.109375 
Q 21.484375 6.890625 26.8125 6.890625 
Q 36.078125 6.890625 40.9375 10.546875 
Q 45.796875 14.203125 45.796875 21.1875 
Q 45.796875 27.640625 41.28125 31.265625 
Q 36.765625 34.90625 28.71875 34.90625 
L 20.21875 34.90625 
L 20.21875 43.015625 
L 29.109375 43.015625 
Q 36.375 43.015625 40.234375 45.921875 
Q 44.09375 48.828125 44.09375 54.296875 
Q 44.09375 59.90625 40.109375 62.90625 
Q 36.140625 65.921875 28.71875 65.921875 
Q 24.65625 65.921875 20.015625 65.03125 
Q 15.375 64.15625 9.8125 62.3125 
L 9.8125 71.09375 
Q 15.4375 72.65625 20.34375 73.4375 
Q 25.25 74.21875 29.59375 74.21875 
Q 40.828125 74.21875 47.359375 69.109375 
Q 53.90625 64.015625 53.90625 55.328125 
Q 53.90625 49.265625 50.4375 45.09375 
Q 46.96875 40.921875 40.578125 39.3125 
z
" id="DejaVuSans-51"/>
     </defs>
     <g transform="translate(359.735625 98.270938)scale(0.1 -0.1)">
      <use xlink:href="#DejaVuSans-83"/>
      <use x="63.476562" xlink:href="#DejaVuSans-105"/>
      <use x="91.259766" xlink:href="#DejaVuSans-116"/>
      <use x="130.46875" xlink:href="#DejaVuSans-101"/>
      <use x="191.992188" xlink:href="#DejaVuSans-32"/>
      <use x="223.779297" xlink:href="#DejaVuSans-51"/>
     </g>
    </g>
   </g>
  </g>
 </g>
 <defs>
  <clipPath id="p0f6475c673">
   <rect height="263" width="374.372" x="49.848" y="22.96"/>
  </clipPath>
 </defs>
</svg>
